%TF.GenerationSoftware,KiCad,Pcbnew,9.0.7*%
%TF.CreationDate,2026-03-18T03:12:34-04:00*%
%TF.ProjectId,kicad roboarm,6b696361-6420-4726-9f62-6f61726d2e6b,rev?*%
%TF.SameCoordinates,Original*%
%TF.FileFunction,Legend,Top*%
%TF.FilePolarity,Positive*%
%FSLAX46Y46*%
G04 Gerber Fmt 4.6, Leading zero omitted, Abs format (unit mm)*
G04 Created by KiCad (PCBNEW 9.0.7) date 2026-03-18 03:12:34*
%MOMM*%
%LPD*%
G01*
G04 APERTURE LIST*
G04 Aperture macros list*
%AMRoundRect*
0 Rectangle with rounded corners*
0 $1 Rounding radius*
0 $2 $3 $4 $5 $6 $7 $8 $9 X,Y pos of 4 corners*
0 Add a 4 corners polygon primitive as box body*
4,1,4,$2,$3,$4,$5,$6,$7,$8,$9,$2,$3,0*
0 Add four circle primitives for the rounded corners*
1,1,$1+$1,$2,$3*
1,1,$1+$1,$4,$5*
1,1,$1+$1,$6,$7*
1,1,$1+$1,$8,$9*
0 Add four rect primitives between the rounded corners*
20,1,$1+$1,$2,$3,$4,$5,0*
20,1,$1+$1,$4,$5,$6,$7,0*
20,1,$1+$1,$6,$7,$8,$9,0*
20,1,$1+$1,$8,$9,$2,$3,0*%
G04 Aperture macros list end*
%ADD10C,0.150000*%
%ADD11C,0.120000*%
%ADD12RoundRect,0.250001X-1.149999X1.149999X-1.149999X-1.149999X1.149999X-1.149999X1.149999X1.149999X0*%
%ADD13C,2.800000*%
%ADD14RoundRect,0.250001X1.149999X-1.149999X1.149999X1.149999X-1.149999X1.149999X-1.149999X-1.149999X0*%
%ADD15RoundRect,0.250001X-1.149999X-1.149999X1.149999X-1.149999X1.149999X1.149999X-1.149999X1.149999X0*%
%ADD16R,1.700000X1.700000*%
%ADD17C,1.700000*%
%ADD18RoundRect,0.250000X-0.550000X-0.550000X0.550000X-0.550000X0.550000X0.550000X-0.550000X0.550000X0*%
%ADD19C,1.600000*%
G04 APERTURE END LIST*
D10*
X86785714Y-104407200D02*
X86690476Y-104454819D01*
X86690476Y-104454819D02*
X86500000Y-104454819D01*
X86500000Y-104454819D02*
X86404762Y-104407200D01*
X86404762Y-104407200D02*
X86357143Y-104311961D01*
X86357143Y-104311961D02*
X86357143Y-103931009D01*
X86357143Y-103931009D02*
X86404762Y-103835771D01*
X86404762Y-103835771D02*
X86500000Y-103788152D01*
X86500000Y-103788152D02*
X86690476Y-103788152D01*
X86690476Y-103788152D02*
X86785714Y-103835771D01*
X86785714Y-103835771D02*
X86833333Y-103931009D01*
X86833333Y-103931009D02*
X86833333Y-104026247D01*
X86833333Y-104026247D02*
X86357143Y-104121485D01*
X87261905Y-103788152D02*
X87261905Y-104454819D01*
X87261905Y-103883390D02*
X87309524Y-103835771D01*
X87309524Y-103835771D02*
X87404762Y-103788152D01*
X87404762Y-103788152D02*
X87547619Y-103788152D01*
X87547619Y-103788152D02*
X87642857Y-103835771D01*
X87642857Y-103835771D02*
X87690476Y-103931009D01*
X87690476Y-103931009D02*
X87690476Y-104454819D01*
X88595238Y-104454819D02*
X88595238Y-103931009D01*
X88595238Y-103931009D02*
X88547619Y-103835771D01*
X88547619Y-103835771D02*
X88452381Y-103788152D01*
X88452381Y-103788152D02*
X88261905Y-103788152D01*
X88261905Y-103788152D02*
X88166667Y-103835771D01*
X88595238Y-104407200D02*
X88500000Y-104454819D01*
X88500000Y-104454819D02*
X88261905Y-104454819D01*
X88261905Y-104454819D02*
X88166667Y-104407200D01*
X88166667Y-104407200D02*
X88119048Y-104311961D01*
X88119048Y-104311961D02*
X88119048Y-104216723D01*
X88119048Y-104216723D02*
X88166667Y-104121485D01*
X88166667Y-104121485D02*
X88261905Y-104073866D01*
X88261905Y-104073866D02*
X88500000Y-104073866D01*
X88500000Y-104073866D02*
X88595238Y-104026247D01*
X89071429Y-104454819D02*
X89071429Y-103454819D01*
X89071429Y-103835771D02*
X89166667Y-103788152D01*
X89166667Y-103788152D02*
X89357143Y-103788152D01*
X89357143Y-103788152D02*
X89452381Y-103835771D01*
X89452381Y-103835771D02*
X89500000Y-103883390D01*
X89500000Y-103883390D02*
X89547619Y-103978628D01*
X89547619Y-103978628D02*
X89547619Y-104264342D01*
X89547619Y-104264342D02*
X89500000Y-104359580D01*
X89500000Y-104359580D02*
X89452381Y-104407200D01*
X89452381Y-104407200D02*
X89357143Y-104454819D01*
X89357143Y-104454819D02*
X89166667Y-104454819D01*
X89166667Y-104454819D02*
X89071429Y-104407200D01*
X90119048Y-104454819D02*
X90023810Y-104407200D01*
X90023810Y-104407200D02*
X89976191Y-104311961D01*
X89976191Y-104311961D02*
X89976191Y-103454819D01*
X90880953Y-104407200D02*
X90785715Y-104454819D01*
X90785715Y-104454819D02*
X90595239Y-104454819D01*
X90595239Y-104454819D02*
X90500001Y-104407200D01*
X90500001Y-104407200D02*
X90452382Y-104311961D01*
X90452382Y-104311961D02*
X90452382Y-103931009D01*
X90452382Y-103931009D02*
X90500001Y-103835771D01*
X90500001Y-103835771D02*
X90595239Y-103788152D01*
X90595239Y-103788152D02*
X90785715Y-103788152D01*
X90785715Y-103788152D02*
X90880953Y-103835771D01*
X90880953Y-103835771D02*
X90928572Y-103931009D01*
X90928572Y-103931009D02*
X90928572Y-104026247D01*
X90928572Y-104026247D02*
X90452382Y-104121485D01*
X121204999Y-126195419D02*
X121157380Y-126147800D01*
X121157380Y-126147800D02*
X121204999Y-126100180D01*
X121204999Y-126100180D02*
X121252618Y-126147800D01*
X121252618Y-126147800D02*
X121204999Y-126195419D01*
X121204999Y-126195419D02*
X121204999Y-126100180D01*
X141524999Y-126195419D02*
X141477380Y-126147800D01*
X141477380Y-126147800D02*
X141524999Y-126100180D01*
X141524999Y-126100180D02*
X141572618Y-126147800D01*
X141572618Y-126147800D02*
X141524999Y-126195419D01*
X141524999Y-126195419D02*
X141524999Y-126100180D01*
X142547619Y-104149819D02*
X141976191Y-104149819D01*
X142261905Y-104149819D02*
X142261905Y-103149819D01*
X142261905Y-103149819D02*
X142166667Y-103292676D01*
X142166667Y-103292676D02*
X142071429Y-103387914D01*
X142071429Y-103387914D02*
X141976191Y-103435533D01*
X65150713Y-104102200D02*
X65055475Y-104149819D01*
X65055475Y-104149819D02*
X64864999Y-104149819D01*
X64864999Y-104149819D02*
X64769761Y-104102200D01*
X64769761Y-104102200D02*
X64722142Y-104006961D01*
X64722142Y-104006961D02*
X64722142Y-103626009D01*
X64722142Y-103626009D02*
X64769761Y-103530771D01*
X64769761Y-103530771D02*
X64864999Y-103483152D01*
X64864999Y-103483152D02*
X65055475Y-103483152D01*
X65055475Y-103483152D02*
X65150713Y-103530771D01*
X65150713Y-103530771D02*
X65198332Y-103626009D01*
X65198332Y-103626009D02*
X65198332Y-103721247D01*
X65198332Y-103721247D02*
X64722142Y-103816485D01*
X65626904Y-103483152D02*
X65626904Y-104149819D01*
X65626904Y-103578390D02*
X65674523Y-103530771D01*
X65674523Y-103530771D02*
X65769761Y-103483152D01*
X65769761Y-103483152D02*
X65912618Y-103483152D01*
X65912618Y-103483152D02*
X66007856Y-103530771D01*
X66007856Y-103530771D02*
X66055475Y-103626009D01*
X66055475Y-103626009D02*
X66055475Y-104149819D01*
X66960237Y-104149819D02*
X66960237Y-103626009D01*
X66960237Y-103626009D02*
X66912618Y-103530771D01*
X66912618Y-103530771D02*
X66817380Y-103483152D01*
X66817380Y-103483152D02*
X66626904Y-103483152D01*
X66626904Y-103483152D02*
X66531666Y-103530771D01*
X66960237Y-104102200D02*
X66864999Y-104149819D01*
X66864999Y-104149819D02*
X66626904Y-104149819D01*
X66626904Y-104149819D02*
X66531666Y-104102200D01*
X66531666Y-104102200D02*
X66484047Y-104006961D01*
X66484047Y-104006961D02*
X66484047Y-103911723D01*
X66484047Y-103911723D02*
X66531666Y-103816485D01*
X66531666Y-103816485D02*
X66626904Y-103768866D01*
X66626904Y-103768866D02*
X66864999Y-103768866D01*
X66864999Y-103768866D02*
X66960237Y-103721247D01*
X67436428Y-104149819D02*
X67436428Y-103149819D01*
X67436428Y-103530771D02*
X67531666Y-103483152D01*
X67531666Y-103483152D02*
X67722142Y-103483152D01*
X67722142Y-103483152D02*
X67817380Y-103530771D01*
X67817380Y-103530771D02*
X67864999Y-103578390D01*
X67864999Y-103578390D02*
X67912618Y-103673628D01*
X67912618Y-103673628D02*
X67912618Y-103959342D01*
X67912618Y-103959342D02*
X67864999Y-104054580D01*
X67864999Y-104054580D02*
X67817380Y-104102200D01*
X67817380Y-104102200D02*
X67722142Y-104149819D01*
X67722142Y-104149819D02*
X67531666Y-104149819D01*
X67531666Y-104149819D02*
X67436428Y-104102200D01*
X68484047Y-104149819D02*
X68388809Y-104102200D01*
X68388809Y-104102200D02*
X68341190Y-104006961D01*
X68341190Y-104006961D02*
X68341190Y-103149819D01*
X69245952Y-104102200D02*
X69150714Y-104149819D01*
X69150714Y-104149819D02*
X68960238Y-104149819D01*
X68960238Y-104149819D02*
X68865000Y-104102200D01*
X68865000Y-104102200D02*
X68817381Y-104006961D01*
X68817381Y-104006961D02*
X68817381Y-103626009D01*
X68817381Y-103626009D02*
X68865000Y-103530771D01*
X68865000Y-103530771D02*
X68960238Y-103483152D01*
X68960238Y-103483152D02*
X69150714Y-103483152D01*
X69150714Y-103483152D02*
X69245952Y-103530771D01*
X69245952Y-103530771D02*
X69293571Y-103626009D01*
X69293571Y-103626009D02*
X69293571Y-103721247D01*
X69293571Y-103721247D02*
X68817381Y-103816485D01*
X71007857Y-104149819D02*
X70436429Y-104149819D01*
X70722143Y-104149819D02*
X70722143Y-103149819D01*
X70722143Y-103149819D02*
X70626905Y-103292676D01*
X70626905Y-103292676D02*
X70531667Y-103387914D01*
X70531667Y-103387914D02*
X70436429Y-103435533D01*
X122633571Y-104149819D02*
X122062143Y-104149819D01*
X122347857Y-104149819D02*
X122347857Y-103149819D01*
X122347857Y-103149819D02*
X122252619Y-103292676D01*
X122252619Y-103292676D02*
X122157381Y-103387914D01*
X122157381Y-103387914D02*
X122062143Y-103435533D01*
X107314523Y-104102200D02*
X107219285Y-104149819D01*
X107219285Y-104149819D02*
X107028809Y-104149819D01*
X107028809Y-104149819D02*
X106933571Y-104102200D01*
X106933571Y-104102200D02*
X106885952Y-104006961D01*
X106885952Y-104006961D02*
X106885952Y-103626009D01*
X106885952Y-103626009D02*
X106933571Y-103530771D01*
X106933571Y-103530771D02*
X107028809Y-103483152D01*
X107028809Y-103483152D02*
X107219285Y-103483152D01*
X107219285Y-103483152D02*
X107314523Y-103530771D01*
X107314523Y-103530771D02*
X107362142Y-103626009D01*
X107362142Y-103626009D02*
X107362142Y-103721247D01*
X107362142Y-103721247D02*
X106885952Y-103816485D01*
X107790714Y-103483152D02*
X107790714Y-104149819D01*
X107790714Y-103578390D02*
X107838333Y-103530771D01*
X107838333Y-103530771D02*
X107933571Y-103483152D01*
X107933571Y-103483152D02*
X108076428Y-103483152D01*
X108076428Y-103483152D02*
X108171666Y-103530771D01*
X108171666Y-103530771D02*
X108219285Y-103626009D01*
X108219285Y-103626009D02*
X108219285Y-104149819D01*
X109124047Y-104149819D02*
X109124047Y-103626009D01*
X109124047Y-103626009D02*
X109076428Y-103530771D01*
X109076428Y-103530771D02*
X108981190Y-103483152D01*
X108981190Y-103483152D02*
X108790714Y-103483152D01*
X108790714Y-103483152D02*
X108695476Y-103530771D01*
X109124047Y-104102200D02*
X109028809Y-104149819D01*
X109028809Y-104149819D02*
X108790714Y-104149819D01*
X108790714Y-104149819D02*
X108695476Y-104102200D01*
X108695476Y-104102200D02*
X108647857Y-104006961D01*
X108647857Y-104006961D02*
X108647857Y-103911723D01*
X108647857Y-103911723D02*
X108695476Y-103816485D01*
X108695476Y-103816485D02*
X108790714Y-103768866D01*
X108790714Y-103768866D02*
X109028809Y-103768866D01*
X109028809Y-103768866D02*
X109124047Y-103721247D01*
X109600238Y-104149819D02*
X109600238Y-103149819D01*
X109600238Y-103530771D02*
X109695476Y-103483152D01*
X109695476Y-103483152D02*
X109885952Y-103483152D01*
X109885952Y-103483152D02*
X109981190Y-103530771D01*
X109981190Y-103530771D02*
X110028809Y-103578390D01*
X110028809Y-103578390D02*
X110076428Y-103673628D01*
X110076428Y-103673628D02*
X110076428Y-103959342D01*
X110076428Y-103959342D02*
X110028809Y-104054580D01*
X110028809Y-104054580D02*
X109981190Y-104102200D01*
X109981190Y-104102200D02*
X109885952Y-104149819D01*
X109885952Y-104149819D02*
X109695476Y-104149819D01*
X109695476Y-104149819D02*
X109600238Y-104102200D01*
X110647857Y-104149819D02*
X110552619Y-104102200D01*
X110552619Y-104102200D02*
X110505000Y-104006961D01*
X110505000Y-104006961D02*
X110505000Y-103149819D01*
X111409762Y-104102200D02*
X111314524Y-104149819D01*
X111314524Y-104149819D02*
X111124048Y-104149819D01*
X111124048Y-104149819D02*
X111028810Y-104102200D01*
X111028810Y-104102200D02*
X110981191Y-104006961D01*
X110981191Y-104006961D02*
X110981191Y-103626009D01*
X110981191Y-103626009D02*
X111028810Y-103530771D01*
X111028810Y-103530771D02*
X111124048Y-103483152D01*
X111124048Y-103483152D02*
X111314524Y-103483152D01*
X111314524Y-103483152D02*
X111409762Y-103530771D01*
X111409762Y-103530771D02*
X111457381Y-103626009D01*
X111457381Y-103626009D02*
X111457381Y-103721247D01*
X111457381Y-103721247D02*
X110981191Y-103816485D01*
X112409762Y-104149819D02*
X111838334Y-104149819D01*
X112124048Y-104149819D02*
X112124048Y-103149819D01*
X112124048Y-103149819D02*
X112028810Y-103292676D01*
X112028810Y-103292676D02*
X111933572Y-103387914D01*
X111933572Y-103387914D02*
X111838334Y-103435533D01*
X102669524Y-104149819D02*
X102098096Y-104149819D01*
X102383810Y-104149819D02*
X102383810Y-103149819D01*
X102383810Y-103149819D02*
X102288572Y-103292676D01*
X102288572Y-103292676D02*
X102193334Y-103387914D01*
X102193334Y-103387914D02*
X102098096Y-103435533D01*
X126491666Y-104102200D02*
X126396428Y-104149819D01*
X126396428Y-104149819D02*
X126205952Y-104149819D01*
X126205952Y-104149819D02*
X126110714Y-104102200D01*
X126110714Y-104102200D02*
X126063095Y-104006961D01*
X126063095Y-104006961D02*
X126063095Y-103626009D01*
X126063095Y-103626009D02*
X126110714Y-103530771D01*
X126110714Y-103530771D02*
X126205952Y-103483152D01*
X126205952Y-103483152D02*
X126396428Y-103483152D01*
X126396428Y-103483152D02*
X126491666Y-103530771D01*
X126491666Y-103530771D02*
X126539285Y-103626009D01*
X126539285Y-103626009D02*
X126539285Y-103721247D01*
X126539285Y-103721247D02*
X126063095Y-103816485D01*
X126967857Y-103483152D02*
X126967857Y-104149819D01*
X126967857Y-103578390D02*
X127015476Y-103530771D01*
X127015476Y-103530771D02*
X127110714Y-103483152D01*
X127110714Y-103483152D02*
X127253571Y-103483152D01*
X127253571Y-103483152D02*
X127348809Y-103530771D01*
X127348809Y-103530771D02*
X127396428Y-103626009D01*
X127396428Y-103626009D02*
X127396428Y-104149819D01*
X128301190Y-104149819D02*
X128301190Y-103626009D01*
X128301190Y-103626009D02*
X128253571Y-103530771D01*
X128253571Y-103530771D02*
X128158333Y-103483152D01*
X128158333Y-103483152D02*
X127967857Y-103483152D01*
X127967857Y-103483152D02*
X127872619Y-103530771D01*
X128301190Y-104102200D02*
X128205952Y-104149819D01*
X128205952Y-104149819D02*
X127967857Y-104149819D01*
X127967857Y-104149819D02*
X127872619Y-104102200D01*
X127872619Y-104102200D02*
X127825000Y-104006961D01*
X127825000Y-104006961D02*
X127825000Y-103911723D01*
X127825000Y-103911723D02*
X127872619Y-103816485D01*
X127872619Y-103816485D02*
X127967857Y-103768866D01*
X127967857Y-103768866D02*
X128205952Y-103768866D01*
X128205952Y-103768866D02*
X128301190Y-103721247D01*
X128777381Y-104149819D02*
X128777381Y-103149819D01*
X128777381Y-103530771D02*
X128872619Y-103483152D01*
X128872619Y-103483152D02*
X129063095Y-103483152D01*
X129063095Y-103483152D02*
X129158333Y-103530771D01*
X129158333Y-103530771D02*
X129205952Y-103578390D01*
X129205952Y-103578390D02*
X129253571Y-103673628D01*
X129253571Y-103673628D02*
X129253571Y-103959342D01*
X129253571Y-103959342D02*
X129205952Y-104054580D01*
X129205952Y-104054580D02*
X129158333Y-104102200D01*
X129158333Y-104102200D02*
X129063095Y-104149819D01*
X129063095Y-104149819D02*
X128872619Y-104149819D01*
X128872619Y-104149819D02*
X128777381Y-104102200D01*
X129825000Y-104149819D02*
X129729762Y-104102200D01*
X129729762Y-104102200D02*
X129682143Y-104006961D01*
X129682143Y-104006961D02*
X129682143Y-103149819D01*
X130586905Y-104102200D02*
X130491667Y-104149819D01*
X130491667Y-104149819D02*
X130301191Y-104149819D01*
X130301191Y-104149819D02*
X130205953Y-104102200D01*
X130205953Y-104102200D02*
X130158334Y-104006961D01*
X130158334Y-104006961D02*
X130158334Y-103626009D01*
X130158334Y-103626009D02*
X130205953Y-103530771D01*
X130205953Y-103530771D02*
X130301191Y-103483152D01*
X130301191Y-103483152D02*
X130491667Y-103483152D01*
X130491667Y-103483152D02*
X130586905Y-103530771D01*
X130586905Y-103530771D02*
X130634524Y-103626009D01*
X130634524Y-103626009D02*
X130634524Y-103721247D01*
X130634524Y-103721247D02*
X130158334Y-103816485D01*
X131015477Y-103245057D02*
X131063096Y-103197438D01*
X131063096Y-103197438D02*
X131158334Y-103149819D01*
X131158334Y-103149819D02*
X131396429Y-103149819D01*
X131396429Y-103149819D02*
X131491667Y-103197438D01*
X131491667Y-103197438D02*
X131539286Y-103245057D01*
X131539286Y-103245057D02*
X131586905Y-103340295D01*
X131586905Y-103340295D02*
X131586905Y-103435533D01*
X131586905Y-103435533D02*
X131539286Y-103578390D01*
X131539286Y-103578390D02*
X130967858Y-104149819D01*
X130967858Y-104149819D02*
X131586905Y-104149819D01*
D11*
%TO.C,REF\u002A\u002A7*%
X160120000Y-30380000D02*
X160120000Y-41120000D01*
X156500000Y-30380000D02*
X156500000Y-31620000D01*
X155500000Y-30380000D02*
X155500000Y-31620000D01*
X154200000Y-30380000D02*
X154200000Y-31620000D01*
X152080000Y-30380000D02*
X160120000Y-30380000D01*
X152080000Y-33200000D02*
X152080000Y-30380000D01*
X156500000Y-35380000D02*
X156500000Y-36688000D01*
X155500000Y-35380000D02*
X155500000Y-36688000D01*
X154200000Y-35380000D02*
X154200000Y-37957000D01*
X154200000Y-39043000D02*
X154200000Y-41120000D01*
X156500000Y-40312000D02*
X156500000Y-41120000D01*
X155500000Y-40312000D02*
X155500000Y-41120000D01*
X160120000Y-41120000D02*
X152080000Y-41120000D01*
X152080000Y-41120000D02*
X152080000Y-33800000D01*
X152080000Y-33500000D02*
X151470000Y-33940000D01*
X151470000Y-33060000D01*
X152080000Y-33500000D01*
G36*
X152080000Y-33500000D02*
G01*
X151470000Y-33940000D01*
X151470000Y-33060000D01*
X152080000Y-33500000D01*
G37*
%TO.C,REF\u002A\u002A13*%
X34597500Y-67370000D02*
X34597500Y-56630000D01*
X38217500Y-67370000D02*
X38217500Y-66130000D01*
X39217500Y-67370000D02*
X39217500Y-66130000D01*
X40517500Y-67370000D02*
X40517500Y-66130000D01*
X42637500Y-67370000D02*
X34597500Y-67370000D01*
X42637500Y-64550000D02*
X42637500Y-67370000D01*
X38217500Y-62370000D02*
X38217500Y-61062000D01*
X39217500Y-62370000D02*
X39217500Y-61062000D01*
X40517500Y-62370000D02*
X40517500Y-59793000D01*
X40517500Y-58707000D02*
X40517500Y-56630000D01*
X38217500Y-57438000D02*
X38217500Y-56630000D01*
X39217500Y-57438000D02*
X39217500Y-56630000D01*
X34597500Y-56630000D02*
X42637500Y-56630000D01*
X42637500Y-56630000D02*
X42637500Y-63950000D01*
X43247500Y-64690000D02*
X42637500Y-64250000D01*
X43247500Y-63810000D01*
X43247500Y-64690000D01*
G36*
X43247500Y-64690000D02*
G01*
X42637500Y-64250000D01*
X43247500Y-63810000D01*
X43247500Y-64690000D01*
G37*
%TO.C,REF\u002A\u002A1*%
X34630000Y-29847500D02*
X45370000Y-29847500D01*
X34630000Y-33467500D02*
X35870000Y-33467500D01*
X34630000Y-34467500D02*
X35870000Y-34467500D01*
X34630000Y-35767500D02*
X35870000Y-35767500D01*
X34630000Y-37887500D02*
X34630000Y-29847500D01*
X37450000Y-37887500D02*
X34630000Y-37887500D01*
X39630000Y-33467500D02*
X40938000Y-33467500D01*
X39630000Y-34467500D02*
X40938000Y-34467500D01*
X39630000Y-35767500D02*
X42207000Y-35767500D01*
X43293000Y-35767500D02*
X45370000Y-35767500D01*
X44562000Y-33467500D02*
X45370000Y-33467500D01*
X44562000Y-34467500D02*
X45370000Y-34467500D01*
X45370000Y-29847500D02*
X45370000Y-37887500D01*
X45370000Y-37887500D02*
X38050000Y-37887500D01*
X38190000Y-38497500D02*
X37310000Y-38497500D01*
X37750000Y-37887500D01*
X38190000Y-38497500D01*
G36*
X38190000Y-38497500D02*
G01*
X37310000Y-38497500D01*
X37750000Y-37887500D01*
X38190000Y-38497500D01*
G37*
%TO.C,REF\u002A\u002A8*%
X34597500Y-54370000D02*
X34597500Y-43630000D01*
X38217500Y-54370000D02*
X38217500Y-53130000D01*
X39217500Y-54370000D02*
X39217500Y-53130000D01*
X40517500Y-54370000D02*
X40517500Y-53130000D01*
X42637500Y-54370000D02*
X34597500Y-54370000D01*
X42637500Y-51550000D02*
X42637500Y-54370000D01*
X38217500Y-49370000D02*
X38217500Y-48062000D01*
X39217500Y-49370000D02*
X39217500Y-48062000D01*
X40517500Y-49370000D02*
X40517500Y-46793000D01*
X40517500Y-45707000D02*
X40517500Y-43630000D01*
X38217500Y-44438000D02*
X38217500Y-43630000D01*
X39217500Y-44438000D02*
X39217500Y-43630000D01*
X34597500Y-43630000D02*
X42637500Y-43630000D01*
X42637500Y-43630000D02*
X42637500Y-50950000D01*
X43247500Y-51690000D02*
X42637500Y-51250000D01*
X43247500Y-50810000D01*
X43247500Y-51690000D01*
G36*
X43247500Y-51690000D02*
G01*
X42637500Y-51250000D01*
X43247500Y-50810000D01*
X43247500Y-51690000D01*
G37*
%TO.C,REF\u002A\u002A19*%
X34630000Y-101620000D02*
X34630000Y-70880000D01*
X38250000Y-101620000D02*
X38250000Y-100380000D01*
X39250000Y-101620000D02*
X39250000Y-100380000D01*
X40550000Y-101620000D02*
X40550000Y-100380000D01*
X42670000Y-101620000D02*
X34630000Y-101620000D01*
X42670000Y-98800000D02*
X42670000Y-101620000D01*
X38250000Y-96620000D02*
X38250000Y-95312000D01*
X39250000Y-96620000D02*
X39250000Y-95312000D01*
X40550000Y-96620000D02*
X40550000Y-94043000D01*
X40550000Y-92957000D02*
X40550000Y-89043000D01*
X38250000Y-91688000D02*
X38250000Y-90312000D01*
X39250000Y-91688000D02*
X39250000Y-90312000D01*
X40550000Y-87957000D02*
X40550000Y-84043000D01*
X38250000Y-86688000D02*
X38250000Y-85312000D01*
X39250000Y-86688000D02*
X39250000Y-85312000D01*
X40550000Y-82957000D02*
X40550000Y-79043000D01*
X38250000Y-81688000D02*
X38250000Y-80312000D01*
X39250000Y-81688000D02*
X39250000Y-80312000D01*
X40550000Y-77957000D02*
X40550000Y-74043000D01*
X38250000Y-76688000D02*
X38250000Y-75312000D01*
X39250000Y-76688000D02*
X39250000Y-75312000D01*
X40550000Y-72957000D02*
X40550000Y-70880000D01*
X38250000Y-71688000D02*
X38250000Y-70880000D01*
X39250000Y-71688000D02*
X39250000Y-70880000D01*
X34630000Y-70880000D02*
X42670000Y-70880000D01*
X42670000Y-70880000D02*
X42670000Y-98200000D01*
X43280000Y-98940000D02*
X42670000Y-98500000D01*
X43280000Y-98060000D01*
X43280000Y-98940000D01*
G36*
X43280000Y-98940000D02*
G01*
X42670000Y-98500000D01*
X43280000Y-98060000D01*
X43280000Y-98940000D01*
G37*
%TO.C,REF\u002A\u002A9*%
X66320000Y-46660000D02*
X67700000Y-46660000D01*
X66320000Y-48040000D02*
X66320000Y-46660000D01*
X66320000Y-49310000D02*
X66320000Y-57040000D01*
X66320000Y-49310000D02*
X69080000Y-49310000D01*
X66320000Y-57040000D02*
X69080000Y-57040000D01*
X69080000Y-49310000D02*
X69080000Y-57040000D01*
%TO.C,REF\u002A\u002A12*%
X100330000Y-47050000D02*
X146110000Y-47050000D01*
X100330000Y-47050000D02*
X100330000Y-44390000D01*
X146110000Y-47050000D02*
X146110000Y-44390000D01*
X97730000Y-45720000D02*
X97730000Y-44390000D01*
X97730000Y-44390000D02*
X99060000Y-44390000D01*
X100330000Y-44390000D02*
X146110000Y-44390000D01*
%TO.C,  1*%
X142830000Y-123770000D02*
X142830000Y-105930000D01*
X142830000Y-123770000D02*
X140170000Y-123770000D01*
X142830000Y-105930000D02*
X140170000Y-105930000D01*
X141500000Y-126370000D02*
X140170000Y-126370000D01*
X140170000Y-126370000D02*
X140170000Y-125040000D01*
X140170000Y-123770000D02*
X140170000Y-105930000D01*
%TO.C,enable1*%
X89465000Y-123770000D02*
X89465000Y-105930000D01*
X89465000Y-123770000D02*
X86805000Y-123770000D01*
X89465000Y-105930000D02*
X86805000Y-105930000D01*
X88135000Y-126370000D02*
X86805000Y-126370000D01*
X86805000Y-126370000D02*
X86805000Y-125040000D01*
X86805000Y-123770000D02*
X86805000Y-105930000D01*
%TO.C,REF\u002A\u002A3*%
X75130000Y-29847500D02*
X85870000Y-29847500D01*
X75130000Y-33467500D02*
X76370000Y-33467500D01*
X75130000Y-34467500D02*
X76370000Y-34467500D01*
X75130000Y-35767500D02*
X76370000Y-35767500D01*
X75130000Y-37887500D02*
X75130000Y-29847500D01*
X77950000Y-37887500D02*
X75130000Y-37887500D01*
X80130000Y-33467500D02*
X81438000Y-33467500D01*
X80130000Y-34467500D02*
X81438000Y-34467500D01*
X80130000Y-35767500D02*
X82707000Y-35767500D01*
X83793000Y-35767500D02*
X85870000Y-35767500D01*
X85062000Y-33467500D02*
X85870000Y-33467500D01*
X85062000Y-34467500D02*
X85870000Y-34467500D01*
X85870000Y-29847500D02*
X85870000Y-37887500D01*
X85870000Y-37887500D02*
X78550000Y-37887500D01*
X78690000Y-38497500D02*
X77810000Y-38497500D01*
X78250000Y-37887500D01*
X78690000Y-38497500D01*
G36*
X78690000Y-38497500D02*
G01*
X77810000Y-38497500D01*
X78250000Y-37887500D01*
X78690000Y-38497500D01*
G37*
%TO.C,REF\u002A\u002A10*%
X85980000Y-53300000D02*
X87360000Y-53300000D01*
X85980000Y-54680000D02*
X85980000Y-53300000D01*
X85980000Y-55950000D02*
X85980000Y-61140000D01*
X85980000Y-55950000D02*
X88740000Y-55950000D01*
X85980000Y-61140000D02*
X88740000Y-61140000D01*
X88740000Y-55950000D02*
X88740000Y-61140000D01*
%TO.C,enable 1*%
X81895000Y-124000000D02*
X81895000Y-106160000D01*
X81895000Y-124000000D02*
X79235000Y-124000000D01*
X81895000Y-106160000D02*
X79235000Y-106160000D01*
X80565000Y-126600000D02*
X79235000Y-126600000D01*
X79235000Y-126600000D02*
X79235000Y-125270000D01*
X79235000Y-124000000D02*
X79235000Y-106160000D01*
%TO.C,REF\u002A\u002A14*%
X83937651Y-86185000D02*
X84737651Y-86185000D01*
X84337651Y-85785000D02*
X84337651Y-86585000D01*
X88347349Y-84420000D02*
X88347349Y-92580000D01*
X88387349Y-84420000D02*
X88387349Y-92580000D01*
X88427349Y-84421000D02*
X88427349Y-92579000D01*
X88467349Y-84422000D02*
X88467349Y-92578000D01*
X88507349Y-84423000D02*
X88507349Y-92577000D01*
X88547349Y-84425000D02*
X88547349Y-92575000D01*
X88587349Y-84427000D02*
X88587349Y-92573000D01*
X88627349Y-84430000D02*
X88627349Y-92570000D01*
X88667349Y-84432000D02*
X88667349Y-92568000D01*
X88707349Y-84436000D02*
X88707349Y-92564000D01*
X88747349Y-84439000D02*
X88747349Y-92561000D01*
X88787349Y-84444000D02*
X88787349Y-92556000D01*
X88827349Y-84448000D02*
X88827349Y-92552000D01*
X88867349Y-84453000D02*
X88867349Y-92547000D01*
X88907349Y-84458000D02*
X88907349Y-92542000D01*
X88947349Y-84464000D02*
X88947349Y-92536000D01*
X88987349Y-84470000D02*
X88987349Y-92530000D01*
X89027349Y-84477000D02*
X89027349Y-92523000D01*
X89067349Y-84483000D02*
X89067349Y-92517000D01*
X89107349Y-84491000D02*
X89107349Y-92509000D01*
X89147349Y-84498000D02*
X89147349Y-92502000D01*
X89187349Y-84507000D02*
X89187349Y-92493000D01*
X89227349Y-84515000D02*
X89227349Y-92485000D01*
X89267349Y-84524000D02*
X89267349Y-92476000D01*
X89307349Y-84533000D02*
X89307349Y-92467000D01*
X89347349Y-84543000D02*
X89347349Y-92457000D01*
X89387349Y-84553000D02*
X89387349Y-92447000D01*
X89427349Y-84564000D02*
X89427349Y-92436000D01*
X89467349Y-84575000D02*
X89467349Y-92425000D01*
X89507349Y-84587000D02*
X89507349Y-92413000D01*
X89547349Y-84599000D02*
X89547349Y-92401000D01*
X89587349Y-84611000D02*
X89587349Y-92389000D01*
X89627349Y-84624000D02*
X89627349Y-92376000D01*
X89667349Y-84637000D02*
X89667349Y-92363000D01*
X89707349Y-84651000D02*
X89707349Y-92349000D01*
X89747349Y-84665000D02*
X89747349Y-92335000D01*
X89787349Y-84680000D02*
X89787349Y-92320000D01*
X89827349Y-84695000D02*
X89827349Y-87460000D01*
X89827349Y-89540000D02*
X89827349Y-92305000D01*
X89867349Y-84711000D02*
X89867349Y-87460000D01*
X89867349Y-89540000D02*
X89867349Y-92289000D01*
X89907349Y-84727000D02*
X89907349Y-87460000D01*
X89907349Y-89540000D02*
X89907349Y-92273000D01*
X89947349Y-84743000D02*
X89947349Y-87460000D01*
X89947349Y-89540000D02*
X89947349Y-92257000D01*
X89987349Y-84760000D02*
X89987349Y-87460000D01*
X89987349Y-89540000D02*
X89987349Y-92240000D01*
X90027349Y-84778000D02*
X90027349Y-87460000D01*
X90027349Y-89540000D02*
X90027349Y-92222000D01*
X90067349Y-84796000D02*
X90067349Y-87460000D01*
X90067349Y-89540000D02*
X90067349Y-92204000D01*
X90107349Y-84815000D02*
X90107349Y-87460000D01*
X90107349Y-89540000D02*
X90107349Y-92185000D01*
X90147349Y-84834000D02*
X90147349Y-87460000D01*
X90147349Y-89540000D02*
X90147349Y-92166000D01*
X90187349Y-84854000D02*
X90187349Y-87460000D01*
X90187349Y-89540000D02*
X90187349Y-92146000D01*
X90227349Y-84874000D02*
X90227349Y-87460000D01*
X90227349Y-89540000D02*
X90227349Y-92126000D01*
X90267349Y-84895000D02*
X90267349Y-87460000D01*
X90267349Y-89540000D02*
X90267349Y-92105000D01*
X90307349Y-84916000D02*
X90307349Y-87460000D01*
X90307349Y-89540000D02*
X90307349Y-92084000D01*
X90347349Y-84938000D02*
X90347349Y-87460000D01*
X90347349Y-89540000D02*
X90347349Y-92062000D01*
X90387349Y-84961000D02*
X90387349Y-87460000D01*
X90387349Y-89540000D02*
X90387349Y-92039000D01*
X90427349Y-84984000D02*
X90427349Y-87460000D01*
X90427349Y-89540000D02*
X90427349Y-92016000D01*
X90467349Y-85007000D02*
X90467349Y-87460000D01*
X90467349Y-89540000D02*
X90467349Y-91993000D01*
X90507349Y-85032000D02*
X90507349Y-87460000D01*
X90507349Y-89540000D02*
X90507349Y-91968000D01*
X90547349Y-85057000D02*
X90547349Y-87460000D01*
X90547349Y-89540000D02*
X90547349Y-91943000D01*
X90587349Y-85082000D02*
X90587349Y-87460000D01*
X90587349Y-89540000D02*
X90587349Y-91918000D01*
X90627349Y-85108000D02*
X90627349Y-87460000D01*
X90627349Y-89540000D02*
X90627349Y-91892000D01*
X90667349Y-85135000D02*
X90667349Y-87460000D01*
X90667349Y-89540000D02*
X90667349Y-91865000D01*
X90707349Y-85163000D02*
X90707349Y-87460000D01*
X90707349Y-89540000D02*
X90707349Y-91837000D01*
X90747349Y-85191000D02*
X90747349Y-87460000D01*
X90747349Y-89540000D02*
X90747349Y-91809000D01*
X90787349Y-85220000D02*
X90787349Y-87460000D01*
X90787349Y-89540000D02*
X90787349Y-91780000D01*
X90827349Y-85250000D02*
X90827349Y-87460000D01*
X90827349Y-89540000D02*
X90827349Y-91750000D01*
X90867349Y-85281000D02*
X90867349Y-87460000D01*
X90867349Y-89540000D02*
X90867349Y-91719000D01*
X90907349Y-85312000D02*
X90907349Y-87460000D01*
X90907349Y-89540000D02*
X90907349Y-91688000D01*
X90947349Y-85344000D02*
X90947349Y-87460000D01*
X90947349Y-89540000D02*
X90947349Y-91656000D01*
X90987349Y-85377000D02*
X90987349Y-87460000D01*
X90987349Y-89540000D02*
X90987349Y-91623000D01*
X91027349Y-85411000D02*
X91027349Y-87460000D01*
X91027349Y-89540000D02*
X91027349Y-91589000D01*
X91067349Y-85445000D02*
X91067349Y-87460000D01*
X91067349Y-89540000D02*
X91067349Y-91555000D01*
X91107349Y-85481000D02*
X91107349Y-87460000D01*
X91107349Y-89540000D02*
X91107349Y-91519000D01*
X91147349Y-85518000D02*
X91147349Y-87460000D01*
X91147349Y-89540000D02*
X91147349Y-91482000D01*
X91187349Y-85555000D02*
X91187349Y-87460000D01*
X91187349Y-89540000D02*
X91187349Y-91445000D01*
X91227349Y-85594000D02*
X91227349Y-87460000D01*
X91227349Y-89540000D02*
X91227349Y-91406000D01*
X91267349Y-85633000D02*
X91267349Y-87460000D01*
X91267349Y-89540000D02*
X91267349Y-91367000D01*
X91307349Y-85674000D02*
X91307349Y-87460000D01*
X91307349Y-89540000D02*
X91307349Y-91326000D01*
X91347349Y-85716000D02*
X91347349Y-87460000D01*
X91347349Y-89540000D02*
X91347349Y-91284000D01*
X91387349Y-85759000D02*
X91387349Y-87460000D01*
X91387349Y-89540000D02*
X91387349Y-91241000D01*
X91427349Y-85804000D02*
X91427349Y-87460000D01*
X91427349Y-89540000D02*
X91427349Y-91196000D01*
X91467349Y-85849000D02*
X91467349Y-87460000D01*
X91467349Y-89540000D02*
X91467349Y-91151000D01*
X91507349Y-85896000D02*
X91507349Y-87460000D01*
X91507349Y-89540000D02*
X91507349Y-91104000D01*
X91547349Y-85945000D02*
X91547349Y-87460000D01*
X91547349Y-89540000D02*
X91547349Y-91055000D01*
X91587349Y-85995000D02*
X91587349Y-87460000D01*
X91587349Y-89540000D02*
X91587349Y-91005000D01*
X91627349Y-86047000D02*
X91627349Y-87460000D01*
X91627349Y-89540000D02*
X91627349Y-90953000D01*
X91667349Y-86100000D02*
X91667349Y-87460000D01*
X91667349Y-89540000D02*
X91667349Y-90900000D01*
X91707349Y-86156000D02*
X91707349Y-87460000D01*
X91707349Y-89540000D02*
X91707349Y-90844000D01*
X91747349Y-86213000D02*
X91747349Y-87460000D01*
X91747349Y-89540000D02*
X91747349Y-90787000D01*
X91787349Y-86273000D02*
X91787349Y-87460000D01*
X91787349Y-89540000D02*
X91787349Y-90727000D01*
X91827349Y-86335000D02*
X91827349Y-87460000D01*
X91827349Y-89540000D02*
X91827349Y-90665000D01*
X91867349Y-86399000D02*
X91867349Y-87460000D01*
X91867349Y-89540000D02*
X91867349Y-90601000D01*
X91907349Y-86466000D02*
X91907349Y-90534000D01*
X91947349Y-86536000D02*
X91947349Y-90464000D01*
X91987349Y-86610000D02*
X91987349Y-90390000D01*
X92027349Y-86687000D02*
X92027349Y-90313000D01*
X92067349Y-86769000D02*
X92067349Y-90231000D01*
X92107349Y-86856000D02*
X92107349Y-90144000D01*
X92147349Y-86948000D02*
X92147349Y-90052000D01*
X92187349Y-87047000D02*
X92187349Y-89953000D01*
X92227349Y-87154000D02*
X92227349Y-89846000D01*
X92267349Y-87272000D02*
X92267349Y-89728000D01*
X92307349Y-87403000D02*
X92307349Y-89597000D01*
X92347349Y-87553000D02*
X92347349Y-89447000D01*
X92387349Y-87732000D02*
X92387349Y-89268000D01*
X92427349Y-87967000D02*
X92427349Y-89033000D01*
X92467349Y-88500000D02*
G75*
G02*
X84227349Y-88500000I-4120000J0D01*
G01*
X84227349Y-88500000D02*
G75*
G02*
X92467349Y-88500000I4120000J0D01*
G01*
%TO.C,   1*%
X122510000Y-123770000D02*
X122510000Y-105930000D01*
X122510000Y-123770000D02*
X119850000Y-123770000D01*
X122510000Y-105930000D02*
X119850000Y-105930000D01*
X121180000Y-126370000D02*
X119850000Y-126370000D01*
X119850000Y-126370000D02*
X119850000Y-125040000D01*
X119850000Y-123770000D02*
X119850000Y-105930000D01*
%TO.C,REF\u002A\u002A20*%
X63590302Y-86685000D02*
X64390302Y-86685000D01*
X63990302Y-86285000D02*
X63990302Y-87085000D01*
X68000000Y-84920000D02*
X68000000Y-93080000D01*
X68040000Y-84920000D02*
X68040000Y-93080000D01*
X68080000Y-84921000D02*
X68080000Y-93079000D01*
X68120000Y-84922000D02*
X68120000Y-93078000D01*
X68160000Y-84923000D02*
X68160000Y-93077000D01*
X68200000Y-84925000D02*
X68200000Y-93075000D01*
X68240000Y-84927000D02*
X68240000Y-93073000D01*
X68280000Y-84930000D02*
X68280000Y-93070000D01*
X68320000Y-84932000D02*
X68320000Y-93068000D01*
X68360000Y-84936000D02*
X68360000Y-93064000D01*
X68400000Y-84939000D02*
X68400000Y-93061000D01*
X68440000Y-84944000D02*
X68440000Y-93056000D01*
X68480000Y-84948000D02*
X68480000Y-93052000D01*
X68520000Y-84953000D02*
X68520000Y-93047000D01*
X68560000Y-84958000D02*
X68560000Y-93042000D01*
X68600000Y-84964000D02*
X68600000Y-93036000D01*
X68640000Y-84970000D02*
X68640000Y-93030000D01*
X68680000Y-84977000D02*
X68680000Y-93023000D01*
X68720000Y-84983000D02*
X68720000Y-93017000D01*
X68760000Y-84991000D02*
X68760000Y-93009000D01*
X68800000Y-84998000D02*
X68800000Y-93002000D01*
X68840000Y-85007000D02*
X68840000Y-92993000D01*
X68880000Y-85015000D02*
X68880000Y-92985000D01*
X68920000Y-85024000D02*
X68920000Y-92976000D01*
X68960000Y-85033000D02*
X68960000Y-92967000D01*
X69000000Y-85043000D02*
X69000000Y-92957000D01*
X69040000Y-85053000D02*
X69040000Y-92947000D01*
X69080000Y-85064000D02*
X69080000Y-92936000D01*
X69120000Y-85075000D02*
X69120000Y-92925000D01*
X69160000Y-85087000D02*
X69160000Y-92913000D01*
X69200000Y-85099000D02*
X69200000Y-92901000D01*
X69240000Y-85111000D02*
X69240000Y-92889000D01*
X69280000Y-85124000D02*
X69280000Y-92876000D01*
X69320000Y-85137000D02*
X69320000Y-92863000D01*
X69360000Y-85151000D02*
X69360000Y-92849000D01*
X69400000Y-85165000D02*
X69400000Y-92835000D01*
X69440000Y-85180000D02*
X69440000Y-92820000D01*
X69480000Y-85195000D02*
X69480000Y-87960000D01*
X69480000Y-90040000D02*
X69480000Y-92805000D01*
X69520000Y-85211000D02*
X69520000Y-87960000D01*
X69520000Y-90040000D02*
X69520000Y-92789000D01*
X69560000Y-85227000D02*
X69560000Y-87960000D01*
X69560000Y-90040000D02*
X69560000Y-92773000D01*
X69600000Y-85243000D02*
X69600000Y-87960000D01*
X69600000Y-90040000D02*
X69600000Y-92757000D01*
X69640000Y-85260000D02*
X69640000Y-87960000D01*
X69640000Y-90040000D02*
X69640000Y-92740000D01*
X69680000Y-85278000D02*
X69680000Y-87960000D01*
X69680000Y-90040000D02*
X69680000Y-92722000D01*
X69720000Y-85296000D02*
X69720000Y-87960000D01*
X69720000Y-90040000D02*
X69720000Y-92704000D01*
X69760000Y-85315000D02*
X69760000Y-87960000D01*
X69760000Y-90040000D02*
X69760000Y-92685000D01*
X69800000Y-85334000D02*
X69800000Y-87960000D01*
X69800000Y-90040000D02*
X69800000Y-92666000D01*
X69840000Y-85354000D02*
X69840000Y-87960000D01*
X69840000Y-90040000D02*
X69840000Y-92646000D01*
X69880000Y-85374000D02*
X69880000Y-87960000D01*
X69880000Y-90040000D02*
X69880000Y-92626000D01*
X69920000Y-85395000D02*
X69920000Y-87960000D01*
X69920000Y-90040000D02*
X69920000Y-92605000D01*
X69960000Y-85416000D02*
X69960000Y-87960000D01*
X69960000Y-90040000D02*
X69960000Y-92584000D01*
X70000000Y-85438000D02*
X70000000Y-87960000D01*
X70000000Y-90040000D02*
X70000000Y-92562000D01*
X70040000Y-85461000D02*
X70040000Y-87960000D01*
X70040000Y-90040000D02*
X70040000Y-92539000D01*
X70080000Y-85484000D02*
X70080000Y-87960000D01*
X70080000Y-90040000D02*
X70080000Y-92516000D01*
X70120000Y-85507000D02*
X70120000Y-87960000D01*
X70120000Y-90040000D02*
X70120000Y-92493000D01*
X70160000Y-85532000D02*
X70160000Y-87960000D01*
X70160000Y-90040000D02*
X70160000Y-92468000D01*
X70200000Y-85557000D02*
X70200000Y-87960000D01*
X70200000Y-90040000D02*
X70200000Y-92443000D01*
X70240000Y-85582000D02*
X70240000Y-87960000D01*
X70240000Y-90040000D02*
X70240000Y-92418000D01*
X70280000Y-85608000D02*
X70280000Y-87960000D01*
X70280000Y-90040000D02*
X70280000Y-92392000D01*
X70320000Y-85635000D02*
X70320000Y-87960000D01*
X70320000Y-90040000D02*
X70320000Y-92365000D01*
X70360000Y-85663000D02*
X70360000Y-87960000D01*
X70360000Y-90040000D02*
X70360000Y-92337000D01*
X70400000Y-85691000D02*
X70400000Y-87960000D01*
X70400000Y-90040000D02*
X70400000Y-92309000D01*
X70440000Y-85720000D02*
X70440000Y-87960000D01*
X70440000Y-90040000D02*
X70440000Y-92280000D01*
X70480000Y-85750000D02*
X70480000Y-87960000D01*
X70480000Y-90040000D02*
X70480000Y-92250000D01*
X70520000Y-85781000D02*
X70520000Y-87960000D01*
X70520000Y-90040000D02*
X70520000Y-92219000D01*
X70560000Y-85812000D02*
X70560000Y-87960000D01*
X70560000Y-90040000D02*
X70560000Y-92188000D01*
X70600000Y-85844000D02*
X70600000Y-87960000D01*
X70600000Y-90040000D02*
X70600000Y-92156000D01*
X70640000Y-85877000D02*
X70640000Y-87960000D01*
X70640000Y-90040000D02*
X70640000Y-92123000D01*
X70680000Y-85911000D02*
X70680000Y-87960000D01*
X70680000Y-90040000D02*
X70680000Y-92089000D01*
X70720000Y-85945000D02*
X70720000Y-87960000D01*
X70720000Y-90040000D02*
X70720000Y-92055000D01*
X70760000Y-85981000D02*
X70760000Y-87960000D01*
X70760000Y-90040000D02*
X70760000Y-92019000D01*
X70800000Y-86018000D02*
X70800000Y-87960000D01*
X70800000Y-90040000D02*
X70800000Y-91982000D01*
X70840000Y-86055000D02*
X70840000Y-87960000D01*
X70840000Y-90040000D02*
X70840000Y-91945000D01*
X70880000Y-86094000D02*
X70880000Y-87960000D01*
X70880000Y-90040000D02*
X70880000Y-91906000D01*
X70920000Y-86133000D02*
X70920000Y-87960000D01*
X70920000Y-90040000D02*
X70920000Y-91867000D01*
X70960000Y-86174000D02*
X70960000Y-87960000D01*
X70960000Y-90040000D02*
X70960000Y-91826000D01*
X71000000Y-86216000D02*
X71000000Y-87960000D01*
X71000000Y-90040000D02*
X71000000Y-91784000D01*
X71040000Y-86259000D02*
X71040000Y-87960000D01*
X71040000Y-90040000D02*
X71040000Y-91741000D01*
X71080000Y-86304000D02*
X71080000Y-87960000D01*
X71080000Y-90040000D02*
X71080000Y-91696000D01*
X71120000Y-86349000D02*
X71120000Y-87960000D01*
X71120000Y-90040000D02*
X71120000Y-91651000D01*
X71160000Y-86396000D02*
X71160000Y-87960000D01*
X71160000Y-90040000D02*
X71160000Y-91604000D01*
X71200000Y-86445000D02*
X71200000Y-87960000D01*
X71200000Y-90040000D02*
X71200000Y-91555000D01*
X71240000Y-86495000D02*
X71240000Y-87960000D01*
X71240000Y-90040000D02*
X71240000Y-91505000D01*
X71280000Y-86547000D02*
X71280000Y-87960000D01*
X71280000Y-90040000D02*
X71280000Y-91453000D01*
X71320000Y-86600000D02*
X71320000Y-87960000D01*
X71320000Y-90040000D02*
X71320000Y-91400000D01*
X71360000Y-86656000D02*
X71360000Y-87960000D01*
X71360000Y-90040000D02*
X71360000Y-91344000D01*
X71400000Y-86713000D02*
X71400000Y-87960000D01*
X71400000Y-90040000D02*
X71400000Y-91287000D01*
X71440000Y-86773000D02*
X71440000Y-87960000D01*
X71440000Y-90040000D02*
X71440000Y-91227000D01*
X71480000Y-86835000D02*
X71480000Y-87960000D01*
X71480000Y-90040000D02*
X71480000Y-91165000D01*
X71520000Y-86899000D02*
X71520000Y-87960000D01*
X71520000Y-90040000D02*
X71520000Y-91101000D01*
X71560000Y-86966000D02*
X71560000Y-91034000D01*
X71600000Y-87036000D02*
X71600000Y-90964000D01*
X71640000Y-87110000D02*
X71640000Y-90890000D01*
X71680000Y-87187000D02*
X71680000Y-90813000D01*
X71720000Y-87269000D02*
X71720000Y-90731000D01*
X71760000Y-87356000D02*
X71760000Y-90644000D01*
X71800000Y-87448000D02*
X71800000Y-90552000D01*
X71840000Y-87547000D02*
X71840000Y-90453000D01*
X71880000Y-87654000D02*
X71880000Y-90346000D01*
X71920000Y-87772000D02*
X71920000Y-90228000D01*
X71960000Y-87903000D02*
X71960000Y-90097000D01*
X72000000Y-88053000D02*
X72000000Y-89947000D01*
X72040000Y-88232000D02*
X72040000Y-89768000D01*
X72080000Y-88467000D02*
X72080000Y-89533000D01*
X72120000Y-89000000D02*
G75*
G02*
X63880000Y-89000000I-4120000J0D01*
G01*
X63880000Y-89000000D02*
G75*
G02*
X72120000Y-89000000I4120000J0D01*
G01*
%TO.C,REF\u002A\u002A17*%
X100330000Y-72450000D02*
X146110000Y-72450000D01*
X100330000Y-72450000D02*
X100330000Y-69790000D01*
X146110000Y-72450000D02*
X146110000Y-69790000D01*
X97730000Y-71120000D02*
X97730000Y-69790000D01*
X97730000Y-69790000D02*
X99060000Y-69790000D01*
X100330000Y-69790000D02*
X146110000Y-69790000D01*
%TO.C,   enable1*%
X109785000Y-123770000D02*
X109785000Y-105930000D01*
X109785000Y-123770000D02*
X107125000Y-123770000D01*
X109785000Y-105930000D02*
X107125000Y-105930000D01*
X108455000Y-126370000D02*
X107125000Y-126370000D01*
X107125000Y-126370000D02*
X107125000Y-125040000D01*
X107125000Y-123770000D02*
X107125000Y-105930000D01*
%TO.C,REF\u002A\u002A21*%
X103687651Y-86685000D02*
X104487651Y-86685000D01*
X104087651Y-86285000D02*
X104087651Y-87085000D01*
X108097349Y-84920000D02*
X108097349Y-93080000D01*
X108137349Y-84920000D02*
X108137349Y-93080000D01*
X108177349Y-84921000D02*
X108177349Y-93079000D01*
X108217349Y-84922000D02*
X108217349Y-93078000D01*
X108257349Y-84923000D02*
X108257349Y-93077000D01*
X108297349Y-84925000D02*
X108297349Y-93075000D01*
X108337349Y-84927000D02*
X108337349Y-93073000D01*
X108377349Y-84930000D02*
X108377349Y-93070000D01*
X108417349Y-84932000D02*
X108417349Y-93068000D01*
X108457349Y-84936000D02*
X108457349Y-93064000D01*
X108497349Y-84939000D02*
X108497349Y-93061000D01*
X108537349Y-84944000D02*
X108537349Y-93056000D01*
X108577349Y-84948000D02*
X108577349Y-93052000D01*
X108617349Y-84953000D02*
X108617349Y-93047000D01*
X108657349Y-84958000D02*
X108657349Y-93042000D01*
X108697349Y-84964000D02*
X108697349Y-93036000D01*
X108737349Y-84970000D02*
X108737349Y-93030000D01*
X108777349Y-84977000D02*
X108777349Y-93023000D01*
X108817349Y-84983000D02*
X108817349Y-93017000D01*
X108857349Y-84991000D02*
X108857349Y-93009000D01*
X108897349Y-84998000D02*
X108897349Y-93002000D01*
X108937349Y-85007000D02*
X108937349Y-92993000D01*
X108977349Y-85015000D02*
X108977349Y-92985000D01*
X109017349Y-85024000D02*
X109017349Y-92976000D01*
X109057349Y-85033000D02*
X109057349Y-92967000D01*
X109097349Y-85043000D02*
X109097349Y-92957000D01*
X109137349Y-85053000D02*
X109137349Y-92947000D01*
X109177349Y-85064000D02*
X109177349Y-92936000D01*
X109217349Y-85075000D02*
X109217349Y-92925000D01*
X109257349Y-85087000D02*
X109257349Y-92913000D01*
X109297349Y-85099000D02*
X109297349Y-92901000D01*
X109337349Y-85111000D02*
X109337349Y-92889000D01*
X109377349Y-85124000D02*
X109377349Y-92876000D01*
X109417349Y-85137000D02*
X109417349Y-92863000D01*
X109457349Y-85151000D02*
X109457349Y-92849000D01*
X109497349Y-85165000D02*
X109497349Y-92835000D01*
X109537349Y-85180000D02*
X109537349Y-92820000D01*
X109577349Y-85195000D02*
X109577349Y-87960000D01*
X109577349Y-90040000D02*
X109577349Y-92805000D01*
X109617349Y-85211000D02*
X109617349Y-87960000D01*
X109617349Y-90040000D02*
X109617349Y-92789000D01*
X109657349Y-85227000D02*
X109657349Y-87960000D01*
X109657349Y-90040000D02*
X109657349Y-92773000D01*
X109697349Y-85243000D02*
X109697349Y-87960000D01*
X109697349Y-90040000D02*
X109697349Y-92757000D01*
X109737349Y-85260000D02*
X109737349Y-87960000D01*
X109737349Y-90040000D02*
X109737349Y-92740000D01*
X109777349Y-85278000D02*
X109777349Y-87960000D01*
X109777349Y-90040000D02*
X109777349Y-92722000D01*
X109817349Y-85296000D02*
X109817349Y-87960000D01*
X109817349Y-90040000D02*
X109817349Y-92704000D01*
X109857349Y-85315000D02*
X109857349Y-87960000D01*
X109857349Y-90040000D02*
X109857349Y-92685000D01*
X109897349Y-85334000D02*
X109897349Y-87960000D01*
X109897349Y-90040000D02*
X109897349Y-92666000D01*
X109937349Y-85354000D02*
X109937349Y-87960000D01*
X109937349Y-90040000D02*
X109937349Y-92646000D01*
X109977349Y-85374000D02*
X109977349Y-87960000D01*
X109977349Y-90040000D02*
X109977349Y-92626000D01*
X110017349Y-85395000D02*
X110017349Y-87960000D01*
X110017349Y-90040000D02*
X110017349Y-92605000D01*
X110057349Y-85416000D02*
X110057349Y-87960000D01*
X110057349Y-90040000D02*
X110057349Y-92584000D01*
X110097349Y-85438000D02*
X110097349Y-87960000D01*
X110097349Y-90040000D02*
X110097349Y-92562000D01*
X110137349Y-85461000D02*
X110137349Y-87960000D01*
X110137349Y-90040000D02*
X110137349Y-92539000D01*
X110177349Y-85484000D02*
X110177349Y-87960000D01*
X110177349Y-90040000D02*
X110177349Y-92516000D01*
X110217349Y-85507000D02*
X110217349Y-87960000D01*
X110217349Y-90040000D02*
X110217349Y-92493000D01*
X110257349Y-85532000D02*
X110257349Y-87960000D01*
X110257349Y-90040000D02*
X110257349Y-92468000D01*
X110297349Y-85557000D02*
X110297349Y-87960000D01*
X110297349Y-90040000D02*
X110297349Y-92443000D01*
X110337349Y-85582000D02*
X110337349Y-87960000D01*
X110337349Y-90040000D02*
X110337349Y-92418000D01*
X110377349Y-85608000D02*
X110377349Y-87960000D01*
X110377349Y-90040000D02*
X110377349Y-92392000D01*
X110417349Y-85635000D02*
X110417349Y-87960000D01*
X110417349Y-90040000D02*
X110417349Y-92365000D01*
X110457349Y-85663000D02*
X110457349Y-87960000D01*
X110457349Y-90040000D02*
X110457349Y-92337000D01*
X110497349Y-85691000D02*
X110497349Y-87960000D01*
X110497349Y-90040000D02*
X110497349Y-92309000D01*
X110537349Y-85720000D02*
X110537349Y-87960000D01*
X110537349Y-90040000D02*
X110537349Y-92280000D01*
X110577349Y-85750000D02*
X110577349Y-87960000D01*
X110577349Y-90040000D02*
X110577349Y-92250000D01*
X110617349Y-85781000D02*
X110617349Y-87960000D01*
X110617349Y-90040000D02*
X110617349Y-92219000D01*
X110657349Y-85812000D02*
X110657349Y-87960000D01*
X110657349Y-90040000D02*
X110657349Y-92188000D01*
X110697349Y-85844000D02*
X110697349Y-87960000D01*
X110697349Y-90040000D02*
X110697349Y-92156000D01*
X110737349Y-85877000D02*
X110737349Y-87960000D01*
X110737349Y-90040000D02*
X110737349Y-92123000D01*
X110777349Y-85911000D02*
X110777349Y-87960000D01*
X110777349Y-90040000D02*
X110777349Y-92089000D01*
X110817349Y-85945000D02*
X110817349Y-87960000D01*
X110817349Y-90040000D02*
X110817349Y-92055000D01*
X110857349Y-85981000D02*
X110857349Y-87960000D01*
X110857349Y-90040000D02*
X110857349Y-92019000D01*
X110897349Y-86018000D02*
X110897349Y-87960000D01*
X110897349Y-90040000D02*
X110897349Y-91982000D01*
X110937349Y-86055000D02*
X110937349Y-87960000D01*
X110937349Y-90040000D02*
X110937349Y-91945000D01*
X110977349Y-86094000D02*
X110977349Y-87960000D01*
X110977349Y-90040000D02*
X110977349Y-91906000D01*
X111017349Y-86133000D02*
X111017349Y-87960000D01*
X111017349Y-90040000D02*
X111017349Y-91867000D01*
X111057349Y-86174000D02*
X111057349Y-87960000D01*
X111057349Y-90040000D02*
X111057349Y-91826000D01*
X111097349Y-86216000D02*
X111097349Y-87960000D01*
X111097349Y-90040000D02*
X111097349Y-91784000D01*
X111137349Y-86259000D02*
X111137349Y-87960000D01*
X111137349Y-90040000D02*
X111137349Y-91741000D01*
X111177349Y-86304000D02*
X111177349Y-87960000D01*
X111177349Y-90040000D02*
X111177349Y-91696000D01*
X111217349Y-86349000D02*
X111217349Y-87960000D01*
X111217349Y-90040000D02*
X111217349Y-91651000D01*
X111257349Y-86396000D02*
X111257349Y-87960000D01*
X111257349Y-90040000D02*
X111257349Y-91604000D01*
X111297349Y-86445000D02*
X111297349Y-87960000D01*
X111297349Y-90040000D02*
X111297349Y-91555000D01*
X111337349Y-86495000D02*
X111337349Y-87960000D01*
X111337349Y-90040000D02*
X111337349Y-91505000D01*
X111377349Y-86547000D02*
X111377349Y-87960000D01*
X111377349Y-90040000D02*
X111377349Y-91453000D01*
X111417349Y-86600000D02*
X111417349Y-87960000D01*
X111417349Y-90040000D02*
X111417349Y-91400000D01*
X111457349Y-86656000D02*
X111457349Y-87960000D01*
X111457349Y-90040000D02*
X111457349Y-91344000D01*
X111497349Y-86713000D02*
X111497349Y-87960000D01*
X111497349Y-90040000D02*
X111497349Y-91287000D01*
X111537349Y-86773000D02*
X111537349Y-87960000D01*
X111537349Y-90040000D02*
X111537349Y-91227000D01*
X111577349Y-86835000D02*
X111577349Y-87960000D01*
X111577349Y-90040000D02*
X111577349Y-91165000D01*
X111617349Y-86899000D02*
X111617349Y-87960000D01*
X111617349Y-90040000D02*
X111617349Y-91101000D01*
X111657349Y-86966000D02*
X111657349Y-91034000D01*
X111697349Y-87036000D02*
X111697349Y-90964000D01*
X111737349Y-87110000D02*
X111737349Y-90890000D01*
X111777349Y-87187000D02*
X111777349Y-90813000D01*
X111817349Y-87269000D02*
X111817349Y-90731000D01*
X111857349Y-87356000D02*
X111857349Y-90644000D01*
X111897349Y-87448000D02*
X111897349Y-90552000D01*
X111937349Y-87547000D02*
X111937349Y-90453000D01*
X111977349Y-87654000D02*
X111977349Y-90346000D01*
X112017349Y-87772000D02*
X112017349Y-90228000D01*
X112057349Y-87903000D02*
X112057349Y-90097000D01*
X112097349Y-88053000D02*
X112097349Y-89947000D01*
X112137349Y-88232000D02*
X112137349Y-89768000D01*
X112177349Y-88467000D02*
X112177349Y-89533000D01*
X112217349Y-89000000D02*
G75*
G02*
X103977349Y-89000000I-4120000J0D01*
G01*
X103977349Y-89000000D02*
G75*
G02*
X112217349Y-89000000I4120000J0D01*
G01*
%TO.C,REF\u002A\u002A18*%
X124340302Y-86435000D02*
X125140302Y-86435000D01*
X124740302Y-86035000D02*
X124740302Y-86835000D01*
X128750000Y-84670000D02*
X128750000Y-92830000D01*
X128790000Y-84670000D02*
X128790000Y-92830000D01*
X128830000Y-84671000D02*
X128830000Y-92829000D01*
X128870000Y-84672000D02*
X128870000Y-92828000D01*
X128910000Y-84673000D02*
X128910000Y-92827000D01*
X128950000Y-84675000D02*
X128950000Y-92825000D01*
X128990000Y-84677000D02*
X128990000Y-92823000D01*
X129030000Y-84680000D02*
X129030000Y-92820000D01*
X129070000Y-84682000D02*
X129070000Y-92818000D01*
X129110000Y-84686000D02*
X129110000Y-92814000D01*
X129150000Y-84689000D02*
X129150000Y-92811000D01*
X129190000Y-84694000D02*
X129190000Y-92806000D01*
X129230000Y-84698000D02*
X129230000Y-92802000D01*
X129270000Y-84703000D02*
X129270000Y-92797000D01*
X129310000Y-84708000D02*
X129310000Y-92792000D01*
X129350000Y-84714000D02*
X129350000Y-92786000D01*
X129390000Y-84720000D02*
X129390000Y-92780000D01*
X129430000Y-84727000D02*
X129430000Y-92773000D01*
X129470000Y-84733000D02*
X129470000Y-92767000D01*
X129510000Y-84741000D02*
X129510000Y-92759000D01*
X129550000Y-84748000D02*
X129550000Y-92752000D01*
X129590000Y-84757000D02*
X129590000Y-92743000D01*
X129630000Y-84765000D02*
X129630000Y-92735000D01*
X129670000Y-84774000D02*
X129670000Y-92726000D01*
X129710000Y-84783000D02*
X129710000Y-92717000D01*
X129750000Y-84793000D02*
X129750000Y-92707000D01*
X129790000Y-84803000D02*
X129790000Y-92697000D01*
X129830000Y-84814000D02*
X129830000Y-92686000D01*
X129870000Y-84825000D02*
X129870000Y-92675000D01*
X129910000Y-84837000D02*
X129910000Y-92663000D01*
X129950000Y-84849000D02*
X129950000Y-92651000D01*
X129990000Y-84861000D02*
X129990000Y-92639000D01*
X130030000Y-84874000D02*
X130030000Y-92626000D01*
X130070000Y-84887000D02*
X130070000Y-92613000D01*
X130110000Y-84901000D02*
X130110000Y-92599000D01*
X130150000Y-84915000D02*
X130150000Y-92585000D01*
X130190000Y-84930000D02*
X130190000Y-92570000D01*
X130230000Y-84945000D02*
X130230000Y-87710000D01*
X130230000Y-89790000D02*
X130230000Y-92555000D01*
X130270000Y-84961000D02*
X130270000Y-87710000D01*
X130270000Y-89790000D02*
X130270000Y-92539000D01*
X130310000Y-84977000D02*
X130310000Y-87710000D01*
X130310000Y-89790000D02*
X130310000Y-92523000D01*
X130350000Y-84993000D02*
X130350000Y-87710000D01*
X130350000Y-89790000D02*
X130350000Y-92507000D01*
X130390000Y-85010000D02*
X130390000Y-87710000D01*
X130390000Y-89790000D02*
X130390000Y-92490000D01*
X130430000Y-85028000D02*
X130430000Y-87710000D01*
X130430000Y-89790000D02*
X130430000Y-92472000D01*
X130470000Y-85046000D02*
X130470000Y-87710000D01*
X130470000Y-89790000D02*
X130470000Y-92454000D01*
X130510000Y-85065000D02*
X130510000Y-87710000D01*
X130510000Y-89790000D02*
X130510000Y-92435000D01*
X130550000Y-85084000D02*
X130550000Y-87710000D01*
X130550000Y-89790000D02*
X130550000Y-92416000D01*
X130590000Y-85104000D02*
X130590000Y-87710000D01*
X130590000Y-89790000D02*
X130590000Y-92396000D01*
X130630000Y-85124000D02*
X130630000Y-87710000D01*
X130630000Y-89790000D02*
X130630000Y-92376000D01*
X130670000Y-85145000D02*
X130670000Y-87710000D01*
X130670000Y-89790000D02*
X130670000Y-92355000D01*
X130710000Y-85166000D02*
X130710000Y-87710000D01*
X130710000Y-89790000D02*
X130710000Y-92334000D01*
X130750000Y-85188000D02*
X130750000Y-87710000D01*
X130750000Y-89790000D02*
X130750000Y-92312000D01*
X130790000Y-85211000D02*
X130790000Y-87710000D01*
X130790000Y-89790000D02*
X130790000Y-92289000D01*
X130830000Y-85234000D02*
X130830000Y-87710000D01*
X130830000Y-89790000D02*
X130830000Y-92266000D01*
X130870000Y-85257000D02*
X130870000Y-87710000D01*
X130870000Y-89790000D02*
X130870000Y-92243000D01*
X130910000Y-85282000D02*
X130910000Y-87710000D01*
X130910000Y-89790000D02*
X130910000Y-92218000D01*
X130950000Y-85307000D02*
X130950000Y-87710000D01*
X130950000Y-89790000D02*
X130950000Y-92193000D01*
X130990000Y-85332000D02*
X130990000Y-87710000D01*
X130990000Y-89790000D02*
X130990000Y-92168000D01*
X131030000Y-85358000D02*
X131030000Y-87710000D01*
X131030000Y-89790000D02*
X131030000Y-92142000D01*
X131070000Y-85385000D02*
X131070000Y-87710000D01*
X131070000Y-89790000D02*
X131070000Y-92115000D01*
X131110000Y-85413000D02*
X131110000Y-87710000D01*
X131110000Y-89790000D02*
X131110000Y-92087000D01*
X131150000Y-85441000D02*
X131150000Y-87710000D01*
X131150000Y-89790000D02*
X131150000Y-92059000D01*
X131190000Y-85470000D02*
X131190000Y-87710000D01*
X131190000Y-89790000D02*
X131190000Y-92030000D01*
X131230000Y-85500000D02*
X131230000Y-87710000D01*
X131230000Y-89790000D02*
X131230000Y-92000000D01*
X131270000Y-85531000D02*
X131270000Y-87710000D01*
X131270000Y-89790000D02*
X131270000Y-91969000D01*
X131310000Y-85562000D02*
X131310000Y-87710000D01*
X131310000Y-89790000D02*
X131310000Y-91938000D01*
X131350000Y-85594000D02*
X131350000Y-87710000D01*
X131350000Y-89790000D02*
X131350000Y-91906000D01*
X131390000Y-85627000D02*
X131390000Y-87710000D01*
X131390000Y-89790000D02*
X131390000Y-91873000D01*
X131430000Y-85661000D02*
X131430000Y-87710000D01*
X131430000Y-89790000D02*
X131430000Y-91839000D01*
X131470000Y-85695000D02*
X131470000Y-87710000D01*
X131470000Y-89790000D02*
X131470000Y-91805000D01*
X131510000Y-85731000D02*
X131510000Y-87710000D01*
X131510000Y-89790000D02*
X131510000Y-91769000D01*
X131550000Y-85768000D02*
X131550000Y-87710000D01*
X131550000Y-89790000D02*
X131550000Y-91732000D01*
X131590000Y-85805000D02*
X131590000Y-87710000D01*
X131590000Y-89790000D02*
X131590000Y-91695000D01*
X131630000Y-85844000D02*
X131630000Y-87710000D01*
X131630000Y-89790000D02*
X131630000Y-91656000D01*
X131670000Y-85883000D02*
X131670000Y-87710000D01*
X131670000Y-89790000D02*
X131670000Y-91617000D01*
X131710000Y-85924000D02*
X131710000Y-87710000D01*
X131710000Y-89790000D02*
X131710000Y-91576000D01*
X131750000Y-85966000D02*
X131750000Y-87710000D01*
X131750000Y-89790000D02*
X131750000Y-91534000D01*
X131790000Y-86009000D02*
X131790000Y-87710000D01*
X131790000Y-89790000D02*
X131790000Y-91491000D01*
X131830000Y-86054000D02*
X131830000Y-87710000D01*
X131830000Y-89790000D02*
X131830000Y-91446000D01*
X131870000Y-86099000D02*
X131870000Y-87710000D01*
X131870000Y-89790000D02*
X131870000Y-91401000D01*
X131910000Y-86146000D02*
X131910000Y-87710000D01*
X131910000Y-89790000D02*
X131910000Y-91354000D01*
X131950000Y-86195000D02*
X131950000Y-87710000D01*
X131950000Y-89790000D02*
X131950000Y-91305000D01*
X131990000Y-86245000D02*
X131990000Y-87710000D01*
X131990000Y-89790000D02*
X131990000Y-91255000D01*
X132030000Y-86297000D02*
X132030000Y-87710000D01*
X132030000Y-89790000D02*
X132030000Y-91203000D01*
X132070000Y-86350000D02*
X132070000Y-87710000D01*
X132070000Y-89790000D02*
X132070000Y-91150000D01*
X132110000Y-86406000D02*
X132110000Y-87710000D01*
X132110000Y-89790000D02*
X132110000Y-91094000D01*
X132150000Y-86463000D02*
X132150000Y-87710000D01*
X132150000Y-89790000D02*
X132150000Y-91037000D01*
X132190000Y-86523000D02*
X132190000Y-87710000D01*
X132190000Y-89790000D02*
X132190000Y-90977000D01*
X132230000Y-86585000D02*
X132230000Y-87710000D01*
X132230000Y-89790000D02*
X132230000Y-90915000D01*
X132270000Y-86649000D02*
X132270000Y-87710000D01*
X132270000Y-89790000D02*
X132270000Y-90851000D01*
X132310000Y-86716000D02*
X132310000Y-90784000D01*
X132350000Y-86786000D02*
X132350000Y-90714000D01*
X132390000Y-86860000D02*
X132390000Y-90640000D01*
X132430000Y-86937000D02*
X132430000Y-90563000D01*
X132470000Y-87019000D02*
X132470000Y-90481000D01*
X132510000Y-87106000D02*
X132510000Y-90394000D01*
X132550000Y-87198000D02*
X132550000Y-90302000D01*
X132590000Y-87297000D02*
X132590000Y-90203000D01*
X132630000Y-87404000D02*
X132630000Y-90096000D01*
X132670000Y-87522000D02*
X132670000Y-89978000D01*
X132710000Y-87653000D02*
X132710000Y-89847000D01*
X132750000Y-87803000D02*
X132750000Y-89697000D01*
X132790000Y-87982000D02*
X132790000Y-89518000D01*
X132830000Y-88217000D02*
X132830000Y-89283000D01*
X132870000Y-88750000D02*
G75*
G02*
X124630000Y-88750000I-4120000J0D01*
G01*
X124630000Y-88750000D02*
G75*
G02*
X132870000Y-88750000I4120000J0D01*
G01*
%TO.C,REF\u002A\u002A4*%
X95130000Y-29347500D02*
X105870000Y-29347500D01*
X95130000Y-32967500D02*
X96370000Y-32967500D01*
X95130000Y-33967500D02*
X96370000Y-33967500D01*
X95130000Y-35267500D02*
X96370000Y-35267500D01*
X95130000Y-37387500D02*
X95130000Y-29347500D01*
X97950000Y-37387500D02*
X95130000Y-37387500D01*
X100130000Y-32967500D02*
X101438000Y-32967500D01*
X100130000Y-33967500D02*
X101438000Y-33967500D01*
X100130000Y-35267500D02*
X102707000Y-35267500D01*
X103793000Y-35267500D02*
X105870000Y-35267500D01*
X105062000Y-32967500D02*
X105870000Y-32967500D01*
X105062000Y-33967500D02*
X105870000Y-33967500D01*
X105870000Y-29347500D02*
X105870000Y-37387500D01*
X105870000Y-37387500D02*
X98550000Y-37387500D01*
X98690000Y-37997500D02*
X97810000Y-37997500D01*
X98250000Y-37387500D01*
X98690000Y-37997500D01*
G36*
X98690000Y-37997500D02*
G01*
X97810000Y-37997500D01*
X98250000Y-37387500D01*
X98690000Y-37997500D01*
G37*
%TO.C,REF\u002A\u002A5*%
X135130000Y-29847500D02*
X145870000Y-29847500D01*
X135130000Y-33467500D02*
X136370000Y-33467500D01*
X135130000Y-34467500D02*
X136370000Y-34467500D01*
X135130000Y-35767500D02*
X136370000Y-35767500D01*
X135130000Y-37887500D02*
X135130000Y-29847500D01*
X137950000Y-37887500D02*
X135130000Y-37887500D01*
X140130000Y-33467500D02*
X141438000Y-33467500D01*
X140130000Y-34467500D02*
X141438000Y-34467500D01*
X140130000Y-35767500D02*
X142707000Y-35767500D01*
X143793000Y-35767500D02*
X145870000Y-35767500D01*
X145062000Y-33467500D02*
X145870000Y-33467500D01*
X145062000Y-34467500D02*
X145870000Y-34467500D01*
X145870000Y-29847500D02*
X145870000Y-37887500D01*
X145870000Y-37887500D02*
X138550000Y-37887500D01*
X138690000Y-38497500D02*
X137810000Y-38497500D01*
X138250000Y-37887500D01*
X138690000Y-38497500D01*
G36*
X138690000Y-38497500D02*
G01*
X137810000Y-38497500D01*
X138250000Y-37887500D01*
X138690000Y-38497500D01*
G37*
%TO.C,REF\u002A\u002A15*%
X74820000Y-64660000D02*
X76200000Y-64660000D01*
X74820000Y-66040000D02*
X74820000Y-64660000D01*
X74820000Y-67310000D02*
X74820000Y-75040000D01*
X74820000Y-67310000D02*
X77580000Y-67310000D01*
X74820000Y-75040000D02*
X77580000Y-75040000D01*
X77580000Y-67310000D02*
X77580000Y-75040000D01*
%TO.C,REF\u002A\u002A11*%
X74320000Y-46660000D02*
X75700000Y-46660000D01*
X74320000Y-48040000D02*
X74320000Y-46660000D01*
X74320000Y-49310000D02*
X74320000Y-57040000D01*
X74320000Y-49310000D02*
X77080000Y-49310000D01*
X74320000Y-57040000D02*
X77080000Y-57040000D01*
X77080000Y-49310000D02*
X77080000Y-57040000D01*
%TO.C,    1*%
X102190000Y-123770000D02*
X102190000Y-105930000D01*
X102190000Y-123770000D02*
X99530000Y-123770000D01*
X102190000Y-105930000D02*
X99530000Y-105930000D01*
X100860000Y-126370000D02*
X99530000Y-126370000D01*
X99530000Y-126370000D02*
X99530000Y-125040000D01*
X99530000Y-123770000D02*
X99530000Y-105930000D01*
%TO.C,REF\u002A\u002A2*%
X55380000Y-29880000D02*
X66120000Y-29880000D01*
X55380000Y-33500000D02*
X56620000Y-33500000D01*
X55380000Y-34500000D02*
X56620000Y-34500000D01*
X55380000Y-35800000D02*
X56620000Y-35800000D01*
X55380000Y-37920000D02*
X55380000Y-29880000D01*
X58200000Y-37920000D02*
X55380000Y-37920000D01*
X60380000Y-33500000D02*
X61688000Y-33500000D01*
X60380000Y-34500000D02*
X61688000Y-34500000D01*
X60380000Y-35800000D02*
X62957000Y-35800000D01*
X64043000Y-35800000D02*
X66120000Y-35800000D01*
X65312000Y-33500000D02*
X66120000Y-33500000D01*
X65312000Y-34500000D02*
X66120000Y-34500000D01*
X66120000Y-29880000D02*
X66120000Y-37920000D01*
X66120000Y-37920000D02*
X58800000Y-37920000D01*
X58940000Y-38530000D02*
X58060000Y-38530000D01*
X58500000Y-37920000D01*
X58940000Y-38530000D01*
G36*
X58940000Y-38530000D02*
G01*
X58060000Y-38530000D01*
X58500000Y-37920000D01*
X58940000Y-38530000D01*
G37*
%TO.C,enable2*%
X130105000Y-123770000D02*
X130105000Y-105930000D01*
X130105000Y-123770000D02*
X127445000Y-123770000D01*
X130105000Y-105930000D02*
X127445000Y-105930000D01*
X128775000Y-126370000D02*
X127445000Y-126370000D01*
X127445000Y-126370000D02*
X127445000Y-125040000D01*
X127445000Y-123770000D02*
X127445000Y-105930000D01*
%TO.C,REF\u002A\u002A16*%
X65620000Y-64470000D02*
X67000000Y-64470000D01*
X65620000Y-65850000D02*
X65620000Y-64470000D01*
X65620000Y-67120000D02*
X65620000Y-74850000D01*
X65620000Y-67120000D02*
X68380000Y-67120000D01*
X65620000Y-74850000D02*
X68380000Y-74850000D01*
X68380000Y-67120000D02*
X68380000Y-74850000D01*
%TO.C,REF\u002A\u002A22*%
X69170000Y-124000000D02*
X69170000Y-106160000D01*
X69170000Y-124000000D02*
X66510000Y-124000000D01*
X69170000Y-106160000D02*
X66510000Y-106160000D01*
X67840000Y-126600000D02*
X66510000Y-126600000D01*
X66510000Y-126600000D02*
X66510000Y-125270000D01*
X66510000Y-124000000D02*
X66510000Y-106160000D01*
%TO.C,REF\u002A\u002A6*%
X115130000Y-29847500D02*
X125870000Y-29847500D01*
X115130000Y-33467500D02*
X116370000Y-33467500D01*
X115130000Y-34467500D02*
X116370000Y-34467500D01*
X115130000Y-35767500D02*
X116370000Y-35767500D01*
X115130000Y-37887500D02*
X115130000Y-29847500D01*
X117950000Y-37887500D02*
X115130000Y-37887500D01*
X120130000Y-33467500D02*
X121438000Y-33467500D01*
X120130000Y-34467500D02*
X121438000Y-34467500D01*
X120130000Y-35767500D02*
X122707000Y-35767500D01*
X123793000Y-35767500D02*
X125870000Y-35767500D01*
X125062000Y-33467500D02*
X125870000Y-33467500D01*
X125062000Y-34467500D02*
X125870000Y-34467500D01*
X125870000Y-29847500D02*
X125870000Y-37887500D01*
X125870000Y-37887500D02*
X118550000Y-37887500D01*
X118690000Y-38497500D02*
X117810000Y-38497500D01*
X118250000Y-37887500D01*
X118690000Y-38497500D01*
G36*
X118690000Y-38497500D02*
G01*
X117810000Y-38497500D01*
X118250000Y-37887500D01*
X118690000Y-38497500D01*
G37*
%TD*%
%LPC*%
D12*
%TO.C,REF\u002A\u002A7*%
X156000000Y-33500000D03*
D13*
X156000000Y-38500000D03*
%TD*%
D14*
%TO.C,REF\u002A\u002A13*%
X38717500Y-64250000D03*
D13*
X38717500Y-59250000D03*
%TD*%
D15*
%TO.C,REF\u002A\u002A1*%
X37750000Y-33967500D03*
D13*
X42750000Y-33967500D03*
%TD*%
D14*
%TO.C,REF\u002A\u002A8*%
X38717500Y-51250000D03*
D13*
X38717500Y-46250000D03*
%TD*%
D14*
%TO.C,REF\u002A\u002A19*%
X38750000Y-98500000D03*
D13*
X38750000Y-93500000D03*
X38750000Y-88500000D03*
X38750000Y-83500000D03*
X38750000Y-78500000D03*
X38750000Y-73500000D03*
%TD*%
D16*
%TO.C,REF\u002A\u002A9*%
X67700000Y-48040000D03*
D17*
X67700000Y-50580000D03*
X67700000Y-53120000D03*
X67700000Y-55660000D03*
%TD*%
D16*
%TO.C,REF\u002A\u002A12*%
X99060000Y-45720000D03*
D17*
X101600000Y-45720000D03*
X104140000Y-45720000D03*
X106680000Y-45720000D03*
X109220000Y-45720000D03*
X111760000Y-45720000D03*
X114300000Y-45720000D03*
X116840000Y-45720000D03*
X119380000Y-45720000D03*
X121920000Y-45720000D03*
X124460000Y-45720000D03*
X127000000Y-45720000D03*
X129540000Y-45720000D03*
X132080000Y-45720000D03*
X134620000Y-45720000D03*
X137160000Y-45720000D03*
X139700000Y-45720000D03*
X142240000Y-45720000D03*
X144780000Y-45720000D03*
%TD*%
D16*
%TO.C,  1*%
X141500000Y-125040000D03*
D17*
X141500000Y-122500000D03*
X141500000Y-119960000D03*
X141500000Y-117420000D03*
X141500000Y-114880000D03*
X141500000Y-112340000D03*
X141500000Y-109800000D03*
X141500000Y-107260000D03*
%TD*%
D16*
%TO.C,enable1*%
X88135000Y-125040000D03*
D17*
X88135000Y-122500000D03*
X88135000Y-119960000D03*
X88135000Y-117420000D03*
X88135000Y-114880000D03*
X88135000Y-112340000D03*
X88135000Y-109800000D03*
X88135000Y-107260000D03*
%TD*%
D15*
%TO.C,REF\u002A\u002A3*%
X78250000Y-33967500D03*
D13*
X83250000Y-33967500D03*
%TD*%
D16*
%TO.C,REF\u002A\u002A10*%
X87360000Y-54680000D03*
D17*
X87360000Y-57220000D03*
X87360000Y-59760000D03*
%TD*%
D16*
%TO.C,enable 1*%
X80565000Y-125270000D03*
D17*
X80565000Y-122730000D03*
X80565000Y-120190000D03*
X80565000Y-117650000D03*
X80565000Y-115110000D03*
X80565000Y-112570000D03*
X80565000Y-110030000D03*
X80565000Y-107490000D03*
%TD*%
D18*
%TO.C,REF\u002A\u002A14*%
X85847349Y-88500000D03*
D19*
X90847349Y-88500000D03*
%TD*%
D16*
%TO.C,   1*%
X121180000Y-125040000D03*
D17*
X121180000Y-122500000D03*
X121180000Y-119960000D03*
X121180000Y-117420000D03*
X121180000Y-114880000D03*
X121180000Y-112340000D03*
X121180000Y-109800000D03*
X121180000Y-107260000D03*
%TD*%
D18*
%TO.C,REF\u002A\u002A20*%
X65500000Y-89000000D03*
D19*
X70500000Y-89000000D03*
%TD*%
D16*
%TO.C,REF\u002A\u002A17*%
X99060000Y-71120000D03*
D17*
X101600000Y-71120000D03*
X104140000Y-71120000D03*
X106680000Y-71120000D03*
X109220000Y-71120000D03*
X111760000Y-71120000D03*
X114300000Y-71120000D03*
X116840000Y-71120000D03*
X119380000Y-71120000D03*
X121920000Y-71120000D03*
X124460000Y-71120000D03*
X127000000Y-71120000D03*
X129540000Y-71120000D03*
X132080000Y-71120000D03*
X134620000Y-71120000D03*
X137160000Y-71120000D03*
X139700000Y-71120000D03*
X142240000Y-71120000D03*
X144780000Y-71120000D03*
%TD*%
D16*
%TO.C,   enable1*%
X108455000Y-125040000D03*
D17*
X108455000Y-122500000D03*
X108455000Y-119960000D03*
X108455000Y-117420000D03*
X108455000Y-114880000D03*
X108455000Y-112340000D03*
X108455000Y-109800000D03*
X108455000Y-107260000D03*
%TD*%
D18*
%TO.C,REF\u002A\u002A21*%
X105597349Y-89000000D03*
D19*
X110597349Y-89000000D03*
%TD*%
D18*
%TO.C,REF\u002A\u002A18*%
X126250000Y-88750000D03*
D19*
X131250000Y-88750000D03*
%TD*%
D15*
%TO.C,REF\u002A\u002A4*%
X98250000Y-33467500D03*
D13*
X103250000Y-33467500D03*
%TD*%
D15*
%TO.C,REF\u002A\u002A5*%
X138250000Y-33967500D03*
D13*
X143250000Y-33967500D03*
%TD*%
D16*
%TO.C,REF\u002A\u002A15*%
X76200000Y-66040000D03*
D17*
X76200000Y-68580000D03*
X76200000Y-71120000D03*
X76200000Y-73660000D03*
%TD*%
D16*
%TO.C,REF\u002A\u002A11*%
X75700000Y-48040000D03*
D17*
X75700000Y-50580000D03*
X75700000Y-53120000D03*
X75700000Y-55660000D03*
%TD*%
D16*
%TO.C,    1*%
X100860000Y-125040000D03*
D17*
X100860000Y-122500000D03*
X100860000Y-119960000D03*
X100860000Y-117420000D03*
X100860000Y-114880000D03*
X100860000Y-112340000D03*
X100860000Y-109800000D03*
X100860000Y-107260000D03*
%TD*%
D15*
%TO.C,REF\u002A\u002A2*%
X58500000Y-34000000D03*
D13*
X63500000Y-34000000D03*
%TD*%
D16*
%TO.C,enable2*%
X128775000Y-125040000D03*
D17*
X128775000Y-122500000D03*
X128775000Y-119960000D03*
X128775000Y-117420000D03*
X128775000Y-114880000D03*
X128775000Y-112340000D03*
X128775000Y-109800000D03*
X128775000Y-107260000D03*
%TD*%
D16*
%TO.C,REF\u002A\u002A16*%
X67000000Y-65850000D03*
D17*
X67000000Y-68390000D03*
X67000000Y-70930000D03*
X67000000Y-73470000D03*
%TD*%
D16*
%TO.C,REF\u002A\u002A22*%
X67840000Y-125270000D03*
D17*
X67840000Y-122730000D03*
X67840000Y-120190000D03*
X67840000Y-117650000D03*
X67840000Y-115110000D03*
X67840000Y-112570000D03*
X67840000Y-110030000D03*
X67840000Y-107490000D03*
%TD*%
D15*
%TO.C,REF\u002A\u002A6*%
X118250000Y-33967500D03*
D13*
X123250000Y-33967500D03*
%TD*%
%LPD*%
M02*
