%TF.GenerationSoftware,KiCad,Pcbnew,9.0.7*%
%TF.CreationDate,2026-03-18T03:13:29-04:00*%
%TF.ProjectId,kicad roboarm,6b696361-6420-4726-9f62-6f61726d2e6b,rev?*%
%TF.SameCoordinates,Original*%
%TF.FileFunction,Drillmap*%
%TF.FilePolarity,Positive*%
%FSLAX45Y45*%
G04 Gerber Fmt 4.5, Leading zero omitted, Abs format (unit mm)*
G04 Created by KiCad (PCBNEW 9.0.7) date 2026-03-18 03:13:29*
%MOMM*%
%LPD*%
G01*
G04 APERTURE LIST*
%ADD10C,0.050000*%
%ADD11C,0.200000*%
%ADD12C,0.100000*%
%ADD13C,0.130000*%
G04 APERTURE END LIST*
D10*
X3000000Y-2200000D02*
G75*
G02*
X2400000Y-2200000I-300000J0D01*
G01*
X2400000Y-2200000D02*
G75*
G02*
X3000000Y-2200000I300000J0D01*
G01*
X3200000Y-13100000D02*
G75*
G02*
X2600000Y-13100000I-300000J0D01*
G01*
X2600000Y-13100000D02*
G75*
G02*
X3200000Y-13100000I300000J0D01*
G01*
X16600000Y-13200000D02*
G75*
G02*
X16000000Y-13200000I-300000J0D01*
G01*
X16000000Y-13200000D02*
G75*
G02*
X16600000Y-13200000I300000J0D01*
G01*
X16600000Y-2300000D02*
G75*
G02*
X16000000Y-2300000I-300000J0D01*
G01*
X16000000Y-2300000D02*
G75*
G02*
X16600000Y-2300000I300000J0D01*
G01*
X2300000Y-1800000D02*
X17000000Y-1800000D01*
X17000000Y-13700000D01*
X2300000Y-13700000D01*
X2300000Y-1800000D01*
D11*
D12*
X7401000Y-10379000D02*
X7431000Y-10409000D01*
X7431000Y-10379000D02*
X7401000Y-10409000D01*
X9251000Y-10380000D02*
X9281000Y-10410000D01*
X9281000Y-10380000D02*
X9251000Y-10410000D01*
X9864500Y-10379500D02*
X9894500Y-10409500D01*
X9894500Y-10379500D02*
X9864500Y-10409500D01*
X11519000Y-10365000D02*
X11549000Y-10395000D01*
X11549000Y-10365000D02*
X11519000Y-10395000D01*
X11924000Y-10359000D02*
X11954000Y-10389000D01*
X11954000Y-10359000D02*
X11924000Y-10389000D01*
X13583611Y-10389523D02*
X13613611Y-10419523D01*
X13613611Y-10389523D02*
X13583611Y-10419523D01*
X13948259Y-10335600D02*
X13978259Y-10365600D01*
X13978259Y-10335600D02*
X13948259Y-10365600D01*
X6590000Y-8900000D02*
G75*
G02*
X6510000Y-8900000I-40000J0D01*
G01*
X6510000Y-8900000D02*
G75*
G02*
X6590000Y-8900000I40000J0D01*
G01*
X7090000Y-8900000D02*
G75*
G02*
X7010000Y-8900000I-40000J0D01*
G01*
X7010000Y-8900000D02*
G75*
G02*
X7090000Y-8900000I40000J0D01*
G01*
X8624735Y-8850000D02*
G75*
G02*
X8544735Y-8850000I-40000J0D01*
G01*
X8544735Y-8850000D02*
G75*
G02*
X8624735Y-8850000I40000J0D01*
G01*
X9124735Y-8850000D02*
G75*
G02*
X9044735Y-8850000I-40000J0D01*
G01*
X9044735Y-8850000D02*
G75*
G02*
X9124735Y-8850000I40000J0D01*
G01*
X10599735Y-8900000D02*
G75*
G02*
X10519735Y-8900000I-40000J0D01*
G01*
X10519735Y-8900000D02*
G75*
G02*
X10599735Y-8900000I40000J0D01*
G01*
X11099735Y-8900000D02*
G75*
G02*
X11019735Y-8900000I-40000J0D01*
G01*
X11019735Y-8900000D02*
G75*
G02*
X11099735Y-8900000I40000J0D01*
G01*
X12665000Y-8875000D02*
G75*
G02*
X12585000Y-8875000I-40000J0D01*
G01*
X12585000Y-8875000D02*
G75*
G02*
X12665000Y-8875000I40000J0D01*
G01*
X13165000Y-8875000D02*
G75*
G02*
X13085000Y-8875000I-40000J0D01*
G01*
X13085000Y-8875000D02*
G75*
G02*
X13165000Y-8875000I40000J0D01*
G01*
X6700000Y-6535000D02*
X6700000Y-6635000D01*
X6650000Y-6585000D02*
X6750000Y-6585000D01*
X6700000Y-6789000D02*
X6700000Y-6889000D01*
X6650000Y-6839000D02*
X6750000Y-6839000D01*
X6700000Y-7043000D02*
X6700000Y-7143000D01*
X6650000Y-7093000D02*
X6750000Y-7093000D01*
X6700000Y-7297000D02*
X6700000Y-7397000D01*
X6650000Y-7347000D02*
X6750000Y-7347000D01*
X6770000Y-4754000D02*
X6770000Y-4854000D01*
X6720000Y-4804000D02*
X6820000Y-4804000D01*
X6770000Y-5008000D02*
X6770000Y-5108000D01*
X6720000Y-5058000D02*
X6820000Y-5058000D01*
X6770000Y-5262000D02*
X6770000Y-5362000D01*
X6720000Y-5312000D02*
X6820000Y-5312000D01*
X6770000Y-5516000D02*
X6770000Y-5616000D01*
X6720000Y-5566000D02*
X6820000Y-5566000D01*
X6784000Y-10699000D02*
X6784000Y-10799000D01*
X6734000Y-10749000D02*
X6834000Y-10749000D01*
X6784000Y-10953000D02*
X6784000Y-11053000D01*
X6734000Y-11003000D02*
X6834000Y-11003000D01*
X6784000Y-11207000D02*
X6784000Y-11307000D01*
X6734000Y-11257000D02*
X6834000Y-11257000D01*
X6784000Y-11461000D02*
X6784000Y-11561000D01*
X6734000Y-11511000D02*
X6834000Y-11511000D01*
X6784000Y-11715000D02*
X6784000Y-11815000D01*
X6734000Y-11765000D02*
X6834000Y-11765000D01*
X6784000Y-11969000D02*
X6784000Y-12069000D01*
X6734000Y-12019000D02*
X6834000Y-12019000D01*
X6784000Y-12223000D02*
X6784000Y-12323000D01*
X6734000Y-12273000D02*
X6834000Y-12273000D01*
X6784000Y-12477000D02*
X6784000Y-12577000D01*
X6734000Y-12527000D02*
X6834000Y-12527000D01*
X7570000Y-4754000D02*
X7570000Y-4854000D01*
X7520000Y-4804000D02*
X7620000Y-4804000D01*
X7570000Y-5008000D02*
X7570000Y-5108000D01*
X7520000Y-5058000D02*
X7620000Y-5058000D01*
X7570000Y-5262000D02*
X7570000Y-5362000D01*
X7520000Y-5312000D02*
X7620000Y-5312000D01*
X7570000Y-5516000D02*
X7570000Y-5616000D01*
X7520000Y-5566000D02*
X7620000Y-5566000D01*
X7620000Y-6554000D02*
X7620000Y-6654000D01*
X7570000Y-6604000D02*
X7670000Y-6604000D01*
X7620000Y-6808000D02*
X7620000Y-6908000D01*
X7570000Y-6858000D02*
X7670000Y-6858000D01*
X7620000Y-7062000D02*
X7620000Y-7162000D01*
X7570000Y-7112000D02*
X7670000Y-7112000D01*
X7620000Y-7316000D02*
X7620000Y-7416000D01*
X7570000Y-7366000D02*
X7670000Y-7366000D01*
X8056500Y-10699000D02*
X8056500Y-10799000D01*
X8006500Y-10749000D02*
X8106500Y-10749000D01*
X8056500Y-10953000D02*
X8056500Y-11053000D01*
X8006500Y-11003000D02*
X8106500Y-11003000D01*
X8056500Y-11207000D02*
X8056500Y-11307000D01*
X8006500Y-11257000D02*
X8106500Y-11257000D01*
X8056500Y-11461000D02*
X8056500Y-11561000D01*
X8006500Y-11511000D02*
X8106500Y-11511000D01*
X8056500Y-11715000D02*
X8056500Y-11815000D01*
X8006500Y-11765000D02*
X8106500Y-11765000D01*
X8056500Y-11969000D02*
X8056500Y-12069000D01*
X8006500Y-12019000D02*
X8106500Y-12019000D01*
X8056500Y-12223000D02*
X8056500Y-12323000D01*
X8006500Y-12273000D02*
X8106500Y-12273000D01*
X8056500Y-12477000D02*
X8056500Y-12577000D01*
X8006500Y-12527000D02*
X8106500Y-12527000D01*
X8736000Y-5418000D02*
X8736000Y-5518000D01*
X8686000Y-5468000D02*
X8786000Y-5468000D01*
X8736000Y-5672000D02*
X8736000Y-5772000D01*
X8686000Y-5722000D02*
X8786000Y-5722000D01*
X8736000Y-5926000D02*
X8736000Y-6026000D01*
X8686000Y-5976000D02*
X8786000Y-5976000D01*
X8813500Y-10676000D02*
X8813500Y-10776000D01*
X8763500Y-10726000D02*
X8863500Y-10726000D01*
X8813500Y-10930000D02*
X8813500Y-11030000D01*
X8763500Y-10980000D02*
X8863500Y-10980000D01*
X8813500Y-11184000D02*
X8813500Y-11284000D01*
X8763500Y-11234000D02*
X8863500Y-11234000D01*
X8813500Y-11438000D02*
X8813500Y-11538000D01*
X8763500Y-11488000D02*
X8863500Y-11488000D01*
X8813500Y-11692000D02*
X8813500Y-11792000D01*
X8763500Y-11742000D02*
X8863500Y-11742000D01*
X8813500Y-11946000D02*
X8813500Y-12046000D01*
X8763500Y-11996000D02*
X8863500Y-11996000D01*
X8813500Y-12200000D02*
X8813500Y-12300000D01*
X8763500Y-12250000D02*
X8863500Y-12250000D01*
X8813500Y-12454000D02*
X8813500Y-12554000D01*
X8763500Y-12504000D02*
X8863500Y-12504000D01*
X9906000Y-4522000D02*
X9906000Y-4622000D01*
X9856000Y-4572000D02*
X9956000Y-4572000D01*
X9906000Y-7062000D02*
X9906000Y-7162000D01*
X9856000Y-7112000D02*
X9956000Y-7112000D01*
X10086000Y-10676000D02*
X10086000Y-10776000D01*
X10036000Y-10726000D02*
X10136000Y-10726000D01*
X10086000Y-10930000D02*
X10086000Y-11030000D01*
X10036000Y-10980000D02*
X10136000Y-10980000D01*
X10086000Y-11184000D02*
X10086000Y-11284000D01*
X10036000Y-11234000D02*
X10136000Y-11234000D01*
X10086000Y-11438000D02*
X10086000Y-11538000D01*
X10036000Y-11488000D02*
X10136000Y-11488000D01*
X10086000Y-11692000D02*
X10086000Y-11792000D01*
X10036000Y-11742000D02*
X10136000Y-11742000D01*
X10086000Y-11946000D02*
X10086000Y-12046000D01*
X10036000Y-11996000D02*
X10136000Y-11996000D01*
X10086000Y-12200000D02*
X10086000Y-12300000D01*
X10036000Y-12250000D02*
X10136000Y-12250000D01*
X10086000Y-12454000D02*
X10086000Y-12554000D01*
X10036000Y-12504000D02*
X10136000Y-12504000D01*
X10160000Y-4522000D02*
X10160000Y-4622000D01*
X10110000Y-4572000D02*
X10210000Y-4572000D01*
X10160000Y-7062000D02*
X10160000Y-7162000D01*
X10110000Y-7112000D02*
X10210000Y-7112000D01*
X10414000Y-4522000D02*
X10414000Y-4622000D01*
X10364000Y-4572000D02*
X10464000Y-4572000D01*
X10414000Y-7062000D02*
X10414000Y-7162000D01*
X10364000Y-7112000D02*
X10464000Y-7112000D01*
X10668000Y-4522000D02*
X10668000Y-4622000D01*
X10618000Y-4572000D02*
X10718000Y-4572000D01*
X10668000Y-7062000D02*
X10668000Y-7162000D01*
X10618000Y-7112000D02*
X10718000Y-7112000D01*
X10845500Y-10676000D02*
X10845500Y-10776000D01*
X10795500Y-10726000D02*
X10895500Y-10726000D01*
X10845500Y-10930000D02*
X10845500Y-11030000D01*
X10795500Y-10980000D02*
X10895500Y-10980000D01*
X10845500Y-11184000D02*
X10845500Y-11284000D01*
X10795500Y-11234000D02*
X10895500Y-11234000D01*
X10845500Y-11438000D02*
X10845500Y-11538000D01*
X10795500Y-11488000D02*
X10895500Y-11488000D01*
X10845500Y-11692000D02*
X10845500Y-11792000D01*
X10795500Y-11742000D02*
X10895500Y-11742000D01*
X10845500Y-11946000D02*
X10845500Y-12046000D01*
X10795500Y-11996000D02*
X10895500Y-11996000D01*
X10845500Y-12200000D02*
X10845500Y-12300000D01*
X10795500Y-12250000D02*
X10895500Y-12250000D01*
X10845500Y-12454000D02*
X10845500Y-12554000D01*
X10795500Y-12504000D02*
X10895500Y-12504000D01*
X10922000Y-4522000D02*
X10922000Y-4622000D01*
X10872000Y-4572000D02*
X10972000Y-4572000D01*
X10922000Y-7062000D02*
X10922000Y-7162000D01*
X10872000Y-7112000D02*
X10972000Y-7112000D01*
X11176000Y-4522000D02*
X11176000Y-4622000D01*
X11126000Y-4572000D02*
X11226000Y-4572000D01*
X11176000Y-7062000D02*
X11176000Y-7162000D01*
X11126000Y-7112000D02*
X11226000Y-7112000D01*
X11430000Y-4522000D02*
X11430000Y-4622000D01*
X11380000Y-4572000D02*
X11480000Y-4572000D01*
X11430000Y-7062000D02*
X11430000Y-7162000D01*
X11380000Y-7112000D02*
X11480000Y-7112000D01*
X11684000Y-4522000D02*
X11684000Y-4622000D01*
X11634000Y-4572000D02*
X11734000Y-4572000D01*
X11684000Y-7062000D02*
X11684000Y-7162000D01*
X11634000Y-7112000D02*
X11734000Y-7112000D01*
X11938000Y-4522000D02*
X11938000Y-4622000D01*
X11888000Y-4572000D02*
X11988000Y-4572000D01*
X11938000Y-7062000D02*
X11938000Y-7162000D01*
X11888000Y-7112000D02*
X11988000Y-7112000D01*
X12118000Y-10676000D02*
X12118000Y-10776000D01*
X12068000Y-10726000D02*
X12168000Y-10726000D01*
X12118000Y-10930000D02*
X12118000Y-11030000D01*
X12068000Y-10980000D02*
X12168000Y-10980000D01*
X12118000Y-11184000D02*
X12118000Y-11284000D01*
X12068000Y-11234000D02*
X12168000Y-11234000D01*
X12118000Y-11438000D02*
X12118000Y-11538000D01*
X12068000Y-11488000D02*
X12168000Y-11488000D01*
X12118000Y-11692000D02*
X12118000Y-11792000D01*
X12068000Y-11742000D02*
X12168000Y-11742000D01*
X12118000Y-11946000D02*
X12118000Y-12046000D01*
X12068000Y-11996000D02*
X12168000Y-11996000D01*
X12118000Y-12200000D02*
X12118000Y-12300000D01*
X12068000Y-12250000D02*
X12168000Y-12250000D01*
X12118000Y-12454000D02*
X12118000Y-12554000D01*
X12068000Y-12504000D02*
X12168000Y-12504000D01*
X12192000Y-4522000D02*
X12192000Y-4622000D01*
X12142000Y-4572000D02*
X12242000Y-4572000D01*
X12192000Y-7062000D02*
X12192000Y-7162000D01*
X12142000Y-7112000D02*
X12242000Y-7112000D01*
X12446000Y-4522000D02*
X12446000Y-4622000D01*
X12396000Y-4572000D02*
X12496000Y-4572000D01*
X12446000Y-7062000D02*
X12446000Y-7162000D01*
X12396000Y-7112000D02*
X12496000Y-7112000D01*
X12700000Y-4522000D02*
X12700000Y-4622000D01*
X12650000Y-4572000D02*
X12750000Y-4572000D01*
X12700000Y-7062000D02*
X12700000Y-7162000D01*
X12650000Y-7112000D02*
X12750000Y-7112000D01*
X12877500Y-10676000D02*
X12877500Y-10776000D01*
X12827500Y-10726000D02*
X12927500Y-10726000D01*
X12877500Y-10930000D02*
X12877500Y-11030000D01*
X12827500Y-10980000D02*
X12927500Y-10980000D01*
X12877500Y-11184000D02*
X12877500Y-11284000D01*
X12827500Y-11234000D02*
X12927500Y-11234000D01*
X12877500Y-11438000D02*
X12877500Y-11538000D01*
X12827500Y-11488000D02*
X12927500Y-11488000D01*
X12877500Y-11692000D02*
X12877500Y-11792000D01*
X12827500Y-11742000D02*
X12927500Y-11742000D01*
X12877500Y-11946000D02*
X12877500Y-12046000D01*
X12827500Y-11996000D02*
X12927500Y-11996000D01*
X12877500Y-12200000D02*
X12877500Y-12300000D01*
X12827500Y-12250000D02*
X12927500Y-12250000D01*
X12877500Y-12454000D02*
X12877500Y-12554000D01*
X12827500Y-12504000D02*
X12927500Y-12504000D01*
X12954000Y-4522000D02*
X12954000Y-4622000D01*
X12904000Y-4572000D02*
X13004000Y-4572000D01*
X12954000Y-7062000D02*
X12954000Y-7162000D01*
X12904000Y-7112000D02*
X13004000Y-7112000D01*
X13208000Y-4522000D02*
X13208000Y-4622000D01*
X13158000Y-4572000D02*
X13258000Y-4572000D01*
X13208000Y-7062000D02*
X13208000Y-7162000D01*
X13158000Y-7112000D02*
X13258000Y-7112000D01*
X13462000Y-4522000D02*
X13462000Y-4622000D01*
X13412000Y-4572000D02*
X13512000Y-4572000D01*
X13462000Y-7062000D02*
X13462000Y-7162000D01*
X13412000Y-7112000D02*
X13512000Y-7112000D01*
X13716000Y-4522000D02*
X13716000Y-4622000D01*
X13666000Y-4572000D02*
X13766000Y-4572000D01*
X13716000Y-7062000D02*
X13716000Y-7162000D01*
X13666000Y-7112000D02*
X13766000Y-7112000D01*
X13970000Y-4522000D02*
X13970000Y-4622000D01*
X13920000Y-4572000D02*
X14020000Y-4572000D01*
X13970000Y-7062000D02*
X13970000Y-7162000D01*
X13920000Y-7112000D02*
X14020000Y-7112000D01*
X14150000Y-10676000D02*
X14150000Y-10776000D01*
X14100000Y-10726000D02*
X14200000Y-10726000D01*
X14150000Y-10930000D02*
X14150000Y-11030000D01*
X14100000Y-10980000D02*
X14200000Y-10980000D01*
X14150000Y-11184000D02*
X14150000Y-11284000D01*
X14100000Y-11234000D02*
X14200000Y-11234000D01*
X14150000Y-11438000D02*
X14150000Y-11538000D01*
X14100000Y-11488000D02*
X14200000Y-11488000D01*
X14150000Y-11692000D02*
X14150000Y-11792000D01*
X14100000Y-11742000D02*
X14200000Y-11742000D01*
X14150000Y-11946000D02*
X14150000Y-12046000D01*
X14100000Y-11996000D02*
X14200000Y-11996000D01*
X14150000Y-12200000D02*
X14150000Y-12300000D01*
X14100000Y-12250000D02*
X14200000Y-12250000D01*
X14150000Y-12454000D02*
X14150000Y-12554000D01*
X14100000Y-12504000D02*
X14200000Y-12504000D01*
X14224000Y-4522000D02*
X14224000Y-4622000D01*
X14174000Y-4572000D02*
X14274000Y-4572000D01*
X14224000Y-7062000D02*
X14224000Y-7162000D01*
X14174000Y-7112000D02*
X14274000Y-7112000D01*
X14478000Y-4522000D02*
X14478000Y-4622000D01*
X14428000Y-4572000D02*
X14528000Y-4572000D01*
X14478000Y-7062000D02*
X14478000Y-7162000D01*
X14428000Y-7112000D02*
X14528000Y-7112000D01*
D13*
X3820962Y-3442712D02*
X3820962Y-3350788D01*
X3729038Y-3350788D01*
X3729038Y-3442712D01*
X3820962Y-3442712D01*
X3917712Y-4670962D02*
X3917712Y-4579038D01*
X3825788Y-4579038D01*
X3825788Y-4670962D01*
X3917712Y-4670962D01*
X3917712Y-5170962D02*
X3917712Y-5079038D01*
X3825788Y-5079038D01*
X3825788Y-5170962D01*
X3917712Y-5170962D01*
X3917712Y-5970962D02*
X3917712Y-5879038D01*
X3825788Y-5879038D01*
X3825788Y-5970962D01*
X3917712Y-5970962D01*
X3917712Y-6470962D02*
X3917712Y-6379038D01*
X3825788Y-6379038D01*
X3825788Y-6470962D01*
X3917712Y-6470962D01*
X3920962Y-7395962D02*
X3920962Y-7304038D01*
X3829038Y-7304038D01*
X3829038Y-7395962D01*
X3920962Y-7395962D01*
X3920962Y-7895962D02*
X3920962Y-7804038D01*
X3829038Y-7804038D01*
X3829038Y-7895962D01*
X3920962Y-7895962D01*
X3920962Y-8395962D02*
X3920962Y-8304038D01*
X3829038Y-8304038D01*
X3829038Y-8395962D01*
X3920962Y-8395962D01*
X3920962Y-8895962D02*
X3920962Y-8804038D01*
X3829038Y-8804038D01*
X3829038Y-8895962D01*
X3920962Y-8895962D01*
X3920962Y-9395962D02*
X3920962Y-9304038D01*
X3829038Y-9304038D01*
X3829038Y-9395962D01*
X3920962Y-9395962D01*
X3920962Y-9895962D02*
X3920962Y-9804038D01*
X3829038Y-9804038D01*
X3829038Y-9895962D01*
X3920962Y-9895962D01*
X4320962Y-3442712D02*
X4320962Y-3350788D01*
X4229038Y-3350788D01*
X4229038Y-3442712D01*
X4320962Y-3442712D01*
X5895962Y-3445962D02*
X5895962Y-3354038D01*
X5804038Y-3354038D01*
X5804038Y-3445962D01*
X5895962Y-3445962D01*
X6395962Y-3445962D02*
X6395962Y-3354038D01*
X6304038Y-3354038D01*
X6304038Y-3445962D01*
X6395962Y-3445962D01*
X7870962Y-3442712D02*
X7870962Y-3350788D01*
X7779038Y-3350788D01*
X7779038Y-3442712D01*
X7870962Y-3442712D01*
X8370962Y-3442712D02*
X8370962Y-3350788D01*
X8279038Y-3350788D01*
X8279038Y-3442712D01*
X8370962Y-3442712D01*
X9870962Y-3392712D02*
X9870962Y-3300788D01*
X9779038Y-3300788D01*
X9779038Y-3392712D01*
X9870962Y-3392712D01*
X10370962Y-3392712D02*
X10370962Y-3300788D01*
X10279038Y-3300788D01*
X10279038Y-3392712D01*
X10370962Y-3392712D01*
X11870962Y-3442712D02*
X11870962Y-3350788D01*
X11779038Y-3350788D01*
X11779038Y-3442712D01*
X11870962Y-3442712D01*
X12370962Y-3442712D02*
X12370962Y-3350788D01*
X12279038Y-3350788D01*
X12279038Y-3442712D01*
X12370962Y-3442712D01*
X13870962Y-3442712D02*
X13870962Y-3350788D01*
X13779038Y-3350788D01*
X13779038Y-3442712D01*
X13870962Y-3442712D01*
X14370962Y-3442712D02*
X14370962Y-3350788D01*
X14279038Y-3350788D01*
X14279038Y-3442712D01*
X14370962Y-3442712D01*
X15645962Y-3395962D02*
X15645962Y-3304038D01*
X15554038Y-3304038D01*
X15554038Y-3395962D01*
X15645962Y-3395962D01*
X15645962Y-3895962D02*
X15645962Y-3804038D01*
X15554038Y-3804038D01*
X15554038Y-3895962D01*
X15645962Y-3895962D01*
D11*
X2558277Y-14013984D02*
X2558277Y-13813984D01*
X2558277Y-13813984D02*
X2605896Y-13813984D01*
X2605896Y-13813984D02*
X2634467Y-13823508D01*
X2634467Y-13823508D02*
X2653515Y-13842555D01*
X2653515Y-13842555D02*
X2663039Y-13861603D01*
X2663039Y-13861603D02*
X2672563Y-13899698D01*
X2672563Y-13899698D02*
X2672563Y-13928269D01*
X2672563Y-13928269D02*
X2663039Y-13966365D01*
X2663039Y-13966365D02*
X2653515Y-13985412D01*
X2653515Y-13985412D02*
X2634467Y-14004460D01*
X2634467Y-14004460D02*
X2605896Y-14013984D01*
X2605896Y-14013984D02*
X2558277Y-14013984D01*
X2758277Y-14013984D02*
X2758277Y-13880650D01*
X2758277Y-13918746D02*
X2767801Y-13899698D01*
X2767801Y-13899698D02*
X2777324Y-13890174D01*
X2777324Y-13890174D02*
X2796372Y-13880650D01*
X2796372Y-13880650D02*
X2815420Y-13880650D01*
X2882086Y-14013984D02*
X2882086Y-13880650D01*
X2882086Y-13813984D02*
X2872562Y-13823508D01*
X2872562Y-13823508D02*
X2882086Y-13833031D01*
X2882086Y-13833031D02*
X2891610Y-13823508D01*
X2891610Y-13823508D02*
X2882086Y-13813984D01*
X2882086Y-13813984D02*
X2882086Y-13833031D01*
X3005896Y-14013984D02*
X2986848Y-14004460D01*
X2986848Y-14004460D02*
X2977324Y-13985412D01*
X2977324Y-13985412D02*
X2977324Y-13813984D01*
X3110658Y-14013984D02*
X3091610Y-14004460D01*
X3091610Y-14004460D02*
X3082086Y-13985412D01*
X3082086Y-13985412D02*
X3082086Y-13813984D01*
X3339229Y-14013984D02*
X3339229Y-13813984D01*
X3339229Y-13813984D02*
X3405896Y-13956841D01*
X3405896Y-13956841D02*
X3472562Y-13813984D01*
X3472562Y-13813984D02*
X3472562Y-14013984D01*
X3653515Y-14013984D02*
X3653515Y-13909222D01*
X3653515Y-13909222D02*
X3643991Y-13890174D01*
X3643991Y-13890174D02*
X3624943Y-13880650D01*
X3624943Y-13880650D02*
X3586848Y-13880650D01*
X3586848Y-13880650D02*
X3567801Y-13890174D01*
X3653515Y-14004460D02*
X3634467Y-14013984D01*
X3634467Y-14013984D02*
X3586848Y-14013984D01*
X3586848Y-14013984D02*
X3567801Y-14004460D01*
X3567801Y-14004460D02*
X3558277Y-13985412D01*
X3558277Y-13985412D02*
X3558277Y-13966365D01*
X3558277Y-13966365D02*
X3567801Y-13947317D01*
X3567801Y-13947317D02*
X3586848Y-13937793D01*
X3586848Y-13937793D02*
X3634467Y-13937793D01*
X3634467Y-13937793D02*
X3653515Y-13928269D01*
X3748753Y-13880650D02*
X3748753Y-14080650D01*
X3748753Y-13890174D02*
X3767801Y-13880650D01*
X3767801Y-13880650D02*
X3805896Y-13880650D01*
X3805896Y-13880650D02*
X3824943Y-13890174D01*
X3824943Y-13890174D02*
X3834467Y-13899698D01*
X3834467Y-13899698D02*
X3843991Y-13918746D01*
X3843991Y-13918746D02*
X3843991Y-13975888D01*
X3843991Y-13975888D02*
X3834467Y-13994936D01*
X3834467Y-13994936D02*
X3824943Y-14004460D01*
X3824943Y-14004460D02*
X3805896Y-14013984D01*
X3805896Y-14013984D02*
X3767801Y-14013984D01*
X3767801Y-14013984D02*
X3748753Y-14004460D01*
X3929705Y-13994936D02*
X3939229Y-14004460D01*
X3939229Y-14004460D02*
X3929705Y-14013984D01*
X3929705Y-14013984D02*
X3920182Y-14004460D01*
X3920182Y-14004460D02*
X3929705Y-13994936D01*
X3929705Y-13994936D02*
X3929705Y-14013984D01*
X3929705Y-13890174D02*
X3939229Y-13899698D01*
X3939229Y-13899698D02*
X3929705Y-13909222D01*
X3929705Y-13909222D02*
X3920182Y-13899698D01*
X3920182Y-13899698D02*
X3929705Y-13890174D01*
X3929705Y-13890174D02*
X3929705Y-13909222D01*
D12*
X2267500Y-14327500D02*
X2297500Y-14357500D01*
X2297500Y-14327500D02*
X2267500Y-14357500D01*
D11*
X2596372Y-14233984D02*
X2615420Y-14233984D01*
X2615420Y-14233984D02*
X2634467Y-14243508D01*
X2634467Y-14243508D02*
X2643991Y-14253031D01*
X2643991Y-14253031D02*
X2653515Y-14272079D01*
X2653515Y-14272079D02*
X2663039Y-14310174D01*
X2663039Y-14310174D02*
X2663039Y-14357793D01*
X2663039Y-14357793D02*
X2653515Y-14395888D01*
X2653515Y-14395888D02*
X2643991Y-14414936D01*
X2643991Y-14414936D02*
X2634467Y-14424460D01*
X2634467Y-14424460D02*
X2615420Y-14433984D01*
X2615420Y-14433984D02*
X2596372Y-14433984D01*
X2596372Y-14433984D02*
X2577324Y-14424460D01*
X2577324Y-14424460D02*
X2567801Y-14414936D01*
X2567801Y-14414936D02*
X2558277Y-14395888D01*
X2558277Y-14395888D02*
X2548753Y-14357793D01*
X2548753Y-14357793D02*
X2548753Y-14310174D01*
X2548753Y-14310174D02*
X2558277Y-14272079D01*
X2558277Y-14272079D02*
X2567801Y-14253031D01*
X2567801Y-14253031D02*
X2577324Y-14243508D01*
X2577324Y-14243508D02*
X2596372Y-14233984D01*
X2748753Y-14414936D02*
X2758277Y-14424460D01*
X2758277Y-14424460D02*
X2748753Y-14433984D01*
X2748753Y-14433984D02*
X2739229Y-14424460D01*
X2739229Y-14424460D02*
X2748753Y-14414936D01*
X2748753Y-14414936D02*
X2748753Y-14433984D01*
X2824943Y-14233984D02*
X2948753Y-14233984D01*
X2948753Y-14233984D02*
X2882086Y-14310174D01*
X2882086Y-14310174D02*
X2910658Y-14310174D01*
X2910658Y-14310174D02*
X2929705Y-14319698D01*
X2929705Y-14319698D02*
X2939229Y-14329222D01*
X2939229Y-14329222D02*
X2948753Y-14348269D01*
X2948753Y-14348269D02*
X2948753Y-14395888D01*
X2948753Y-14395888D02*
X2939229Y-14414936D01*
X2939229Y-14414936D02*
X2929705Y-14424460D01*
X2929705Y-14424460D02*
X2910658Y-14433984D01*
X2910658Y-14433984D02*
X2853515Y-14433984D01*
X2853515Y-14433984D02*
X2834467Y-14424460D01*
X2834467Y-14424460D02*
X2824943Y-14414936D01*
X3072562Y-14233984D02*
X3091610Y-14233984D01*
X3091610Y-14233984D02*
X3110658Y-14243508D01*
X3110658Y-14243508D02*
X3120182Y-14253031D01*
X3120182Y-14253031D02*
X3129705Y-14272079D01*
X3129705Y-14272079D02*
X3139229Y-14310174D01*
X3139229Y-14310174D02*
X3139229Y-14357793D01*
X3139229Y-14357793D02*
X3129705Y-14395888D01*
X3129705Y-14395888D02*
X3120182Y-14414936D01*
X3120182Y-14414936D02*
X3110658Y-14424460D01*
X3110658Y-14424460D02*
X3091610Y-14433984D01*
X3091610Y-14433984D02*
X3072562Y-14433984D01*
X3072562Y-14433984D02*
X3053515Y-14424460D01*
X3053515Y-14424460D02*
X3043991Y-14414936D01*
X3043991Y-14414936D02*
X3034467Y-14395888D01*
X3034467Y-14395888D02*
X3024943Y-14357793D01*
X3024943Y-14357793D02*
X3024943Y-14310174D01*
X3024943Y-14310174D02*
X3034467Y-14272079D01*
X3034467Y-14272079D02*
X3043991Y-14253031D01*
X3043991Y-14253031D02*
X3053515Y-14243508D01*
X3053515Y-14243508D02*
X3072562Y-14233984D01*
X3263039Y-14233984D02*
X3282086Y-14233984D01*
X3282086Y-14233984D02*
X3301134Y-14243508D01*
X3301134Y-14243508D02*
X3310658Y-14253031D01*
X3310658Y-14253031D02*
X3320182Y-14272079D01*
X3320182Y-14272079D02*
X3329705Y-14310174D01*
X3329705Y-14310174D02*
X3329705Y-14357793D01*
X3329705Y-14357793D02*
X3320182Y-14395888D01*
X3320182Y-14395888D02*
X3310658Y-14414936D01*
X3310658Y-14414936D02*
X3301134Y-14424460D01*
X3301134Y-14424460D02*
X3282086Y-14433984D01*
X3282086Y-14433984D02*
X3263039Y-14433984D01*
X3263039Y-14433984D02*
X3243991Y-14424460D01*
X3243991Y-14424460D02*
X3234467Y-14414936D01*
X3234467Y-14414936D02*
X3224943Y-14395888D01*
X3224943Y-14395888D02*
X3215420Y-14357793D01*
X3215420Y-14357793D02*
X3215420Y-14310174D01*
X3215420Y-14310174D02*
X3224943Y-14272079D01*
X3224943Y-14272079D02*
X3234467Y-14253031D01*
X3234467Y-14253031D02*
X3243991Y-14243508D01*
X3243991Y-14243508D02*
X3263039Y-14233984D01*
X3415420Y-14433984D02*
X3415420Y-14300650D01*
X3415420Y-14319698D02*
X3424943Y-14310174D01*
X3424943Y-14310174D02*
X3443991Y-14300650D01*
X3443991Y-14300650D02*
X3472563Y-14300650D01*
X3472563Y-14300650D02*
X3491610Y-14310174D01*
X3491610Y-14310174D02*
X3501134Y-14329222D01*
X3501134Y-14329222D02*
X3501134Y-14433984D01*
X3501134Y-14329222D02*
X3510658Y-14310174D01*
X3510658Y-14310174D02*
X3529705Y-14300650D01*
X3529705Y-14300650D02*
X3558277Y-14300650D01*
X3558277Y-14300650D02*
X3577324Y-14310174D01*
X3577324Y-14310174D02*
X3586848Y-14329222D01*
X3586848Y-14329222D02*
X3586848Y-14433984D01*
X3682086Y-14433984D02*
X3682086Y-14300650D01*
X3682086Y-14319698D02*
X3691610Y-14310174D01*
X3691610Y-14310174D02*
X3710658Y-14300650D01*
X3710658Y-14300650D02*
X3739229Y-14300650D01*
X3739229Y-14300650D02*
X3758277Y-14310174D01*
X3758277Y-14310174D02*
X3767801Y-14329222D01*
X3767801Y-14329222D02*
X3767801Y-14433984D01*
X3767801Y-14329222D02*
X3777324Y-14310174D01*
X3777324Y-14310174D02*
X3796372Y-14300650D01*
X3796372Y-14300650D02*
X3824943Y-14300650D01*
X3824943Y-14300650D02*
X3843991Y-14310174D01*
X3843991Y-14310174D02*
X3853515Y-14329222D01*
X3853515Y-14329222D02*
X3853515Y-14433984D01*
X4243991Y-14224460D02*
X4072563Y-14481603D01*
X4501134Y-14233984D02*
X4520182Y-14233984D01*
X4520182Y-14233984D02*
X4539229Y-14243508D01*
X4539229Y-14243508D02*
X4548753Y-14253031D01*
X4548753Y-14253031D02*
X4558277Y-14272079D01*
X4558277Y-14272079D02*
X4567801Y-14310174D01*
X4567801Y-14310174D02*
X4567801Y-14357793D01*
X4567801Y-14357793D02*
X4558277Y-14395888D01*
X4558277Y-14395888D02*
X4548753Y-14414936D01*
X4548753Y-14414936D02*
X4539229Y-14424460D01*
X4539229Y-14424460D02*
X4520182Y-14433984D01*
X4520182Y-14433984D02*
X4501134Y-14433984D01*
X4501134Y-14433984D02*
X4482087Y-14424460D01*
X4482087Y-14424460D02*
X4472563Y-14414936D01*
X4472563Y-14414936D02*
X4463039Y-14395888D01*
X4463039Y-14395888D02*
X4453515Y-14357793D01*
X4453515Y-14357793D02*
X4453515Y-14310174D01*
X4453515Y-14310174D02*
X4463039Y-14272079D01*
X4463039Y-14272079D02*
X4472563Y-14253031D01*
X4472563Y-14253031D02*
X4482087Y-14243508D01*
X4482087Y-14243508D02*
X4501134Y-14233984D01*
X4653515Y-14414936D02*
X4663039Y-14424460D01*
X4663039Y-14424460D02*
X4653515Y-14433984D01*
X4653515Y-14433984D02*
X4643991Y-14424460D01*
X4643991Y-14424460D02*
X4653515Y-14414936D01*
X4653515Y-14414936D02*
X4653515Y-14433984D01*
X4786848Y-14233984D02*
X4805896Y-14233984D01*
X4805896Y-14233984D02*
X4824944Y-14243508D01*
X4824944Y-14243508D02*
X4834468Y-14253031D01*
X4834468Y-14253031D02*
X4843991Y-14272079D01*
X4843991Y-14272079D02*
X4853515Y-14310174D01*
X4853515Y-14310174D02*
X4853515Y-14357793D01*
X4853515Y-14357793D02*
X4843991Y-14395888D01*
X4843991Y-14395888D02*
X4834468Y-14414936D01*
X4834468Y-14414936D02*
X4824944Y-14424460D01*
X4824944Y-14424460D02*
X4805896Y-14433984D01*
X4805896Y-14433984D02*
X4786848Y-14433984D01*
X4786848Y-14433984D02*
X4767801Y-14424460D01*
X4767801Y-14424460D02*
X4758277Y-14414936D01*
X4758277Y-14414936D02*
X4748753Y-14395888D01*
X4748753Y-14395888D02*
X4739229Y-14357793D01*
X4739229Y-14357793D02*
X4739229Y-14310174D01*
X4739229Y-14310174D02*
X4748753Y-14272079D01*
X4748753Y-14272079D02*
X4758277Y-14253031D01*
X4758277Y-14253031D02*
X4767801Y-14243508D01*
X4767801Y-14243508D02*
X4786848Y-14233984D01*
X5043991Y-14433984D02*
X4929706Y-14433984D01*
X4986848Y-14433984D02*
X4986848Y-14233984D01*
X4986848Y-14233984D02*
X4967801Y-14262555D01*
X4967801Y-14262555D02*
X4948753Y-14281603D01*
X4948753Y-14281603D02*
X4929706Y-14291127D01*
X5234468Y-14433984D02*
X5120182Y-14433984D01*
X5177325Y-14433984D02*
X5177325Y-14233984D01*
X5177325Y-14233984D02*
X5158277Y-14262555D01*
X5158277Y-14262555D02*
X5139229Y-14281603D01*
X5139229Y-14281603D02*
X5120182Y-14291127D01*
X5348753Y-14319698D02*
X5329706Y-14310174D01*
X5329706Y-14310174D02*
X5320182Y-14300650D01*
X5320182Y-14300650D02*
X5310658Y-14281603D01*
X5310658Y-14281603D02*
X5310658Y-14272079D01*
X5310658Y-14272079D02*
X5320182Y-14253031D01*
X5320182Y-14253031D02*
X5329706Y-14243508D01*
X5329706Y-14243508D02*
X5348753Y-14233984D01*
X5348753Y-14233984D02*
X5386849Y-14233984D01*
X5386849Y-14233984D02*
X5405896Y-14243508D01*
X5405896Y-14243508D02*
X5415420Y-14253031D01*
X5415420Y-14253031D02*
X5424944Y-14272079D01*
X5424944Y-14272079D02*
X5424944Y-14281603D01*
X5424944Y-14281603D02*
X5415420Y-14300650D01*
X5415420Y-14300650D02*
X5405896Y-14310174D01*
X5405896Y-14310174D02*
X5386849Y-14319698D01*
X5386849Y-14319698D02*
X5348753Y-14319698D01*
X5348753Y-14319698D02*
X5329706Y-14329222D01*
X5329706Y-14329222D02*
X5320182Y-14338746D01*
X5320182Y-14338746D02*
X5310658Y-14357793D01*
X5310658Y-14357793D02*
X5310658Y-14395888D01*
X5310658Y-14395888D02*
X5320182Y-14414936D01*
X5320182Y-14414936D02*
X5329706Y-14424460D01*
X5329706Y-14424460D02*
X5348753Y-14433984D01*
X5348753Y-14433984D02*
X5386849Y-14433984D01*
X5386849Y-14433984D02*
X5405896Y-14424460D01*
X5405896Y-14424460D02*
X5415420Y-14414936D01*
X5415420Y-14414936D02*
X5424944Y-14395888D01*
X5424944Y-14395888D02*
X5424944Y-14357793D01*
X5424944Y-14357793D02*
X5415420Y-14338746D01*
X5415420Y-14338746D02*
X5405896Y-14329222D01*
X5405896Y-14329222D02*
X5386849Y-14319698D01*
X5501134Y-14233984D02*
X5501134Y-14272079D01*
X5577325Y-14233984D02*
X5577325Y-14272079D01*
X5872563Y-14510174D02*
X5863039Y-14500650D01*
X5863039Y-14500650D02*
X5843991Y-14472079D01*
X5843991Y-14472079D02*
X5834468Y-14453031D01*
X5834468Y-14453031D02*
X5824944Y-14424460D01*
X5824944Y-14424460D02*
X5815420Y-14376841D01*
X5815420Y-14376841D02*
X5815420Y-14338746D01*
X5815420Y-14338746D02*
X5824944Y-14291127D01*
X5824944Y-14291127D02*
X5834468Y-14262555D01*
X5834468Y-14262555D02*
X5843991Y-14243508D01*
X5843991Y-14243508D02*
X5863039Y-14214936D01*
X5863039Y-14214936D02*
X5872563Y-14205412D01*
X5929706Y-14233984D02*
X6063039Y-14233984D01*
X6063039Y-14233984D02*
X5977325Y-14433984D01*
X6291610Y-14433984D02*
X6291610Y-14233984D01*
X6377325Y-14433984D02*
X6377325Y-14329222D01*
X6377325Y-14329222D02*
X6367801Y-14310174D01*
X6367801Y-14310174D02*
X6348753Y-14300650D01*
X6348753Y-14300650D02*
X6320182Y-14300650D01*
X6320182Y-14300650D02*
X6301134Y-14310174D01*
X6301134Y-14310174D02*
X6291610Y-14319698D01*
X6501134Y-14433984D02*
X6482087Y-14424460D01*
X6482087Y-14424460D02*
X6472563Y-14414936D01*
X6472563Y-14414936D02*
X6463039Y-14395888D01*
X6463039Y-14395888D02*
X6463039Y-14338746D01*
X6463039Y-14338746D02*
X6472563Y-14319698D01*
X6472563Y-14319698D02*
X6482087Y-14310174D01*
X6482087Y-14310174D02*
X6501134Y-14300650D01*
X6501134Y-14300650D02*
X6529706Y-14300650D01*
X6529706Y-14300650D02*
X6548753Y-14310174D01*
X6548753Y-14310174D02*
X6558277Y-14319698D01*
X6558277Y-14319698D02*
X6567801Y-14338746D01*
X6567801Y-14338746D02*
X6567801Y-14395888D01*
X6567801Y-14395888D02*
X6558277Y-14414936D01*
X6558277Y-14414936D02*
X6548753Y-14424460D01*
X6548753Y-14424460D02*
X6529706Y-14433984D01*
X6529706Y-14433984D02*
X6501134Y-14433984D01*
X6682087Y-14433984D02*
X6663039Y-14424460D01*
X6663039Y-14424460D02*
X6653515Y-14405412D01*
X6653515Y-14405412D02*
X6653515Y-14233984D01*
X6834468Y-14424460D02*
X6815420Y-14433984D01*
X6815420Y-14433984D02*
X6777325Y-14433984D01*
X6777325Y-14433984D02*
X6758277Y-14424460D01*
X6758277Y-14424460D02*
X6748753Y-14405412D01*
X6748753Y-14405412D02*
X6748753Y-14329222D01*
X6748753Y-14329222D02*
X6758277Y-14310174D01*
X6758277Y-14310174D02*
X6777325Y-14300650D01*
X6777325Y-14300650D02*
X6815420Y-14300650D01*
X6815420Y-14300650D02*
X6834468Y-14310174D01*
X6834468Y-14310174D02*
X6843991Y-14329222D01*
X6843991Y-14329222D02*
X6843991Y-14348269D01*
X6843991Y-14348269D02*
X6748753Y-14367317D01*
X6920182Y-14424460D02*
X6939230Y-14433984D01*
X6939230Y-14433984D02*
X6977325Y-14433984D01*
X6977325Y-14433984D02*
X6996372Y-14424460D01*
X6996372Y-14424460D02*
X7005896Y-14405412D01*
X7005896Y-14405412D02*
X7005896Y-14395888D01*
X7005896Y-14395888D02*
X6996372Y-14376841D01*
X6996372Y-14376841D02*
X6977325Y-14367317D01*
X6977325Y-14367317D02*
X6948753Y-14367317D01*
X6948753Y-14367317D02*
X6929706Y-14357793D01*
X6929706Y-14357793D02*
X6920182Y-14338746D01*
X6920182Y-14338746D02*
X6920182Y-14329222D01*
X6920182Y-14329222D02*
X6929706Y-14310174D01*
X6929706Y-14310174D02*
X6948753Y-14300650D01*
X6948753Y-14300650D02*
X6977325Y-14300650D01*
X6977325Y-14300650D02*
X6996372Y-14310174D01*
X7072563Y-14510174D02*
X7082087Y-14500650D01*
X7082087Y-14500650D02*
X7101134Y-14472079D01*
X7101134Y-14472079D02*
X7110658Y-14453031D01*
X7110658Y-14453031D02*
X7120182Y-14424460D01*
X7120182Y-14424460D02*
X7129706Y-14376841D01*
X7129706Y-14376841D02*
X7129706Y-14338746D01*
X7129706Y-14338746D02*
X7120182Y-14291127D01*
X7120182Y-14291127D02*
X7110658Y-14262555D01*
X7110658Y-14262555D02*
X7101134Y-14243508D01*
X7101134Y-14243508D02*
X7082087Y-14214936D01*
X7082087Y-14214936D02*
X7072563Y-14205412D01*
D12*
X2297500Y-14606500D02*
G75*
G02*
X2217500Y-14606500I-40000J0D01*
G01*
X2217500Y-14606500D02*
G75*
G02*
X2297500Y-14606500I40000J0D01*
G01*
D11*
X2596372Y-14497984D02*
X2615420Y-14497984D01*
X2615420Y-14497984D02*
X2634467Y-14507508D01*
X2634467Y-14507508D02*
X2643991Y-14517031D01*
X2643991Y-14517031D02*
X2653515Y-14536079D01*
X2653515Y-14536079D02*
X2663039Y-14574174D01*
X2663039Y-14574174D02*
X2663039Y-14621793D01*
X2663039Y-14621793D02*
X2653515Y-14659888D01*
X2653515Y-14659888D02*
X2643991Y-14678936D01*
X2643991Y-14678936D02*
X2634467Y-14688460D01*
X2634467Y-14688460D02*
X2615420Y-14697984D01*
X2615420Y-14697984D02*
X2596372Y-14697984D01*
X2596372Y-14697984D02*
X2577324Y-14688460D01*
X2577324Y-14688460D02*
X2567801Y-14678936D01*
X2567801Y-14678936D02*
X2558277Y-14659888D01*
X2558277Y-14659888D02*
X2548753Y-14621793D01*
X2548753Y-14621793D02*
X2548753Y-14574174D01*
X2548753Y-14574174D02*
X2558277Y-14536079D01*
X2558277Y-14536079D02*
X2567801Y-14517031D01*
X2567801Y-14517031D02*
X2577324Y-14507508D01*
X2577324Y-14507508D02*
X2596372Y-14497984D01*
X2748753Y-14678936D02*
X2758277Y-14688460D01*
X2758277Y-14688460D02*
X2748753Y-14697984D01*
X2748753Y-14697984D02*
X2739229Y-14688460D01*
X2739229Y-14688460D02*
X2748753Y-14678936D01*
X2748753Y-14678936D02*
X2748753Y-14697984D01*
X2872562Y-14583698D02*
X2853515Y-14574174D01*
X2853515Y-14574174D02*
X2843991Y-14564650D01*
X2843991Y-14564650D02*
X2834467Y-14545603D01*
X2834467Y-14545603D02*
X2834467Y-14536079D01*
X2834467Y-14536079D02*
X2843991Y-14517031D01*
X2843991Y-14517031D02*
X2853515Y-14507508D01*
X2853515Y-14507508D02*
X2872562Y-14497984D01*
X2872562Y-14497984D02*
X2910658Y-14497984D01*
X2910658Y-14497984D02*
X2929705Y-14507508D01*
X2929705Y-14507508D02*
X2939229Y-14517031D01*
X2939229Y-14517031D02*
X2948753Y-14536079D01*
X2948753Y-14536079D02*
X2948753Y-14545603D01*
X2948753Y-14545603D02*
X2939229Y-14564650D01*
X2939229Y-14564650D02*
X2929705Y-14574174D01*
X2929705Y-14574174D02*
X2910658Y-14583698D01*
X2910658Y-14583698D02*
X2872562Y-14583698D01*
X2872562Y-14583698D02*
X2853515Y-14593222D01*
X2853515Y-14593222D02*
X2843991Y-14602746D01*
X2843991Y-14602746D02*
X2834467Y-14621793D01*
X2834467Y-14621793D02*
X2834467Y-14659888D01*
X2834467Y-14659888D02*
X2843991Y-14678936D01*
X2843991Y-14678936D02*
X2853515Y-14688460D01*
X2853515Y-14688460D02*
X2872562Y-14697984D01*
X2872562Y-14697984D02*
X2910658Y-14697984D01*
X2910658Y-14697984D02*
X2929705Y-14688460D01*
X2929705Y-14688460D02*
X2939229Y-14678936D01*
X2939229Y-14678936D02*
X2948753Y-14659888D01*
X2948753Y-14659888D02*
X2948753Y-14621793D01*
X2948753Y-14621793D02*
X2939229Y-14602746D01*
X2939229Y-14602746D02*
X2929705Y-14593222D01*
X2929705Y-14593222D02*
X2910658Y-14583698D01*
X3072562Y-14497984D02*
X3091610Y-14497984D01*
X3091610Y-14497984D02*
X3110658Y-14507508D01*
X3110658Y-14507508D02*
X3120182Y-14517031D01*
X3120182Y-14517031D02*
X3129705Y-14536079D01*
X3129705Y-14536079D02*
X3139229Y-14574174D01*
X3139229Y-14574174D02*
X3139229Y-14621793D01*
X3139229Y-14621793D02*
X3129705Y-14659888D01*
X3129705Y-14659888D02*
X3120182Y-14678936D01*
X3120182Y-14678936D02*
X3110658Y-14688460D01*
X3110658Y-14688460D02*
X3091610Y-14697984D01*
X3091610Y-14697984D02*
X3072562Y-14697984D01*
X3072562Y-14697984D02*
X3053515Y-14688460D01*
X3053515Y-14688460D02*
X3043991Y-14678936D01*
X3043991Y-14678936D02*
X3034467Y-14659888D01*
X3034467Y-14659888D02*
X3024943Y-14621793D01*
X3024943Y-14621793D02*
X3024943Y-14574174D01*
X3024943Y-14574174D02*
X3034467Y-14536079D01*
X3034467Y-14536079D02*
X3043991Y-14517031D01*
X3043991Y-14517031D02*
X3053515Y-14507508D01*
X3053515Y-14507508D02*
X3072562Y-14497984D01*
X3263039Y-14497984D02*
X3282086Y-14497984D01*
X3282086Y-14497984D02*
X3301134Y-14507508D01*
X3301134Y-14507508D02*
X3310658Y-14517031D01*
X3310658Y-14517031D02*
X3320182Y-14536079D01*
X3320182Y-14536079D02*
X3329705Y-14574174D01*
X3329705Y-14574174D02*
X3329705Y-14621793D01*
X3329705Y-14621793D02*
X3320182Y-14659888D01*
X3320182Y-14659888D02*
X3310658Y-14678936D01*
X3310658Y-14678936D02*
X3301134Y-14688460D01*
X3301134Y-14688460D02*
X3282086Y-14697984D01*
X3282086Y-14697984D02*
X3263039Y-14697984D01*
X3263039Y-14697984D02*
X3243991Y-14688460D01*
X3243991Y-14688460D02*
X3234467Y-14678936D01*
X3234467Y-14678936D02*
X3224943Y-14659888D01*
X3224943Y-14659888D02*
X3215420Y-14621793D01*
X3215420Y-14621793D02*
X3215420Y-14574174D01*
X3215420Y-14574174D02*
X3224943Y-14536079D01*
X3224943Y-14536079D02*
X3234467Y-14517031D01*
X3234467Y-14517031D02*
X3243991Y-14507508D01*
X3243991Y-14507508D02*
X3263039Y-14497984D01*
X3415420Y-14697984D02*
X3415420Y-14564650D01*
X3415420Y-14583698D02*
X3424943Y-14574174D01*
X3424943Y-14574174D02*
X3443991Y-14564650D01*
X3443991Y-14564650D02*
X3472563Y-14564650D01*
X3472563Y-14564650D02*
X3491610Y-14574174D01*
X3491610Y-14574174D02*
X3501134Y-14593222D01*
X3501134Y-14593222D02*
X3501134Y-14697984D01*
X3501134Y-14593222D02*
X3510658Y-14574174D01*
X3510658Y-14574174D02*
X3529705Y-14564650D01*
X3529705Y-14564650D02*
X3558277Y-14564650D01*
X3558277Y-14564650D02*
X3577324Y-14574174D01*
X3577324Y-14574174D02*
X3586848Y-14593222D01*
X3586848Y-14593222D02*
X3586848Y-14697984D01*
X3682086Y-14697984D02*
X3682086Y-14564650D01*
X3682086Y-14583698D02*
X3691610Y-14574174D01*
X3691610Y-14574174D02*
X3710658Y-14564650D01*
X3710658Y-14564650D02*
X3739229Y-14564650D01*
X3739229Y-14564650D02*
X3758277Y-14574174D01*
X3758277Y-14574174D02*
X3767801Y-14593222D01*
X3767801Y-14593222D02*
X3767801Y-14697984D01*
X3767801Y-14593222D02*
X3777324Y-14574174D01*
X3777324Y-14574174D02*
X3796372Y-14564650D01*
X3796372Y-14564650D02*
X3824943Y-14564650D01*
X3824943Y-14564650D02*
X3843991Y-14574174D01*
X3843991Y-14574174D02*
X3853515Y-14593222D01*
X3853515Y-14593222D02*
X3853515Y-14697984D01*
X4243991Y-14488460D02*
X4072563Y-14745603D01*
X4501134Y-14497984D02*
X4520182Y-14497984D01*
X4520182Y-14497984D02*
X4539229Y-14507508D01*
X4539229Y-14507508D02*
X4548753Y-14517031D01*
X4548753Y-14517031D02*
X4558277Y-14536079D01*
X4558277Y-14536079D02*
X4567801Y-14574174D01*
X4567801Y-14574174D02*
X4567801Y-14621793D01*
X4567801Y-14621793D02*
X4558277Y-14659888D01*
X4558277Y-14659888D02*
X4548753Y-14678936D01*
X4548753Y-14678936D02*
X4539229Y-14688460D01*
X4539229Y-14688460D02*
X4520182Y-14697984D01*
X4520182Y-14697984D02*
X4501134Y-14697984D01*
X4501134Y-14697984D02*
X4482087Y-14688460D01*
X4482087Y-14688460D02*
X4472563Y-14678936D01*
X4472563Y-14678936D02*
X4463039Y-14659888D01*
X4463039Y-14659888D02*
X4453515Y-14621793D01*
X4453515Y-14621793D02*
X4453515Y-14574174D01*
X4453515Y-14574174D02*
X4463039Y-14536079D01*
X4463039Y-14536079D02*
X4472563Y-14517031D01*
X4472563Y-14517031D02*
X4482087Y-14507508D01*
X4482087Y-14507508D02*
X4501134Y-14497984D01*
X4653515Y-14678936D02*
X4663039Y-14688460D01*
X4663039Y-14688460D02*
X4653515Y-14697984D01*
X4653515Y-14697984D02*
X4643991Y-14688460D01*
X4643991Y-14688460D02*
X4653515Y-14678936D01*
X4653515Y-14678936D02*
X4653515Y-14697984D01*
X4786848Y-14497984D02*
X4805896Y-14497984D01*
X4805896Y-14497984D02*
X4824944Y-14507508D01*
X4824944Y-14507508D02*
X4834468Y-14517031D01*
X4834468Y-14517031D02*
X4843991Y-14536079D01*
X4843991Y-14536079D02*
X4853515Y-14574174D01*
X4853515Y-14574174D02*
X4853515Y-14621793D01*
X4853515Y-14621793D02*
X4843991Y-14659888D01*
X4843991Y-14659888D02*
X4834468Y-14678936D01*
X4834468Y-14678936D02*
X4824944Y-14688460D01*
X4824944Y-14688460D02*
X4805896Y-14697984D01*
X4805896Y-14697984D02*
X4786848Y-14697984D01*
X4786848Y-14697984D02*
X4767801Y-14688460D01*
X4767801Y-14688460D02*
X4758277Y-14678936D01*
X4758277Y-14678936D02*
X4748753Y-14659888D01*
X4748753Y-14659888D02*
X4739229Y-14621793D01*
X4739229Y-14621793D02*
X4739229Y-14574174D01*
X4739229Y-14574174D02*
X4748753Y-14536079D01*
X4748753Y-14536079D02*
X4758277Y-14517031D01*
X4758277Y-14517031D02*
X4767801Y-14507508D01*
X4767801Y-14507508D02*
X4786848Y-14497984D01*
X4920182Y-14497984D02*
X5043991Y-14497984D01*
X5043991Y-14497984D02*
X4977325Y-14574174D01*
X4977325Y-14574174D02*
X5005896Y-14574174D01*
X5005896Y-14574174D02*
X5024944Y-14583698D01*
X5024944Y-14583698D02*
X5034468Y-14593222D01*
X5034468Y-14593222D02*
X5043991Y-14612269D01*
X5043991Y-14612269D02*
X5043991Y-14659888D01*
X5043991Y-14659888D02*
X5034468Y-14678936D01*
X5034468Y-14678936D02*
X5024944Y-14688460D01*
X5024944Y-14688460D02*
X5005896Y-14697984D01*
X5005896Y-14697984D02*
X4948753Y-14697984D01*
X4948753Y-14697984D02*
X4929706Y-14688460D01*
X4929706Y-14688460D02*
X4920182Y-14678936D01*
X5234468Y-14697984D02*
X5120182Y-14697984D01*
X5177325Y-14697984D02*
X5177325Y-14497984D01*
X5177325Y-14497984D02*
X5158277Y-14526555D01*
X5158277Y-14526555D02*
X5139229Y-14545603D01*
X5139229Y-14545603D02*
X5120182Y-14555127D01*
X5415420Y-14497984D02*
X5320182Y-14497984D01*
X5320182Y-14497984D02*
X5310658Y-14593222D01*
X5310658Y-14593222D02*
X5320182Y-14583698D01*
X5320182Y-14583698D02*
X5339229Y-14574174D01*
X5339229Y-14574174D02*
X5386849Y-14574174D01*
X5386849Y-14574174D02*
X5405896Y-14583698D01*
X5405896Y-14583698D02*
X5415420Y-14593222D01*
X5415420Y-14593222D02*
X5424944Y-14612269D01*
X5424944Y-14612269D02*
X5424944Y-14659888D01*
X5424944Y-14659888D02*
X5415420Y-14678936D01*
X5415420Y-14678936D02*
X5405896Y-14688460D01*
X5405896Y-14688460D02*
X5386849Y-14697984D01*
X5386849Y-14697984D02*
X5339229Y-14697984D01*
X5339229Y-14697984D02*
X5320182Y-14688460D01*
X5320182Y-14688460D02*
X5310658Y-14678936D01*
X5501134Y-14497984D02*
X5501134Y-14536079D01*
X5577325Y-14497984D02*
X5577325Y-14536079D01*
X5872563Y-14774174D02*
X5863039Y-14764650D01*
X5863039Y-14764650D02*
X5843991Y-14736079D01*
X5843991Y-14736079D02*
X5834468Y-14717031D01*
X5834468Y-14717031D02*
X5824944Y-14688460D01*
X5824944Y-14688460D02*
X5815420Y-14640841D01*
X5815420Y-14640841D02*
X5815420Y-14602746D01*
X5815420Y-14602746D02*
X5824944Y-14555127D01*
X5824944Y-14555127D02*
X5834468Y-14526555D01*
X5834468Y-14526555D02*
X5843991Y-14507508D01*
X5843991Y-14507508D02*
X5863039Y-14478936D01*
X5863039Y-14478936D02*
X5872563Y-14469412D01*
X5977325Y-14583698D02*
X5958277Y-14574174D01*
X5958277Y-14574174D02*
X5948753Y-14564650D01*
X5948753Y-14564650D02*
X5939229Y-14545603D01*
X5939229Y-14545603D02*
X5939229Y-14536079D01*
X5939229Y-14536079D02*
X5948753Y-14517031D01*
X5948753Y-14517031D02*
X5958277Y-14507508D01*
X5958277Y-14507508D02*
X5977325Y-14497984D01*
X5977325Y-14497984D02*
X6015420Y-14497984D01*
X6015420Y-14497984D02*
X6034468Y-14507508D01*
X6034468Y-14507508D02*
X6043991Y-14517031D01*
X6043991Y-14517031D02*
X6053515Y-14536079D01*
X6053515Y-14536079D02*
X6053515Y-14545603D01*
X6053515Y-14545603D02*
X6043991Y-14564650D01*
X6043991Y-14564650D02*
X6034468Y-14574174D01*
X6034468Y-14574174D02*
X6015420Y-14583698D01*
X6015420Y-14583698D02*
X5977325Y-14583698D01*
X5977325Y-14583698D02*
X5958277Y-14593222D01*
X5958277Y-14593222D02*
X5948753Y-14602746D01*
X5948753Y-14602746D02*
X5939229Y-14621793D01*
X5939229Y-14621793D02*
X5939229Y-14659888D01*
X5939229Y-14659888D02*
X5948753Y-14678936D01*
X5948753Y-14678936D02*
X5958277Y-14688460D01*
X5958277Y-14688460D02*
X5977325Y-14697984D01*
X5977325Y-14697984D02*
X6015420Y-14697984D01*
X6015420Y-14697984D02*
X6034468Y-14688460D01*
X6034468Y-14688460D02*
X6043991Y-14678936D01*
X6043991Y-14678936D02*
X6053515Y-14659888D01*
X6053515Y-14659888D02*
X6053515Y-14621793D01*
X6053515Y-14621793D02*
X6043991Y-14602746D01*
X6043991Y-14602746D02*
X6034468Y-14593222D01*
X6034468Y-14593222D02*
X6015420Y-14583698D01*
X6291610Y-14697984D02*
X6291610Y-14497984D01*
X6377325Y-14697984D02*
X6377325Y-14593222D01*
X6377325Y-14593222D02*
X6367801Y-14574174D01*
X6367801Y-14574174D02*
X6348753Y-14564650D01*
X6348753Y-14564650D02*
X6320182Y-14564650D01*
X6320182Y-14564650D02*
X6301134Y-14574174D01*
X6301134Y-14574174D02*
X6291610Y-14583698D01*
X6501134Y-14697984D02*
X6482087Y-14688460D01*
X6482087Y-14688460D02*
X6472563Y-14678936D01*
X6472563Y-14678936D02*
X6463039Y-14659888D01*
X6463039Y-14659888D02*
X6463039Y-14602746D01*
X6463039Y-14602746D02*
X6472563Y-14583698D01*
X6472563Y-14583698D02*
X6482087Y-14574174D01*
X6482087Y-14574174D02*
X6501134Y-14564650D01*
X6501134Y-14564650D02*
X6529706Y-14564650D01*
X6529706Y-14564650D02*
X6548753Y-14574174D01*
X6548753Y-14574174D02*
X6558277Y-14583698D01*
X6558277Y-14583698D02*
X6567801Y-14602746D01*
X6567801Y-14602746D02*
X6567801Y-14659888D01*
X6567801Y-14659888D02*
X6558277Y-14678936D01*
X6558277Y-14678936D02*
X6548753Y-14688460D01*
X6548753Y-14688460D02*
X6529706Y-14697984D01*
X6529706Y-14697984D02*
X6501134Y-14697984D01*
X6682087Y-14697984D02*
X6663039Y-14688460D01*
X6663039Y-14688460D02*
X6653515Y-14669412D01*
X6653515Y-14669412D02*
X6653515Y-14497984D01*
X6834468Y-14688460D02*
X6815420Y-14697984D01*
X6815420Y-14697984D02*
X6777325Y-14697984D01*
X6777325Y-14697984D02*
X6758277Y-14688460D01*
X6758277Y-14688460D02*
X6748753Y-14669412D01*
X6748753Y-14669412D02*
X6748753Y-14593222D01*
X6748753Y-14593222D02*
X6758277Y-14574174D01*
X6758277Y-14574174D02*
X6777325Y-14564650D01*
X6777325Y-14564650D02*
X6815420Y-14564650D01*
X6815420Y-14564650D02*
X6834468Y-14574174D01*
X6834468Y-14574174D02*
X6843991Y-14593222D01*
X6843991Y-14593222D02*
X6843991Y-14612269D01*
X6843991Y-14612269D02*
X6748753Y-14631317D01*
X6920182Y-14688460D02*
X6939230Y-14697984D01*
X6939230Y-14697984D02*
X6977325Y-14697984D01*
X6977325Y-14697984D02*
X6996372Y-14688460D01*
X6996372Y-14688460D02*
X7005896Y-14669412D01*
X7005896Y-14669412D02*
X7005896Y-14659888D01*
X7005896Y-14659888D02*
X6996372Y-14640841D01*
X6996372Y-14640841D02*
X6977325Y-14631317D01*
X6977325Y-14631317D02*
X6948753Y-14631317D01*
X6948753Y-14631317D02*
X6929706Y-14621793D01*
X6929706Y-14621793D02*
X6920182Y-14602746D01*
X6920182Y-14602746D02*
X6920182Y-14593222D01*
X6920182Y-14593222D02*
X6929706Y-14574174D01*
X6929706Y-14574174D02*
X6948753Y-14564650D01*
X6948753Y-14564650D02*
X6977325Y-14564650D01*
X6977325Y-14564650D02*
X6996372Y-14574174D01*
X7072563Y-14774174D02*
X7082087Y-14764650D01*
X7082087Y-14764650D02*
X7101134Y-14736079D01*
X7101134Y-14736079D02*
X7110658Y-14717031D01*
X7110658Y-14717031D02*
X7120182Y-14688460D01*
X7120182Y-14688460D02*
X7129706Y-14640841D01*
X7129706Y-14640841D02*
X7129706Y-14602746D01*
X7129706Y-14602746D02*
X7120182Y-14555127D01*
X7120182Y-14555127D02*
X7110658Y-14526555D01*
X7110658Y-14526555D02*
X7101134Y-14507508D01*
X7101134Y-14507508D02*
X7082087Y-14478936D01*
X7082087Y-14478936D02*
X7072563Y-14469412D01*
D12*
X2247500Y-14820500D02*
X2247500Y-14920500D01*
X2197500Y-14870500D02*
X2297500Y-14870500D01*
D11*
X2663039Y-14961984D02*
X2548753Y-14961984D01*
X2605896Y-14961984D02*
X2605896Y-14761984D01*
X2605896Y-14761984D02*
X2586848Y-14790555D01*
X2586848Y-14790555D02*
X2567801Y-14809603D01*
X2567801Y-14809603D02*
X2548753Y-14819127D01*
X2748753Y-14942936D02*
X2758277Y-14952460D01*
X2758277Y-14952460D02*
X2748753Y-14961984D01*
X2748753Y-14961984D02*
X2739229Y-14952460D01*
X2739229Y-14952460D02*
X2748753Y-14942936D01*
X2748753Y-14942936D02*
X2748753Y-14961984D01*
X2882086Y-14761984D02*
X2901134Y-14761984D01*
X2901134Y-14761984D02*
X2920182Y-14771508D01*
X2920182Y-14771508D02*
X2929705Y-14781031D01*
X2929705Y-14781031D02*
X2939229Y-14800079D01*
X2939229Y-14800079D02*
X2948753Y-14838174D01*
X2948753Y-14838174D02*
X2948753Y-14885793D01*
X2948753Y-14885793D02*
X2939229Y-14923888D01*
X2939229Y-14923888D02*
X2929705Y-14942936D01*
X2929705Y-14942936D02*
X2920182Y-14952460D01*
X2920182Y-14952460D02*
X2901134Y-14961984D01*
X2901134Y-14961984D02*
X2882086Y-14961984D01*
X2882086Y-14961984D02*
X2863039Y-14952460D01*
X2863039Y-14952460D02*
X2853515Y-14942936D01*
X2853515Y-14942936D02*
X2843991Y-14923888D01*
X2843991Y-14923888D02*
X2834467Y-14885793D01*
X2834467Y-14885793D02*
X2834467Y-14838174D01*
X2834467Y-14838174D02*
X2843991Y-14800079D01*
X2843991Y-14800079D02*
X2853515Y-14781031D01*
X2853515Y-14781031D02*
X2863039Y-14771508D01*
X2863039Y-14771508D02*
X2882086Y-14761984D01*
X3072562Y-14761984D02*
X3091610Y-14761984D01*
X3091610Y-14761984D02*
X3110658Y-14771508D01*
X3110658Y-14771508D02*
X3120182Y-14781031D01*
X3120182Y-14781031D02*
X3129705Y-14800079D01*
X3129705Y-14800079D02*
X3139229Y-14838174D01*
X3139229Y-14838174D02*
X3139229Y-14885793D01*
X3139229Y-14885793D02*
X3129705Y-14923888D01*
X3129705Y-14923888D02*
X3120182Y-14942936D01*
X3120182Y-14942936D02*
X3110658Y-14952460D01*
X3110658Y-14952460D02*
X3091610Y-14961984D01*
X3091610Y-14961984D02*
X3072562Y-14961984D01*
X3072562Y-14961984D02*
X3053515Y-14952460D01*
X3053515Y-14952460D02*
X3043991Y-14942936D01*
X3043991Y-14942936D02*
X3034467Y-14923888D01*
X3034467Y-14923888D02*
X3024943Y-14885793D01*
X3024943Y-14885793D02*
X3024943Y-14838174D01*
X3024943Y-14838174D02*
X3034467Y-14800079D01*
X3034467Y-14800079D02*
X3043991Y-14781031D01*
X3043991Y-14781031D02*
X3053515Y-14771508D01*
X3053515Y-14771508D02*
X3072562Y-14761984D01*
X3263039Y-14761984D02*
X3282086Y-14761984D01*
X3282086Y-14761984D02*
X3301134Y-14771508D01*
X3301134Y-14771508D02*
X3310658Y-14781031D01*
X3310658Y-14781031D02*
X3320182Y-14800079D01*
X3320182Y-14800079D02*
X3329705Y-14838174D01*
X3329705Y-14838174D02*
X3329705Y-14885793D01*
X3329705Y-14885793D02*
X3320182Y-14923888D01*
X3320182Y-14923888D02*
X3310658Y-14942936D01*
X3310658Y-14942936D02*
X3301134Y-14952460D01*
X3301134Y-14952460D02*
X3282086Y-14961984D01*
X3282086Y-14961984D02*
X3263039Y-14961984D01*
X3263039Y-14961984D02*
X3243991Y-14952460D01*
X3243991Y-14952460D02*
X3234467Y-14942936D01*
X3234467Y-14942936D02*
X3224943Y-14923888D01*
X3224943Y-14923888D02*
X3215420Y-14885793D01*
X3215420Y-14885793D02*
X3215420Y-14838174D01*
X3215420Y-14838174D02*
X3224943Y-14800079D01*
X3224943Y-14800079D02*
X3234467Y-14781031D01*
X3234467Y-14781031D02*
X3243991Y-14771508D01*
X3243991Y-14771508D02*
X3263039Y-14761984D01*
X3415420Y-14961984D02*
X3415420Y-14828650D01*
X3415420Y-14847698D02*
X3424943Y-14838174D01*
X3424943Y-14838174D02*
X3443991Y-14828650D01*
X3443991Y-14828650D02*
X3472563Y-14828650D01*
X3472563Y-14828650D02*
X3491610Y-14838174D01*
X3491610Y-14838174D02*
X3501134Y-14857222D01*
X3501134Y-14857222D02*
X3501134Y-14961984D01*
X3501134Y-14857222D02*
X3510658Y-14838174D01*
X3510658Y-14838174D02*
X3529705Y-14828650D01*
X3529705Y-14828650D02*
X3558277Y-14828650D01*
X3558277Y-14828650D02*
X3577324Y-14838174D01*
X3577324Y-14838174D02*
X3586848Y-14857222D01*
X3586848Y-14857222D02*
X3586848Y-14961984D01*
X3682086Y-14961984D02*
X3682086Y-14828650D01*
X3682086Y-14847698D02*
X3691610Y-14838174D01*
X3691610Y-14838174D02*
X3710658Y-14828650D01*
X3710658Y-14828650D02*
X3739229Y-14828650D01*
X3739229Y-14828650D02*
X3758277Y-14838174D01*
X3758277Y-14838174D02*
X3767801Y-14857222D01*
X3767801Y-14857222D02*
X3767801Y-14961984D01*
X3767801Y-14857222D02*
X3777324Y-14838174D01*
X3777324Y-14838174D02*
X3796372Y-14828650D01*
X3796372Y-14828650D02*
X3824943Y-14828650D01*
X3824943Y-14828650D02*
X3843991Y-14838174D01*
X3843991Y-14838174D02*
X3853515Y-14857222D01*
X3853515Y-14857222D02*
X3853515Y-14961984D01*
X4243991Y-14752460D02*
X4072563Y-15009603D01*
X4501134Y-14761984D02*
X4520182Y-14761984D01*
X4520182Y-14761984D02*
X4539229Y-14771508D01*
X4539229Y-14771508D02*
X4548753Y-14781031D01*
X4548753Y-14781031D02*
X4558277Y-14800079D01*
X4558277Y-14800079D02*
X4567801Y-14838174D01*
X4567801Y-14838174D02*
X4567801Y-14885793D01*
X4567801Y-14885793D02*
X4558277Y-14923888D01*
X4558277Y-14923888D02*
X4548753Y-14942936D01*
X4548753Y-14942936D02*
X4539229Y-14952460D01*
X4539229Y-14952460D02*
X4520182Y-14961984D01*
X4520182Y-14961984D02*
X4501134Y-14961984D01*
X4501134Y-14961984D02*
X4482087Y-14952460D01*
X4482087Y-14952460D02*
X4472563Y-14942936D01*
X4472563Y-14942936D02*
X4463039Y-14923888D01*
X4463039Y-14923888D02*
X4453515Y-14885793D01*
X4453515Y-14885793D02*
X4453515Y-14838174D01*
X4453515Y-14838174D02*
X4463039Y-14800079D01*
X4463039Y-14800079D02*
X4472563Y-14781031D01*
X4472563Y-14781031D02*
X4482087Y-14771508D01*
X4482087Y-14771508D02*
X4501134Y-14761984D01*
X4653515Y-14942936D02*
X4663039Y-14952460D01*
X4663039Y-14952460D02*
X4653515Y-14961984D01*
X4653515Y-14961984D02*
X4643991Y-14952460D01*
X4643991Y-14952460D02*
X4653515Y-14942936D01*
X4653515Y-14942936D02*
X4653515Y-14961984D01*
X4786848Y-14761984D02*
X4805896Y-14761984D01*
X4805896Y-14761984D02*
X4824944Y-14771508D01*
X4824944Y-14771508D02*
X4834468Y-14781031D01*
X4834468Y-14781031D02*
X4843991Y-14800079D01*
X4843991Y-14800079D02*
X4853515Y-14838174D01*
X4853515Y-14838174D02*
X4853515Y-14885793D01*
X4853515Y-14885793D02*
X4843991Y-14923888D01*
X4843991Y-14923888D02*
X4834468Y-14942936D01*
X4834468Y-14942936D02*
X4824944Y-14952460D01*
X4824944Y-14952460D02*
X4805896Y-14961984D01*
X4805896Y-14961984D02*
X4786848Y-14961984D01*
X4786848Y-14961984D02*
X4767801Y-14952460D01*
X4767801Y-14952460D02*
X4758277Y-14942936D01*
X4758277Y-14942936D02*
X4748753Y-14923888D01*
X4748753Y-14923888D02*
X4739229Y-14885793D01*
X4739229Y-14885793D02*
X4739229Y-14838174D01*
X4739229Y-14838174D02*
X4748753Y-14800079D01*
X4748753Y-14800079D02*
X4758277Y-14781031D01*
X4758277Y-14781031D02*
X4767801Y-14771508D01*
X4767801Y-14771508D02*
X4786848Y-14761984D01*
X4920182Y-14761984D02*
X5043991Y-14761984D01*
X5043991Y-14761984D02*
X4977325Y-14838174D01*
X4977325Y-14838174D02*
X5005896Y-14838174D01*
X5005896Y-14838174D02*
X5024944Y-14847698D01*
X5024944Y-14847698D02*
X5034468Y-14857222D01*
X5034468Y-14857222D02*
X5043991Y-14876269D01*
X5043991Y-14876269D02*
X5043991Y-14923888D01*
X5043991Y-14923888D02*
X5034468Y-14942936D01*
X5034468Y-14942936D02*
X5024944Y-14952460D01*
X5024944Y-14952460D02*
X5005896Y-14961984D01*
X5005896Y-14961984D02*
X4948753Y-14961984D01*
X4948753Y-14961984D02*
X4929706Y-14952460D01*
X4929706Y-14952460D02*
X4920182Y-14942936D01*
X5139229Y-14961984D02*
X5177325Y-14961984D01*
X5177325Y-14961984D02*
X5196372Y-14952460D01*
X5196372Y-14952460D02*
X5205896Y-14942936D01*
X5205896Y-14942936D02*
X5224944Y-14914365D01*
X5224944Y-14914365D02*
X5234468Y-14876269D01*
X5234468Y-14876269D02*
X5234468Y-14800079D01*
X5234468Y-14800079D02*
X5224944Y-14781031D01*
X5224944Y-14781031D02*
X5215420Y-14771508D01*
X5215420Y-14771508D02*
X5196372Y-14761984D01*
X5196372Y-14761984D02*
X5158277Y-14761984D01*
X5158277Y-14761984D02*
X5139229Y-14771508D01*
X5139229Y-14771508D02*
X5129706Y-14781031D01*
X5129706Y-14781031D02*
X5120182Y-14800079D01*
X5120182Y-14800079D02*
X5120182Y-14847698D01*
X5120182Y-14847698D02*
X5129706Y-14866746D01*
X5129706Y-14866746D02*
X5139229Y-14876269D01*
X5139229Y-14876269D02*
X5158277Y-14885793D01*
X5158277Y-14885793D02*
X5196372Y-14885793D01*
X5196372Y-14885793D02*
X5215420Y-14876269D01*
X5215420Y-14876269D02*
X5224944Y-14866746D01*
X5224944Y-14866746D02*
X5234468Y-14847698D01*
X5405896Y-14828650D02*
X5405896Y-14961984D01*
X5358277Y-14752460D02*
X5310658Y-14895317D01*
X5310658Y-14895317D02*
X5434468Y-14895317D01*
X5501134Y-14761984D02*
X5501134Y-14800079D01*
X5577325Y-14761984D02*
X5577325Y-14800079D01*
X5872563Y-15038174D02*
X5863039Y-15028650D01*
X5863039Y-15028650D02*
X5843991Y-15000079D01*
X5843991Y-15000079D02*
X5834468Y-14981031D01*
X5834468Y-14981031D02*
X5824944Y-14952460D01*
X5824944Y-14952460D02*
X5815420Y-14904841D01*
X5815420Y-14904841D02*
X5815420Y-14866746D01*
X5815420Y-14866746D02*
X5824944Y-14819127D01*
X5824944Y-14819127D02*
X5834468Y-14790555D01*
X5834468Y-14790555D02*
X5843991Y-14771508D01*
X5843991Y-14771508D02*
X5863039Y-14742936D01*
X5863039Y-14742936D02*
X5872563Y-14733412D01*
X6053515Y-14961984D02*
X5939229Y-14961984D01*
X5996372Y-14961984D02*
X5996372Y-14761984D01*
X5996372Y-14761984D02*
X5977325Y-14790555D01*
X5977325Y-14790555D02*
X5958277Y-14809603D01*
X5958277Y-14809603D02*
X5939229Y-14819127D01*
X6129706Y-14781031D02*
X6139229Y-14771508D01*
X6139229Y-14771508D02*
X6158277Y-14761984D01*
X6158277Y-14761984D02*
X6205896Y-14761984D01*
X6205896Y-14761984D02*
X6224944Y-14771508D01*
X6224944Y-14771508D02*
X6234468Y-14781031D01*
X6234468Y-14781031D02*
X6243991Y-14800079D01*
X6243991Y-14800079D02*
X6243991Y-14819127D01*
X6243991Y-14819127D02*
X6234468Y-14847698D01*
X6234468Y-14847698D02*
X6120182Y-14961984D01*
X6120182Y-14961984D02*
X6243991Y-14961984D01*
X6434468Y-14961984D02*
X6320182Y-14961984D01*
X6377325Y-14961984D02*
X6377325Y-14761984D01*
X6377325Y-14761984D02*
X6358277Y-14790555D01*
X6358277Y-14790555D02*
X6339229Y-14809603D01*
X6339229Y-14809603D02*
X6320182Y-14819127D01*
X6672563Y-14961984D02*
X6672563Y-14761984D01*
X6758277Y-14961984D02*
X6758277Y-14857222D01*
X6758277Y-14857222D02*
X6748753Y-14838174D01*
X6748753Y-14838174D02*
X6729706Y-14828650D01*
X6729706Y-14828650D02*
X6701134Y-14828650D01*
X6701134Y-14828650D02*
X6682087Y-14838174D01*
X6682087Y-14838174D02*
X6672563Y-14847698D01*
X6882087Y-14961984D02*
X6863039Y-14952460D01*
X6863039Y-14952460D02*
X6853515Y-14942936D01*
X6853515Y-14942936D02*
X6843991Y-14923888D01*
X6843991Y-14923888D02*
X6843991Y-14866746D01*
X6843991Y-14866746D02*
X6853515Y-14847698D01*
X6853515Y-14847698D02*
X6863039Y-14838174D01*
X6863039Y-14838174D02*
X6882087Y-14828650D01*
X6882087Y-14828650D02*
X6910658Y-14828650D01*
X6910658Y-14828650D02*
X6929706Y-14838174D01*
X6929706Y-14838174D02*
X6939230Y-14847698D01*
X6939230Y-14847698D02*
X6948753Y-14866746D01*
X6948753Y-14866746D02*
X6948753Y-14923888D01*
X6948753Y-14923888D02*
X6939230Y-14942936D01*
X6939230Y-14942936D02*
X6929706Y-14952460D01*
X6929706Y-14952460D02*
X6910658Y-14961984D01*
X6910658Y-14961984D02*
X6882087Y-14961984D01*
X7063039Y-14961984D02*
X7043991Y-14952460D01*
X7043991Y-14952460D02*
X7034468Y-14933412D01*
X7034468Y-14933412D02*
X7034468Y-14761984D01*
X7215420Y-14952460D02*
X7196372Y-14961984D01*
X7196372Y-14961984D02*
X7158277Y-14961984D01*
X7158277Y-14961984D02*
X7139230Y-14952460D01*
X7139230Y-14952460D02*
X7129706Y-14933412D01*
X7129706Y-14933412D02*
X7129706Y-14857222D01*
X7129706Y-14857222D02*
X7139230Y-14838174D01*
X7139230Y-14838174D02*
X7158277Y-14828650D01*
X7158277Y-14828650D02*
X7196372Y-14828650D01*
X7196372Y-14828650D02*
X7215420Y-14838174D01*
X7215420Y-14838174D02*
X7224944Y-14857222D01*
X7224944Y-14857222D02*
X7224944Y-14876269D01*
X7224944Y-14876269D02*
X7129706Y-14895317D01*
X7301134Y-14952460D02*
X7320182Y-14961984D01*
X7320182Y-14961984D02*
X7358277Y-14961984D01*
X7358277Y-14961984D02*
X7377325Y-14952460D01*
X7377325Y-14952460D02*
X7386849Y-14933412D01*
X7386849Y-14933412D02*
X7386849Y-14923888D01*
X7386849Y-14923888D02*
X7377325Y-14904841D01*
X7377325Y-14904841D02*
X7358277Y-14895317D01*
X7358277Y-14895317D02*
X7329706Y-14895317D01*
X7329706Y-14895317D02*
X7310658Y-14885793D01*
X7310658Y-14885793D02*
X7301134Y-14866746D01*
X7301134Y-14866746D02*
X7301134Y-14857222D01*
X7301134Y-14857222D02*
X7310658Y-14838174D01*
X7310658Y-14838174D02*
X7329706Y-14828650D01*
X7329706Y-14828650D02*
X7358277Y-14828650D01*
X7358277Y-14828650D02*
X7377325Y-14838174D01*
X7453515Y-15038174D02*
X7463039Y-15028650D01*
X7463039Y-15028650D02*
X7482087Y-15000079D01*
X7482087Y-15000079D02*
X7491611Y-14981031D01*
X7491611Y-14981031D02*
X7501134Y-14952460D01*
X7501134Y-14952460D02*
X7510658Y-14904841D01*
X7510658Y-14904841D02*
X7510658Y-14866746D01*
X7510658Y-14866746D02*
X7501134Y-14819127D01*
X7501134Y-14819127D02*
X7491611Y-14790555D01*
X7491611Y-14790555D02*
X7482087Y-14771508D01*
X7482087Y-14771508D02*
X7463039Y-14742936D01*
X7463039Y-14742936D02*
X7453515Y-14733412D01*
D13*
X2278462Y-15180462D02*
X2278462Y-15088538D01*
X2186538Y-15088538D01*
X2186538Y-15180462D01*
X2278462Y-15180462D01*
D11*
X2663039Y-15225984D02*
X2548753Y-15225984D01*
X2605896Y-15225984D02*
X2605896Y-15025984D01*
X2605896Y-15025984D02*
X2586848Y-15054555D01*
X2586848Y-15054555D02*
X2567801Y-15073603D01*
X2567801Y-15073603D02*
X2548753Y-15083127D01*
X2748753Y-15206936D02*
X2758277Y-15216460D01*
X2758277Y-15216460D02*
X2748753Y-15225984D01*
X2748753Y-15225984D02*
X2739229Y-15216460D01*
X2739229Y-15216460D02*
X2748753Y-15206936D01*
X2748753Y-15206936D02*
X2748753Y-15225984D01*
X2824943Y-15025984D02*
X2948753Y-15025984D01*
X2948753Y-15025984D02*
X2882086Y-15102174D01*
X2882086Y-15102174D02*
X2910658Y-15102174D01*
X2910658Y-15102174D02*
X2929705Y-15111698D01*
X2929705Y-15111698D02*
X2939229Y-15121222D01*
X2939229Y-15121222D02*
X2948753Y-15140269D01*
X2948753Y-15140269D02*
X2948753Y-15187888D01*
X2948753Y-15187888D02*
X2939229Y-15206936D01*
X2939229Y-15206936D02*
X2929705Y-15216460D01*
X2929705Y-15216460D02*
X2910658Y-15225984D01*
X2910658Y-15225984D02*
X2853515Y-15225984D01*
X2853515Y-15225984D02*
X2834467Y-15216460D01*
X2834467Y-15216460D02*
X2824943Y-15206936D01*
X3072562Y-15025984D02*
X3091610Y-15025984D01*
X3091610Y-15025984D02*
X3110658Y-15035508D01*
X3110658Y-15035508D02*
X3120182Y-15045031D01*
X3120182Y-15045031D02*
X3129705Y-15064079D01*
X3129705Y-15064079D02*
X3139229Y-15102174D01*
X3139229Y-15102174D02*
X3139229Y-15149793D01*
X3139229Y-15149793D02*
X3129705Y-15187888D01*
X3129705Y-15187888D02*
X3120182Y-15206936D01*
X3120182Y-15206936D02*
X3110658Y-15216460D01*
X3110658Y-15216460D02*
X3091610Y-15225984D01*
X3091610Y-15225984D02*
X3072562Y-15225984D01*
X3072562Y-15225984D02*
X3053515Y-15216460D01*
X3053515Y-15216460D02*
X3043991Y-15206936D01*
X3043991Y-15206936D02*
X3034467Y-15187888D01*
X3034467Y-15187888D02*
X3024943Y-15149793D01*
X3024943Y-15149793D02*
X3024943Y-15102174D01*
X3024943Y-15102174D02*
X3034467Y-15064079D01*
X3034467Y-15064079D02*
X3043991Y-15045031D01*
X3043991Y-15045031D02*
X3053515Y-15035508D01*
X3053515Y-15035508D02*
X3072562Y-15025984D01*
X3263039Y-15025984D02*
X3282086Y-15025984D01*
X3282086Y-15025984D02*
X3301134Y-15035508D01*
X3301134Y-15035508D02*
X3310658Y-15045031D01*
X3310658Y-15045031D02*
X3320182Y-15064079D01*
X3320182Y-15064079D02*
X3329705Y-15102174D01*
X3329705Y-15102174D02*
X3329705Y-15149793D01*
X3329705Y-15149793D02*
X3320182Y-15187888D01*
X3320182Y-15187888D02*
X3310658Y-15206936D01*
X3310658Y-15206936D02*
X3301134Y-15216460D01*
X3301134Y-15216460D02*
X3282086Y-15225984D01*
X3282086Y-15225984D02*
X3263039Y-15225984D01*
X3263039Y-15225984D02*
X3243991Y-15216460D01*
X3243991Y-15216460D02*
X3234467Y-15206936D01*
X3234467Y-15206936D02*
X3224943Y-15187888D01*
X3224943Y-15187888D02*
X3215420Y-15149793D01*
X3215420Y-15149793D02*
X3215420Y-15102174D01*
X3215420Y-15102174D02*
X3224943Y-15064079D01*
X3224943Y-15064079D02*
X3234467Y-15045031D01*
X3234467Y-15045031D02*
X3243991Y-15035508D01*
X3243991Y-15035508D02*
X3263039Y-15025984D01*
X3415420Y-15225984D02*
X3415420Y-15092650D01*
X3415420Y-15111698D02*
X3424943Y-15102174D01*
X3424943Y-15102174D02*
X3443991Y-15092650D01*
X3443991Y-15092650D02*
X3472563Y-15092650D01*
X3472563Y-15092650D02*
X3491610Y-15102174D01*
X3491610Y-15102174D02*
X3501134Y-15121222D01*
X3501134Y-15121222D02*
X3501134Y-15225984D01*
X3501134Y-15121222D02*
X3510658Y-15102174D01*
X3510658Y-15102174D02*
X3529705Y-15092650D01*
X3529705Y-15092650D02*
X3558277Y-15092650D01*
X3558277Y-15092650D02*
X3577324Y-15102174D01*
X3577324Y-15102174D02*
X3586848Y-15121222D01*
X3586848Y-15121222D02*
X3586848Y-15225984D01*
X3682086Y-15225984D02*
X3682086Y-15092650D01*
X3682086Y-15111698D02*
X3691610Y-15102174D01*
X3691610Y-15102174D02*
X3710658Y-15092650D01*
X3710658Y-15092650D02*
X3739229Y-15092650D01*
X3739229Y-15092650D02*
X3758277Y-15102174D01*
X3758277Y-15102174D02*
X3767801Y-15121222D01*
X3767801Y-15121222D02*
X3767801Y-15225984D01*
X3767801Y-15121222D02*
X3777324Y-15102174D01*
X3777324Y-15102174D02*
X3796372Y-15092650D01*
X3796372Y-15092650D02*
X3824943Y-15092650D01*
X3824943Y-15092650D02*
X3843991Y-15102174D01*
X3843991Y-15102174D02*
X3853515Y-15121222D01*
X3853515Y-15121222D02*
X3853515Y-15225984D01*
X4243991Y-15016460D02*
X4072563Y-15273603D01*
X4501134Y-15025984D02*
X4520182Y-15025984D01*
X4520182Y-15025984D02*
X4539229Y-15035508D01*
X4539229Y-15035508D02*
X4548753Y-15045031D01*
X4548753Y-15045031D02*
X4558277Y-15064079D01*
X4558277Y-15064079D02*
X4567801Y-15102174D01*
X4567801Y-15102174D02*
X4567801Y-15149793D01*
X4567801Y-15149793D02*
X4558277Y-15187888D01*
X4558277Y-15187888D02*
X4548753Y-15206936D01*
X4548753Y-15206936D02*
X4539229Y-15216460D01*
X4539229Y-15216460D02*
X4520182Y-15225984D01*
X4520182Y-15225984D02*
X4501134Y-15225984D01*
X4501134Y-15225984D02*
X4482087Y-15216460D01*
X4482087Y-15216460D02*
X4472563Y-15206936D01*
X4472563Y-15206936D02*
X4463039Y-15187888D01*
X4463039Y-15187888D02*
X4453515Y-15149793D01*
X4453515Y-15149793D02*
X4453515Y-15102174D01*
X4453515Y-15102174D02*
X4463039Y-15064079D01*
X4463039Y-15064079D02*
X4472563Y-15045031D01*
X4472563Y-15045031D02*
X4482087Y-15035508D01*
X4482087Y-15035508D02*
X4501134Y-15025984D01*
X4653515Y-15206936D02*
X4663039Y-15216460D01*
X4663039Y-15216460D02*
X4653515Y-15225984D01*
X4653515Y-15225984D02*
X4643991Y-15216460D01*
X4643991Y-15216460D02*
X4653515Y-15206936D01*
X4653515Y-15206936D02*
X4653515Y-15225984D01*
X4786848Y-15025984D02*
X4805896Y-15025984D01*
X4805896Y-15025984D02*
X4824944Y-15035508D01*
X4824944Y-15035508D02*
X4834468Y-15045031D01*
X4834468Y-15045031D02*
X4843991Y-15064079D01*
X4843991Y-15064079D02*
X4853515Y-15102174D01*
X4853515Y-15102174D02*
X4853515Y-15149793D01*
X4853515Y-15149793D02*
X4843991Y-15187888D01*
X4843991Y-15187888D02*
X4834468Y-15206936D01*
X4834468Y-15206936D02*
X4824944Y-15216460D01*
X4824944Y-15216460D02*
X4805896Y-15225984D01*
X4805896Y-15225984D02*
X4786848Y-15225984D01*
X4786848Y-15225984D02*
X4767801Y-15216460D01*
X4767801Y-15216460D02*
X4758277Y-15206936D01*
X4758277Y-15206936D02*
X4748753Y-15187888D01*
X4748753Y-15187888D02*
X4739229Y-15149793D01*
X4739229Y-15149793D02*
X4739229Y-15102174D01*
X4739229Y-15102174D02*
X4748753Y-15064079D01*
X4748753Y-15064079D02*
X4758277Y-15045031D01*
X4758277Y-15045031D02*
X4767801Y-15035508D01*
X4767801Y-15035508D02*
X4786848Y-15025984D01*
X5034468Y-15025984D02*
X4939229Y-15025984D01*
X4939229Y-15025984D02*
X4929706Y-15121222D01*
X4929706Y-15121222D02*
X4939229Y-15111698D01*
X4939229Y-15111698D02*
X4958277Y-15102174D01*
X4958277Y-15102174D02*
X5005896Y-15102174D01*
X5005896Y-15102174D02*
X5024944Y-15111698D01*
X5024944Y-15111698D02*
X5034468Y-15121222D01*
X5034468Y-15121222D02*
X5043991Y-15140269D01*
X5043991Y-15140269D02*
X5043991Y-15187888D01*
X5043991Y-15187888D02*
X5034468Y-15206936D01*
X5034468Y-15206936D02*
X5024944Y-15216460D01*
X5024944Y-15216460D02*
X5005896Y-15225984D01*
X5005896Y-15225984D02*
X4958277Y-15225984D01*
X4958277Y-15225984D02*
X4939229Y-15216460D01*
X4939229Y-15216460D02*
X4929706Y-15206936D01*
X5234468Y-15225984D02*
X5120182Y-15225984D01*
X5177325Y-15225984D02*
X5177325Y-15025984D01*
X5177325Y-15025984D02*
X5158277Y-15054555D01*
X5158277Y-15054555D02*
X5139229Y-15073603D01*
X5139229Y-15073603D02*
X5120182Y-15083127D01*
X5310658Y-15045031D02*
X5320182Y-15035508D01*
X5320182Y-15035508D02*
X5339229Y-15025984D01*
X5339229Y-15025984D02*
X5386849Y-15025984D01*
X5386849Y-15025984D02*
X5405896Y-15035508D01*
X5405896Y-15035508D02*
X5415420Y-15045031D01*
X5415420Y-15045031D02*
X5424944Y-15064079D01*
X5424944Y-15064079D02*
X5424944Y-15083127D01*
X5424944Y-15083127D02*
X5415420Y-15111698D01*
X5415420Y-15111698D02*
X5301134Y-15225984D01*
X5301134Y-15225984D02*
X5424944Y-15225984D01*
X5501134Y-15025984D02*
X5501134Y-15064079D01*
X5577325Y-15025984D02*
X5577325Y-15064079D01*
X5872563Y-15302174D02*
X5863039Y-15292650D01*
X5863039Y-15292650D02*
X5843991Y-15264079D01*
X5843991Y-15264079D02*
X5834468Y-15245031D01*
X5834468Y-15245031D02*
X5824944Y-15216460D01*
X5824944Y-15216460D02*
X5815420Y-15168841D01*
X5815420Y-15168841D02*
X5815420Y-15130746D01*
X5815420Y-15130746D02*
X5824944Y-15083127D01*
X5824944Y-15083127D02*
X5834468Y-15054555D01*
X5834468Y-15054555D02*
X5843991Y-15035508D01*
X5843991Y-15035508D02*
X5863039Y-15006936D01*
X5863039Y-15006936D02*
X5872563Y-14997412D01*
X5939229Y-15045031D02*
X5948753Y-15035508D01*
X5948753Y-15035508D02*
X5967801Y-15025984D01*
X5967801Y-15025984D02*
X6015420Y-15025984D01*
X6015420Y-15025984D02*
X6034468Y-15035508D01*
X6034468Y-15035508D02*
X6043991Y-15045031D01*
X6043991Y-15045031D02*
X6053515Y-15064079D01*
X6053515Y-15064079D02*
X6053515Y-15083127D01*
X6053515Y-15083127D02*
X6043991Y-15111698D01*
X6043991Y-15111698D02*
X5929706Y-15225984D01*
X5929706Y-15225984D02*
X6053515Y-15225984D01*
X6224944Y-15092650D02*
X6224944Y-15225984D01*
X6177325Y-15016460D02*
X6129706Y-15159317D01*
X6129706Y-15159317D02*
X6253515Y-15159317D01*
X6482087Y-15225984D02*
X6482087Y-15025984D01*
X6567801Y-15225984D02*
X6567801Y-15121222D01*
X6567801Y-15121222D02*
X6558277Y-15102174D01*
X6558277Y-15102174D02*
X6539230Y-15092650D01*
X6539230Y-15092650D02*
X6510658Y-15092650D01*
X6510658Y-15092650D02*
X6491610Y-15102174D01*
X6491610Y-15102174D02*
X6482087Y-15111698D01*
X6691610Y-15225984D02*
X6672563Y-15216460D01*
X6672563Y-15216460D02*
X6663039Y-15206936D01*
X6663039Y-15206936D02*
X6653515Y-15187888D01*
X6653515Y-15187888D02*
X6653515Y-15130746D01*
X6653515Y-15130746D02*
X6663039Y-15111698D01*
X6663039Y-15111698D02*
X6672563Y-15102174D01*
X6672563Y-15102174D02*
X6691610Y-15092650D01*
X6691610Y-15092650D02*
X6720182Y-15092650D01*
X6720182Y-15092650D02*
X6739230Y-15102174D01*
X6739230Y-15102174D02*
X6748753Y-15111698D01*
X6748753Y-15111698D02*
X6758277Y-15130746D01*
X6758277Y-15130746D02*
X6758277Y-15187888D01*
X6758277Y-15187888D02*
X6748753Y-15206936D01*
X6748753Y-15206936D02*
X6739230Y-15216460D01*
X6739230Y-15216460D02*
X6720182Y-15225984D01*
X6720182Y-15225984D02*
X6691610Y-15225984D01*
X6872563Y-15225984D02*
X6853515Y-15216460D01*
X6853515Y-15216460D02*
X6843991Y-15197412D01*
X6843991Y-15197412D02*
X6843991Y-15025984D01*
X7024944Y-15216460D02*
X7005896Y-15225984D01*
X7005896Y-15225984D02*
X6967801Y-15225984D01*
X6967801Y-15225984D02*
X6948753Y-15216460D01*
X6948753Y-15216460D02*
X6939230Y-15197412D01*
X6939230Y-15197412D02*
X6939230Y-15121222D01*
X6939230Y-15121222D02*
X6948753Y-15102174D01*
X6948753Y-15102174D02*
X6967801Y-15092650D01*
X6967801Y-15092650D02*
X7005896Y-15092650D01*
X7005896Y-15092650D02*
X7024944Y-15102174D01*
X7024944Y-15102174D02*
X7034468Y-15121222D01*
X7034468Y-15121222D02*
X7034468Y-15140269D01*
X7034468Y-15140269D02*
X6939230Y-15159317D01*
X7110658Y-15216460D02*
X7129706Y-15225984D01*
X7129706Y-15225984D02*
X7167801Y-15225984D01*
X7167801Y-15225984D02*
X7186849Y-15216460D01*
X7186849Y-15216460D02*
X7196372Y-15197412D01*
X7196372Y-15197412D02*
X7196372Y-15187888D01*
X7196372Y-15187888D02*
X7186849Y-15168841D01*
X7186849Y-15168841D02*
X7167801Y-15159317D01*
X7167801Y-15159317D02*
X7139230Y-15159317D01*
X7139230Y-15159317D02*
X7120182Y-15149793D01*
X7120182Y-15149793D02*
X7110658Y-15130746D01*
X7110658Y-15130746D02*
X7110658Y-15121222D01*
X7110658Y-15121222D02*
X7120182Y-15102174D01*
X7120182Y-15102174D02*
X7139230Y-15092650D01*
X7139230Y-15092650D02*
X7167801Y-15092650D01*
X7167801Y-15092650D02*
X7186849Y-15102174D01*
X7263039Y-15302174D02*
X7272563Y-15292650D01*
X7272563Y-15292650D02*
X7291611Y-15264079D01*
X7291611Y-15264079D02*
X7301134Y-15245031D01*
X7301134Y-15245031D02*
X7310658Y-15216460D01*
X7310658Y-15216460D02*
X7320182Y-15168841D01*
X7320182Y-15168841D02*
X7320182Y-15130746D01*
X7320182Y-15130746D02*
X7310658Y-15083127D01*
X7310658Y-15083127D02*
X7301134Y-15054555D01*
X7301134Y-15054555D02*
X7291611Y-15035508D01*
X7291611Y-15035508D02*
X7272563Y-15006936D01*
X7272563Y-15006936D02*
X7263039Y-14997412D01*
M02*
