%TF.GenerationSoftware,KiCad,Pcbnew,9.0.7*%
%TF.CreationDate,2026-03-18T03:12:34-04:00*%
%TF.ProjectId,kicad roboarm,6b696361-6420-4726-9f62-6f61726d2e6b,rev?*%
%TF.SameCoordinates,Original*%
%TF.FileFunction,Soldermask,Bot*%
%TF.FilePolarity,Negative*%
%FSLAX46Y46*%
G04 Gerber Fmt 4.6, Leading zero omitted, Abs format (unit mm)*
G04 Created by KiCad (PCBNEW 9.0.7) date 2026-03-18 03:12:34*
%MOMM*%
%LPD*%
G01*
G04 APERTURE LIST*
G04 Aperture macros list*
%AMRoundRect*
0 Rectangle with rounded corners*
0 $1 Rounding radius*
0 $2 $3 $4 $5 $6 $7 $8 $9 X,Y pos of 4 corners*
0 Add a 4 corners polygon primitive as box body*
4,1,4,$2,$3,$4,$5,$6,$7,$8,$9,$2,$3,0*
0 Add four circle primitives for the rounded corners*
1,1,$1+$1,$2,$3*
1,1,$1+$1,$4,$5*
1,1,$1+$1,$6,$7*
1,1,$1+$1,$8,$9*
0 Add four rect primitives between the rounded corners*
20,1,$1+$1,$2,$3,$4,$5,0*
20,1,$1+$1,$4,$5,$6,$7,0*
20,1,$1+$1,$6,$7,$8,$9,0*
20,1,$1+$1,$8,$9,$2,$3,0*%
G04 Aperture macros list end*
%ADD10RoundRect,0.250001X-1.149999X1.149999X-1.149999X-1.149999X1.149999X-1.149999X1.149999X1.149999X0*%
%ADD11C,2.800000*%
%ADD12RoundRect,0.250001X1.149999X-1.149999X1.149999X1.149999X-1.149999X1.149999X-1.149999X-1.149999X0*%
%ADD13RoundRect,0.250001X-1.149999X-1.149999X1.149999X-1.149999X1.149999X1.149999X-1.149999X1.149999X0*%
%ADD14R,1.700000X1.700000*%
%ADD15C,1.700000*%
%ADD16RoundRect,0.250000X-0.550000X-0.550000X0.550000X-0.550000X0.550000X0.550000X-0.550000X0.550000X0*%
%ADD17C,1.600000*%
G04 APERTURE END LIST*
D10*
%TO.C,REF\u002A\u002A7*%
X156000000Y-33500000D03*
D11*
X156000000Y-38500000D03*
%TD*%
D12*
%TO.C,REF\u002A\u002A13*%
X38717500Y-64250000D03*
D11*
X38717500Y-59250000D03*
%TD*%
D13*
%TO.C,REF\u002A\u002A1*%
X37750000Y-33967500D03*
D11*
X42750000Y-33967500D03*
%TD*%
D12*
%TO.C,REF\u002A\u002A8*%
X38717500Y-51250000D03*
D11*
X38717500Y-46250000D03*
%TD*%
D12*
%TO.C,REF\u002A\u002A19*%
X38750000Y-98500000D03*
D11*
X38750000Y-93500000D03*
X38750000Y-88500000D03*
X38750000Y-83500000D03*
X38750000Y-78500000D03*
X38750000Y-73500000D03*
%TD*%
D14*
%TO.C,REF\u002A\u002A9*%
X67700000Y-48040000D03*
D15*
X67700000Y-50580000D03*
X67700000Y-53120000D03*
X67700000Y-55660000D03*
%TD*%
D14*
%TO.C,REF\u002A\u002A12*%
X99060000Y-45720000D03*
D15*
X101600000Y-45720000D03*
X104140000Y-45720000D03*
X106680000Y-45720000D03*
X109220000Y-45720000D03*
X111760000Y-45720000D03*
X114300000Y-45720000D03*
X116840000Y-45720000D03*
X119380000Y-45720000D03*
X121920000Y-45720000D03*
X124460000Y-45720000D03*
X127000000Y-45720000D03*
X129540000Y-45720000D03*
X132080000Y-45720000D03*
X134620000Y-45720000D03*
X137160000Y-45720000D03*
X139700000Y-45720000D03*
X142240000Y-45720000D03*
X144780000Y-45720000D03*
%TD*%
D14*
%TO.C,  1*%
X141500000Y-125040000D03*
D15*
X141500000Y-122500000D03*
X141500000Y-119960000D03*
X141500000Y-117420000D03*
X141500000Y-114880000D03*
X141500000Y-112340000D03*
X141500000Y-109800000D03*
X141500000Y-107260000D03*
%TD*%
D14*
%TO.C,enable1*%
X88135000Y-125040000D03*
D15*
X88135000Y-122500000D03*
X88135000Y-119960000D03*
X88135000Y-117420000D03*
X88135000Y-114880000D03*
X88135000Y-112340000D03*
X88135000Y-109800000D03*
X88135000Y-107260000D03*
%TD*%
D13*
%TO.C,REF\u002A\u002A3*%
X78250000Y-33967500D03*
D11*
X83250000Y-33967500D03*
%TD*%
D14*
%TO.C,REF\u002A\u002A10*%
X87360000Y-54680000D03*
D15*
X87360000Y-57220000D03*
X87360000Y-59760000D03*
%TD*%
D14*
%TO.C,enable 1*%
X80565000Y-125270000D03*
D15*
X80565000Y-122730000D03*
X80565000Y-120190000D03*
X80565000Y-117650000D03*
X80565000Y-115110000D03*
X80565000Y-112570000D03*
X80565000Y-110030000D03*
X80565000Y-107490000D03*
%TD*%
D16*
%TO.C,REF\u002A\u002A14*%
X85847349Y-88500000D03*
D17*
X90847349Y-88500000D03*
%TD*%
D14*
%TO.C,   1*%
X121180000Y-125040000D03*
D15*
X121180000Y-122500000D03*
X121180000Y-119960000D03*
X121180000Y-117420000D03*
X121180000Y-114880000D03*
X121180000Y-112340000D03*
X121180000Y-109800000D03*
X121180000Y-107260000D03*
%TD*%
D16*
%TO.C,REF\u002A\u002A20*%
X65500000Y-89000000D03*
D17*
X70500000Y-89000000D03*
%TD*%
D14*
%TO.C,REF\u002A\u002A17*%
X99060000Y-71120000D03*
D15*
X101600000Y-71120000D03*
X104140000Y-71120000D03*
X106680000Y-71120000D03*
X109220000Y-71120000D03*
X111760000Y-71120000D03*
X114300000Y-71120000D03*
X116840000Y-71120000D03*
X119380000Y-71120000D03*
X121920000Y-71120000D03*
X124460000Y-71120000D03*
X127000000Y-71120000D03*
X129540000Y-71120000D03*
X132080000Y-71120000D03*
X134620000Y-71120000D03*
X137160000Y-71120000D03*
X139700000Y-71120000D03*
X142240000Y-71120000D03*
X144780000Y-71120000D03*
%TD*%
D14*
%TO.C,   enable1*%
X108455000Y-125040000D03*
D15*
X108455000Y-122500000D03*
X108455000Y-119960000D03*
X108455000Y-117420000D03*
X108455000Y-114880000D03*
X108455000Y-112340000D03*
X108455000Y-109800000D03*
X108455000Y-107260000D03*
%TD*%
D16*
%TO.C,REF\u002A\u002A21*%
X105597349Y-89000000D03*
D17*
X110597349Y-89000000D03*
%TD*%
D16*
%TO.C,REF\u002A\u002A18*%
X126250000Y-88750000D03*
D17*
X131250000Y-88750000D03*
%TD*%
D13*
%TO.C,REF\u002A\u002A4*%
X98250000Y-33467500D03*
D11*
X103250000Y-33467500D03*
%TD*%
D13*
%TO.C,REF\u002A\u002A5*%
X138250000Y-33967500D03*
D11*
X143250000Y-33967500D03*
%TD*%
D14*
%TO.C,REF\u002A\u002A15*%
X76200000Y-66040000D03*
D15*
X76200000Y-68580000D03*
X76200000Y-71120000D03*
X76200000Y-73660000D03*
%TD*%
D14*
%TO.C,REF\u002A\u002A11*%
X75700000Y-48040000D03*
D15*
X75700000Y-50580000D03*
X75700000Y-53120000D03*
X75700000Y-55660000D03*
%TD*%
D14*
%TO.C,    1*%
X100860000Y-125040000D03*
D15*
X100860000Y-122500000D03*
X100860000Y-119960000D03*
X100860000Y-117420000D03*
X100860000Y-114880000D03*
X100860000Y-112340000D03*
X100860000Y-109800000D03*
X100860000Y-107260000D03*
%TD*%
D13*
%TO.C,REF\u002A\u002A2*%
X58500000Y-34000000D03*
D11*
X63500000Y-34000000D03*
%TD*%
D14*
%TO.C,enable2*%
X128775000Y-125040000D03*
D15*
X128775000Y-122500000D03*
X128775000Y-119960000D03*
X128775000Y-117420000D03*
X128775000Y-114880000D03*
X128775000Y-112340000D03*
X128775000Y-109800000D03*
X128775000Y-107260000D03*
%TD*%
D14*
%TO.C,REF\u002A\u002A16*%
X67000000Y-65850000D03*
D15*
X67000000Y-68390000D03*
X67000000Y-70930000D03*
X67000000Y-73470000D03*
%TD*%
D14*
%TO.C,REF\u002A\u002A22*%
X67840000Y-125270000D03*
D15*
X67840000Y-122730000D03*
X67840000Y-120190000D03*
X67840000Y-117650000D03*
X67840000Y-115110000D03*
X67840000Y-112570000D03*
X67840000Y-110030000D03*
X67840000Y-107490000D03*
%TD*%
D13*
%TO.C,REF\u002A\u002A6*%
X118250000Y-33967500D03*
D11*
X123250000Y-33967500D03*
%TD*%
M02*
