M48
; DRILL file {KiCad 9.0.7} date 2026-03-18T03:13:29-0400
; FORMAT={-:-/ absolute / metric / decimal}
; #@! TF.CreationDate,2026-03-18T03:13:29-04:00
; #@! TF.GenerationSoftware,Kicad,Pcbnew,9.0.7
; #@! TF.FileFunction,Plated,1,2,PTH
FMAT,2
METRIC
; #@! TA.AperFunction,Plated,PTH,ViaDrill
T1C0.300
; #@! TA.AperFunction,Plated,PTH,ComponentDrill
T2C0.800
; #@! TA.AperFunction,Plated,PTH,ComponentDrill
T3C1.000
; #@! TA.AperFunction,Plated,PTH,ComponentDrill
T4C1.300
%
G90
G05
T1
X74.16Y-103.94
X92.66Y-103.95
X98.795Y-103.945
X115.34Y-103.8
X119.39Y-103.74
X135.986Y-104.045
X139.633Y-103.506
T2
X65.5Y-89.0
X70.5Y-89.0
X85.847Y-88.5
X90.847Y-88.5
X105.597Y-89.0
X110.597Y-89.0
X126.25Y-88.75
X131.25Y-88.75
T3
X67.0Y-65.85
X67.0Y-68.39
X67.0Y-70.93
X67.0Y-73.47
X67.7Y-48.04
X67.7Y-50.58
X67.7Y-53.12
X67.7Y-55.66
X67.84Y-107.49
X67.84Y-110.03
X67.84Y-112.57
X67.84Y-115.11
X67.84Y-117.65
X67.84Y-120.19
X67.84Y-122.73
X67.84Y-125.27
X75.7Y-48.04
X75.7Y-50.58
X75.7Y-53.12
X75.7Y-55.66
X76.2Y-66.04
X76.2Y-68.58
X76.2Y-71.12
X76.2Y-73.66
X80.565Y-107.49
X80.565Y-110.03
X80.565Y-112.57
X80.565Y-115.11
X80.565Y-117.65
X80.565Y-120.19
X80.565Y-122.73
X80.565Y-125.27
X87.36Y-54.68
X87.36Y-57.22
X87.36Y-59.76
X88.135Y-107.26
X88.135Y-109.8
X88.135Y-112.34
X88.135Y-114.88
X88.135Y-117.42
X88.135Y-119.96
X88.135Y-122.5
X88.135Y-125.04
X99.06Y-45.72
X99.06Y-71.12
X100.86Y-107.26
X100.86Y-109.8
X100.86Y-112.34
X100.86Y-114.88
X100.86Y-117.42
X100.86Y-119.96
X100.86Y-122.5
X100.86Y-125.04
X101.6Y-45.72
X101.6Y-71.12
X104.14Y-45.72
X104.14Y-71.12
X106.68Y-45.72
X106.68Y-71.12
X108.455Y-107.26
X108.455Y-109.8
X108.455Y-112.34
X108.455Y-114.88
X108.455Y-117.42
X108.455Y-119.96
X108.455Y-122.5
X108.455Y-125.04
X109.22Y-45.72
X109.22Y-71.12
X111.76Y-45.72
X111.76Y-71.12
X114.3Y-45.72
X114.3Y-71.12
X116.84Y-45.72
X116.84Y-71.12
X119.38Y-45.72
X119.38Y-71.12
X121.18Y-107.26
X121.18Y-109.8
X121.18Y-112.34
X121.18Y-114.88
X121.18Y-117.42
X121.18Y-119.96
X121.18Y-122.5
X121.18Y-125.04
X121.92Y-45.72
X121.92Y-71.12
X124.46Y-45.72
X124.46Y-71.12
X127.0Y-45.72
X127.0Y-71.12
X128.775Y-107.26
X128.775Y-109.8
X128.775Y-112.34
X128.775Y-114.88
X128.775Y-117.42
X128.775Y-119.96
X128.775Y-122.5
X128.775Y-125.04
X129.54Y-45.72
X129.54Y-71.12
X132.08Y-45.72
X132.08Y-71.12
X134.62Y-45.72
X134.62Y-71.12
X137.16Y-45.72
X137.16Y-71.12
X139.7Y-45.72
X139.7Y-71.12
X141.5Y-107.26
X141.5Y-109.8
X141.5Y-112.34
X141.5Y-114.88
X141.5Y-117.42
X141.5Y-119.96
X141.5Y-122.5
X141.5Y-125.04
X142.24Y-45.72
X142.24Y-71.12
X144.78Y-45.72
X144.78Y-71.12
T4
X37.75Y-33.968
X38.718Y-46.25
X38.718Y-51.25
X38.718Y-59.25
X38.718Y-64.25
X38.75Y-73.5
X38.75Y-78.5
X38.75Y-83.5
X38.75Y-88.5
X38.75Y-93.5
X38.75Y-98.5
X42.75Y-33.968
X58.5Y-34.0
X63.5Y-34.0
X78.25Y-33.968
X83.25Y-33.968
X98.25Y-33.468
X103.25Y-33.468
X118.25Y-33.968
X123.25Y-33.968
X138.25Y-33.968
X143.25Y-33.968
X156.0Y-33.5
X156.0Y-38.5
M30
